<?xml version="1.0" encoding="UTF-8"?>
<svg xmlns="http://www.w3.org/2000/svg" viewBox="0 0 169.56 58.88">
  <defs>
    <style>
      .cls-1 {
        isolation: isolate;
      }

      .cls-1, .cls-2 {
        fill: none;
      }

      .cls-3 {
        fill: #231f33;
      }

      .cls-2 {
        mix-blend-mode: multiply;
      }
    </style>
  </defs>
  <g class="cls-1">
    <g id="Layer_2" data-name="Layer 2">
      <g id="OBJECTS">
        <g class="cls-2">
          <path class="cls-3" d="m6.43,26.83s-.01-.02-.02-.03c0,0,0,0-.01,0l.03.03Z"/>
          <path class="cls-3" d="m169.27,30.84c-.52-.04-1.07.07-1.5-.37-.12-.12-.31-.17-.47-.26.17-.08.35-.17.52-.25.2-.09.21-.22,0-.26-.5-.09-.58-.39-.61-.85-.07-1-.49-1.39-1.58-1.65-.05-.19-.17-.3-.35-.39-.23-.11-.44-.26-.64-.41-.14-.1-.15-.22-.04-.3.05-.04.11-.07.17-.09.25-.06.5-.11.74-.16-.16-.42-.52-.18-.79-.25-.18-.05-.37-.08-.55-.13-.13-.04-.17-.45-.05-.51.17-.08.36-.16.54-.16.42,0,.57-.2.56-.6-.01-.27.1-.44.37-.61.52-.32,1.05-.45,1.64-.41.04-.19.17-.29.35-.38.37-.18.39-.27.2-.45-.25-.25-.54-.38-.89-.35-.24.02-.46-.16-.43-.3.14-.71-.33-.91-.84-1.11-.44-.18-.27-.86-.78-1,.04-.11.07-.29.14-.3.32-.06.65-.09.97-.11.32-.02.46-.2.47-.5.01-.39.07-.78-.21-1.14-.2-.25-.3-.58-.47-.84-.18-.27-.1-.48.07-.71.06-.08.07-.21.05-.31-.02-.12-.49-.1-.51.04-.08.56-.6.6-.92.86-.21.18-.34.06-.48-.07-.25-.24-.46-.53-.17-.85.37-.41.22-.88.21-1.32,0-.2-.15-.35-.39-.36-.25,0-.51-.01-.76-.02-.01-.26-.02-.51-.03-.77-.32-.02-.64-.02-.95-.07-.19-.03-.19-.13-.08-.28.1-.13.29-.4,0-.44-.56-.07-.56-.43-.58-.81-.19,0-.38.01-.56-.02-.18-.03-.36-.12-.53-.18.15-.08.31-.17.46-.26.06-.03.11-.08.14-.13.01-.02-.04-.1-.07-.12-.12-.04-.24-.08-.37-.09-.33-.02-.67-.04-1-.03-.24,0-.37-.13-.44-.31-.11-.25.02-.77.27-.85.37-.12.63-.28.4-.68-.17-.3-.31-.57-.31-.92,0-.12-.1-.24-.15-.35-.15.12-.38.2-.44.36-.13.29-.16.62-.25.93-.02.06-.08.12-.13.15-.02.01-.12-.06-.13-.11-.08-.51-.59-.85-.52-1.44.03-.27-.18-.35-.35-.17-.39.42-.99.72-.85,1.47.02.13-.2.32-.32.47-.26.3-.66.29-.82-.01-.03-.06-.02-.14-.06-.19-.31-.52-.59-1.03-.15-1.63.22-.3-.14-.23-.27-.31-.55-.3-.54-.31-.39-1.14.09-.48-.16-1.01-.55-1.17-.4.35-.67.09-.94-.19-.12-.12-.27-.32-.48-.1-.19.2-.34.04-.5-.05-.22-.13-.33.11-.5.17-.19.06-.37.11-.55-.06-.14-.14-.3-.21-.48-.02-.18.19-.39.37-.59.54-.19.17-.34.44-.64.42-.59-.02-1.19-.05-1.78-.11-.15-.01-.2-.17-.14-.32.05-.11.1-.28.19-.31.18-.06.46-.13.58-.04.52.43.94.05,1.39-.1.05-.02.08-.09.13-.14-.05-.04-.1-.11-.15-.13-1.2-.27-2.49.25-3.66-.35-.45.49-.81.17-1.2-.1-.09-.06-.26,0-.39,0-.87,0-1.73-.03-2.6,0-.36,0-.62-.14-.91-.32-.25-.15-.53-.09-.6.24-.08.36-.3.59-.59.76-.1.06-.27.09-.38.05-.31-.1-.1-.26-.03-.42.21-.5.13-.69-.26-.7-.47-.02-.93-.03-1.4-.04-.47,0-.98.11-1.39-.04-1.1-.41-2.19-.83-3.4-.8-.55-.54-1.25-.32-1.9-.36-.46-.03-.94.03-1.4-.03-.31-.04-.59-.27-.9-.33-.4-.07-.65.4-1.1.35-.59-.06-1.2,0-1.8,0-.27,0-.5.02-.74.19-.84.61-1.8.7-2.8.59,0-.12,0-.25,0-.37.32-.03.65-.01.88-.31.31-.4.72-.56,1.22-.52.05,0,.12-.15.16-.24,0-.02-.11-.13-.15-.11-.81.23-1.56-.69-2.39-.12-.4-.47-.81-.15-1.22-.02-.52-.45-1.15-.2-1.73-.29-.45-.06-.75.1-1.04.42-.41.46-.88.55-1.41.16-.35-.26-.76-.29-1.09,0-.41.36-.7.14-1.05-.09-.25-.16-.53-.08-.6.24-.1.43-.36.56-.71.33-.51-.34-.94-.34-1.46,0-.19.13-.5-.3-.84,0-.13.11-.2-.22-.27-.38-.08-.19-.24-.27-.47-.28-.28-.01-.51.02-.73.22-.21.19-.45.25-.71.04-.6-.48-1.11-.3-1.55.23-.22.27-.39.24-.65.04-.19-.16-.5-.18-.68-.34-.5-.43-1.22.06-1.68-.43-.35.13-.72.23-1.03.41-.32.19-.57.29-.89.03-.41-.34-.9-.11-1.34-.16-.83.7-1.8.22-2.7.34-.91-.59-1.94-.25-2.91-.37-.45-.05-.74.47-1.1.32-.5-.2-.93-.45-1.42-.03-.32-.31-.71-.32-1.11-.24-.29.59-.81-.21-1.14.2-.14.17-.35.12-.54.05-.11-.04-1.39-.04-1.49,0-.19.08-.41.13-.55-.03-.34-.38-.58.1-.85.07-.38-.05-.73-.23-1.11-.32-.28-.06-.51.1-.7.29-.14.14-.29.36-.45.37-.14.01-.32-.2-.45-.33-.31-.32-.63-.5-1.02-.12-.12.12-.21.12-.33-.02-.25-.28-.45.11-.66.07-.25-.04-.49-.26-.73-.25-.84,0-1.72-.28-2.52.31-.17.13-.53-.03-.78.04-.69.2-1.33-.47-2.01-.08-1.52-.37-1.52-.36-3.22.06-.36.09-.86.09-1.16-.09-.64-.38-1.28-.22-1.93-.22-.49.51-1.12.29-1.7.35-.19.02-.38.09-.54.2-.45.31-.67.21-.85-.31-.19-.56-.83-.15-1.21-.48-.42-.37-.99-.28-1.49-.05-.59.27-1.17.57-1.73.9-.25.15-.48.11-.73.12,0-.19.01-.38-.02-.56-.03-.18-.07-.44-.2-.52-.33-.2-.69-.36-1.06-.47-.24-.07-.57-.05-.69.22-.06.13.08.35.14.53.04.12.16.22.17.34.01.11-.04.27-.12.35-.08.08-.26.14-.36.1-.24-.09-.45-.32-.68-.35-.53-.05-1.12.12-1.59-.05-.56-.2-1.08-.43-1.68-.39-.05,0-.12-.05-.16-.09-.03-.03-.07-.1-.06-.13.03-.06.08-.12.14-.14.12-.05.3-.03.36-.11.22-.31-.12-.23-.24-.3-.11-.06-.25-.1-.34-.18-.3-.27-.6-.26-.88,0-.25.23-.34-.06-.48-.12-.39-.18-.77-.17-1.11.11-.16.12-.27.3-.43.42-.32.26-.5.2-.76-.21-.28-.45-.46-.55-.7-.27-.48.57-1.07.74-1.78.65-.26-.03-.54,0-.8-.03-.2-.03-.31-.2-.34-.42-.02-.1-.14-.19-.21-.28-.06.11-.16.21-.18.33-.04.33.05.71-.1.97-.23.4-.72.23-1.1.24-.46.02-.96.05-1.38-.09-.32-.11-.5-.24-.83,0-.24.19-.63.18-.63.62,0,.05-.12.15-.12.14-.09-.06-.2-.12-.23-.21-.04-.12,0-.27-.02-.4-.02-.12-.08-.24-.13-.36-.1.04-.22.07-.3.14-.3.26-.59.54-.89.81-.11.09-.21.03-.26-.14-.02-.06-.03-.15,0-.2.19-.26.4-.52.6-.77.22-.28-.04-.34-.2-.35-.36-.03-.36-.29-.46-.54-.11-.27-.3-.15-.34.05-.07.28-.17.48-.5.49-.46.02-.92.04-1.37.09-.12.01-.08.15.03.3.06.07.05.2.07.31-.12.02-.27.1-.37.06-.45-.19-.5-.39-.35-1,.05-.19.06-.4.04-.59-.01-.11-.13-.21-.2-.31-.05.05-.11.09-.14.14-.03.05-.03.13-.06.18-.14.22-.26.57-.44.62-.61.14-.72.69-1.03,1.08-.15.19-.16.19-.63.04-.12-.04-.24-.08-.37-.09-.25-.04-.37.44-.66.21-.29-.24-.62-.2-.94-.26-.19-.03-.35-.16-.34-.41,0-.2.01-.4,0-.6,0-.27-.05-.55-.39-.57-.33-.02-.67-.06-.8.38-.04.14-.03.49-.34.25-.42-.33-.89-.21-1.34-.22-.18,0-.31.16-.34.36-.47-.04-.38-.41-.39-.71,0-.24-.12-.4-.32-.41-.17,0-.36.1-.52.19-.11.06-.23.19-.25.3-.09.58-.46.71-.98.7-.19,0-.34.16-.3.41.04.22.16.34.39.34.13,0,.27-.01.4.03.11.03.21.13.31.19-.11.06-.22.16-.34.17-.59.04-1.19.06-1.78.08-.47.55-1.12.27-1.69.35-.13.02-.28.02-.37.08-.28.2-.55.34-.91.33-.33-.01-.66,0-.92-.26-.26-.26-.49.38-.81,0-.29-.34-.58.06-.86.1-.34.04-.65-.34-1.08-.24-.33.08-.36.32-.44.56-.07.19-.22.2-.26.03-.11-.45-.35-.67-.83-.62-.26.03-.53.03-.8,0-.54-.06-.77.19-1.01.68-.27.57-.7.62-1.35.41-.18-.06-.35-.2-.53-.22-.18-.02-.41.04-.2.32.14.18.14.36-.1.4-.44.08-.68.37-.87.73-.24.46-.44.94-.71,1.38-.19.29-.49.44-.84.17-.14-.1-.27-.23-.45.01-.5.65-.53.65-1.2.34-.25-.11-.44-.25-.72-.08-.28.17-.56.34-.87.45-.53.18-.92.49-1.04,1.05-.12.55-.72.93-.59,1.57.68-.02,1.33-.01,1.24.98,0,.07.32.17.49.26.2.1.27.28.22.49-.05.22-.26.35-.44.26-.36-.18-.62-.26-1.02,0-.31.21-.74.5-1.18.15-.65.5-1.41.24-2.12.29-.64.04-.65.02-.56.88.01.11.07.2-.06.32-.15.13-.29.27-.42.43-.28.34-.24.52.14.76.56.36.58.55.11.99-.09.09-.21.18-.33.19-.12.02-.24-.05-.37-.08.03-.11.05-.22.09-.32.02-.06.12-.15.11-.15-.18-.19-.37-.37-.56-.55-.07.17-.13.35-.23.5-.2.31-.51.26-.74-.09-.1-.15-.18-.37-.32-.44-.16-.08-.4-.07-.59-.01C.23,14.96-.03,15.39,0,15.87c.03.43.31.47.66.55.8.19,1.57.71,2.37.05.41.43.81.28,1.22,0,0,0,.11.09.12.15.12.76.47.57.97.33.19-.09.56.19.85.31.06.02.1.09.14.14-.05.04-.09.11-.14.13-.42.13-.84.25-1.26.37-.43-.47-1.02-.32-1.5-.25-.6.08-.98-.32-1.48-.4-.07-.01-.17.12-.25.19.31.29.17.53-.04.82-.09.13-.05.39.17.5.05.03.12.04.19.04.13.01.27-.01.4.02.12.03.22.12.33.18-.09.07-.18.2-.28.21-.33.05-.47.24-.41.53.04.2.25.27.46.26.2,0,.4.02.6.01.2,0,.38.03.37.26,0,.06-.21.11-.33.15-.19.07-.36.15-.15.37.28.31.58.59,1,.22.13-.11.23-.17.32-.06.31.35.73.24,1.12.26.28.01.52.07.56.41.03.26.08.63-.19.71-.67.2-.73.81-.98,1.29.16.08.32.16.47.26.13.09.25.07.27-.11.06-.43.2-.6.58-.25.25-.19.5-.37.75-.56.05-.03.11-.04.16-.07.04.12.15.26.11.35-.14.36-.29.71-.49,1.05-.22.38-.47.54-.92.19-.22-.17-.7-.2-.88.14-.21.39.21.45.44.66.44.42.73,1.01,1.08,1.53.26.01.51.02.77.03-.08.16-.18.31-.22.48-.13.47.31.26.48.37.27.18.58.29.85.47.08.05.11.23.09.34-.02.11-.12.22-.2.31-.03.04-.13.01-.19.02-.26.02-.59-.02-.7.24-.15.36.15.6.4.82.24.21.43.46.78.57.53.16.81.65,1.14,1.05-.14.71.36,1.1.79,1.49.38.35.52.76.43,1.23-.15.76.44,1.32.52,2.04.05.45.57.66,1.09.57.22-.55.63-1.06,1.15-1.14.99-.17,1.83-.79,2.84-.82.02.19,0,.4.09.54.09.13.33.19.5.21.4.04.8.03,1.19.04.13,0,.26,0,.39.03.06.01.1.08.16.12-.07.08-.15.24-.21.23-.82-.12-1.5.38-2.27.47-.3.03-.24.95-.87.42-.59.42-1.26.65-1.97.8-.28.06-.55.36-.6.73-.02.13.02.27-.02.4-.18.61-.61.9-1.14.59-.6-.34-1.36.06-1.87-.52-.06.11-.16.21-.19.32-.04.22-.16.36-.38.38-.26.02-.53.03-.8,0-.72-.06-1.35-.02-1.28.97,0,.08-.31.18-.48.27-.17.09-.2.18-.1.26.05.04.11.1.16.1.26,0,.53.09.76-.12.25-.22.5-.43.76-.63.16-.12.49.12.53.39.02.12,0,.25,0,.38-.28.14-.55.28-.83.42-.4.21-.43.23-.16.76.12.24.31.59.05.67-.52.16-.54.77-.9.9-.75.28-1.16.8-1.45,1.48-.06.15-.16.1-.28-.05-.3-.41-.42-.42-.67-.09-.19.24-.18.62.06.66.72.1.61.57.54,1.03-.03.22-.4.33-.15.65.33.43.19.71-.34.82-.18.04-.21.2-.09.25.39.15.76.33.62.83-.21.76.39.84.82,1.12.25.17.34-.04.5-.1.12-.04.31-.13.36-.09.41.38,1.02.24,1.42.56.15.12.1.48.15.73.01.06.08.1.13.15.08-.07.2-.12.23-.21.04-.12,0-.26.03-.39.06-.34.29-.56.49-.43.67.41,1.49.39,2.13.84.08.06.1.2.14.31-.11.04-.24.07-.3.14-.4.49-.89.77-1.54.69-.29-.03-.5.12-.68.32-.07.08-.11.2-.15.31,0,.02.1.1.16.1.33.02.66.02.99.02.66.01,1.32.01,1.98.04.11,0,.31.12.31.19,0,.18-.03.4-.14.53-.16.19-.38.37-.62.45-.34.12-.53.37-.75.62-.08.1,0,.48.13.52.12.04.25.06.37.08.19.04.43.03.55.14.65.64,1.03-.28,1.57-.25-.02-.1-.02-.23-.08-.31-.12-.16-.26-.3-.41-.43-.14-.14-.14-.24.03-.29.12-.03.28-.06.37,0,.32.22.59.6.94.68.51.11.7-.52,1.1-.71.05-.02.11-.02.17-.02.09.61-.2,1.03-.76,1.18-.42.12-.3.22-.18.51.19.47.44.74.99.72.32,0,.36.32.37.59,0,.13,0,.28.08.38.06.09.21.16.32.17.11,0,.26-.05.33-.14.36-.46.38-.49.68-.19.45.47.9.54,1.41.15.33-.26.59-.15.88.08.29.23.64.19.94.04.23-.12.37-.2.67-.05.69.36,1.55.01,2.27.5.28.19.57-.25.8-.48.28-.28.55-.34.85-.06.13.12.2.1.34.05.75-.31,1.5-.46,2.23.08.16.12.39.11.54-.06.28-.33.96-.22.95-.87.41-.35.93-.31,1.31-.12.51.26,1.11.4,1.49.93.21.28.6.22.93.13.12-.03.22-.15.34-.21.96-.48,1.89-.84,2.96-.19.33.2.92.22,1.32-.13.43-.37.73-.13,1.01.18.24.27.43.39.8.14.24-.16.64-.08.96-.13.12-.02.25-.07.35-.14.2-.12,0-.6.37-.51.23.05.39.35.6.51.1.07.28.16.35.12.4-.23.79-.19,1.2-.02.08.03.27-.06.33-.15.14-.23.09-.8.57-.29.34.36.72.53,1.23.51,1.4-.04,2.8-.06,4.2-.03.51,0,.89-.12,1.22-.51.29-.35.74-.39,1.08-.17.36.24.71.3,1.12.3,1.47-.01,2.94-.01,4.4-.03.19,0,.43-.01.56-.12.38-.3.68-.26,1.07,0,.19.13.55.18.75.08.42-.19.79-.54,1.23-.07,1.41-.52,2.86-.21,4.3-.26.53-.02,1.14.14,1.58-.05.77-.34,1.46-.59,2.21-.04.02.01.11-.06.16-.1.29-.25.59-.26.89,0,.23.19.45.18.72.03.22-.12.48-.2.74-.23.4-.04.8-.02,1.2-.02.47,0,.93,0,1.4,0,.4,0,.92.15,1.18-.04.49-.37.83-.03,1.23.03.36.05.62-.14.91-.31.34-.21.65.34.85.2.56-.38,1.15-.23,1.74-.25.46-.02.99.1,1.38-.08.47-.22.77-.32,1.24,0,.46.3,1.02.54,1.49-.13.11-.15.54-.24.72-.15.43.22.83,0,1.2.04.43.05.8.07,1.23-.04.43-.11.94.07,1.31-.33.35.11.65.35,1.08.29.5-.07.28-.77.78-.77.34,0,.65-.07.93-.28.11-.08.23-.02.25.15.01.12-.02.27-.09.36-.07.09-.23.09-.34.16-.09.06-.15.15-.23.22.12.06.23.12.35.16.44.14.72-.31,1.09-.33.3-.02.6.24.91.28.43.04.25-.57.58-.64.15-.03.29.29.5.14.29-.2.56-.37.87-.07.21.2.46.22.73.23.78.04,1.6-.27,2.31.33.07.06.27.04.37-.01.41-.2.81-.43,1.22-.65.37.37.84.35,1.3.34.2,0,.47.07.59-.03.48-.43.91-.43,1.41-.03.08.07.37-.07.53-.17.24-.14.47-.26.71-.03.38.35.7.25,1.03-.09.22-.23.47-.58.82-.38.32.18.52.29.8-.05.25-.3.56-.57.89-.79.14-.09.39-.05.59-.02.19.03.31.16.35.36.2.01.47-.04.56.07.41.45.66.18.93-.13.09-.1.21-.17.31-.25.06.17.13.33.18.5.06.18.11.37.16.55.11-.06.24-.11.31-.2.38-.49.76-.71,1.33-.22.17.14.51.08.77.11.39.04.62-.11.68-.53.03-.17.18-.22.25-.12.07.1.07.27.16.35.98.95,2.19.69,3.36.6.11,0,.22-.14.32-.23.25-.23.48-.46.73-.69.18-.16.29-.11.36.17.2.79.36.96.98.75.32-.11.53-.22.86,0,.22.15.51.03.58-.32.06-.34.36-.46.58-.32.32.21.54.26.85,0,.09-.07.38.02.52.12.53.37.96.28,1.43-.14.47-.43.51-.4,1.07.16.22.21.47.21.74.19.43-.03.37-.23.17-.48-.1-.12-.06-.22.12-.28.06-.02.14-.02.2,0,.11.05.24.11.31.21.41.53.42.56.81.35.24-.13.43-.21.72-.1,1.32.46,2.32.5,3.4-.15.68-.4,1.07-.32,1.51.23.06.07.27.12.32.07.38-.35.72-.23,1.06.05.53-.36,1.13-.28,1.71-.28,2.14,0,4.28-.06,6.41,0,.7.02,1.31-.14,1.87-.45.43-.24.65-.35.75.25.03.16.17.13.28-.03.37-.57.42-.63.78-.39.38.26.76.17,1.15.21.52.05,1.06-.09,1.52.32.09.08.36-.03.54-.07.06-.01.11-.08.15-.13.27-.29.53-.62.93-.17.74-.23,1.56-.33,1.82-1.26.06-.21.35-.35.46-.24.44.46.81-.03,1.2-.03.91,0,1.64-.36,2.31-.96.29-.26.74-.36.97-.65.37-.47.66-.06,1-.06.54,0,1.18-.79,1.25-1.35.03-.29-.13-.57-.38-.59-.33-.04-.66-.03-.99-.07-.2-.03-.21-.13-.08-.27.6-.64-.13-1.62.57-2.23-.16-.19-.32-.39-.48-.58-.24-.29-.26-.34.18-.47.46-.14.17-.3.12-.53-.06-.29.38-.64.58-.5.43.3.89.23,1.35.22.09,0,.18-.13.25-.21.01-.01-.06-.11-.11-.16-.22-.26-.49-.39-.85-.43-.5-.07-.77-.65-.47-.98.48-.54.87-1.17,1.61-1.45.38-.15.38-.57.06-.73-.29-.14-.58-.33-.89-.39-.38-.08-.42-.21-.2-.5.04-.05.11-.11.11-.17-.07-.96.21-1.77.81-2.54.3-.38.61-.89.44-1.47-.08-.29-.31-.66-.21-.84.14-.24.52-.38.83-.48.81-.26,1.48-.86,2.36-.94.22-.02.19-.31.16-.5,0-.06-.07-.11-.11-.16-.12-.16-.2-.34.07-.41.51-.13,1.06.12,1.56-.16.21-.12.06-.57.4-.54.25.02.48.24.72.27.39.04.81.08,1.11-.29.08-.1.16-.21.25-.31-.1-.07-.19-.18-.29-.19Zm-5.1-11.55c.05.02.11.03.16.05.16.08.32.17.47.26,0,0,0,0,0-.02l.03.04s-.03-.01-.04-.02c0,.21-.11.35-.33.37-.23.03-.38-.1-.4-.32-.01-.12.06-.24.09-.36ZM4.6,15.93s-.09-.08-.11-.13c-.01-.03.04-.08.06-.12.04,0,.1-.01.13.01.1.08.08.17-.08.24Zm-.8,3.61c-.06-.16-.13-.32-.18-.48,0-.03.08-.09.13-.12.04-.02.07-.02.1-.01.04.01.08.06.1.11.03.06.05.14.04.23-.06.09-.13.18-.19.28Zm1.46.03c-.18.03-.37.03-.55,0-.07-.01-.13-.14-.17-.23,0-.02.08-.11.13-.12.12-.03.24-.03.28-.03.15,0,.22-.02.27,0,.11.05.2.12.31.18-.09.07-.17.18-.26.19Zm2.36-5.97c.56-.15.91.4,1.41.46.04,0,.08.08.12.12.03.06.05.08.06.09,0,0,0,0,0,0-.02-.01-.08-.05-.18.06-.12.15-.34.4-.41.36-.4-.18-.77-.42-1.13-.66-.1-.06-.14-.2-.21-.31.11-.05.22-.11.34-.14Zm1.08,1.84c-.08.1-.16.07-.23-.07,0-.01.07-.09.12-.1.03-.01.08.03.11.05,0,.04.02.1,0,.12Zm-.94,11.34c-.18.01-.35,0-.53,0,0,.01,0,.02,0,.04l-.04-.04s.03,0,.04,0c.02-.29.19-.41.47-.35.08.02.14.14.19.22,0,0-.08.11-.13.12Zm.92-4.13c-.14.18-.31.13-.47.05-.05-.02-.09-.08-.13-.12.05-.04.09-.09.14-.11.16-.06.34-.15.47.08,0,.02.02.07,0,.1Zm.89-5.83c-.04.11-.11.24-.21.3-.1.06-.25.04-.41.05-.55.2-.94-.3-1.44-.41-.22-.05-.29-.22-.11-.39.13-.13.41-.33.43-.3.43.44.99.22,1.49.32.19.04.33.21.25.43Zm.31-.95c-.06-.04-.11-.09-.17-.13l.12-.12s.07.09.11.13l-.06.12Zm-.07-1.16s-.09-.07-.11-.12c-.01-.03.04-.08.06-.12.04,0,.1-.01.12,0,.1.08.08.17-.07.23Zm.47,14.4c-.06-.04-.11-.09-.17-.13.04-.04.08-.08.12-.12.04.04.07.09.11.13-.02.04-.04.08-.06.12Zm.97-19.96s0,.02-.01.03c-.01,0-.02-.01-.04-.02,0,.21-.12.37-.31.39-.32.03-.65-.02-.92.24-.25.24-.29-.03-.36-.18-.08-.17-.14-.37-.25-.52-.11-.15-.12-.24.08-.28.37-.08.75-.06,1.11-.3.23-.15.23.16.28.32.05.19.19.29.38.33,0,0,0-.01,0-.02.02,0,.03,0,.05,0,.16-.58.52-.87,1.14-.78.12.02.23.11.34.17-.03.05-.05.12-.08.13-.48.12-.84.6-1.4.48Zm.51,2.92s.1-.02.12,0c.1.08.08.17-.07.24-.02,0-.09-.08-.11-.13-.01-.03.03-.08.05-.11Zm.51,21.45c-.08.07-.2.09-.35.07-.02-.02-.04-.04-.06-.06-.06-.07-.13-.14-.12-.16.11-.15.24-.28.37-.41.04-.04.1-.06.15-.08.05.11.14.22.14.32,0,.14-.05.25-.13.32Zm.35-22.02s-.09-.07-.11-.12c-.01-.03.04-.08.06-.12.04,0,.1-.01.13,0,.1.08.08.17-.08.23Zm2.67-5.74c0-.06.11-.15.11-.15.61.45,1.16-.35,1.75-.08.05.02.13-.02.19,0,.06.02.15.07.15.11,0,.1-.02.24-.08.31-.13.14-.29.32-.45.35-.31.06-.65.02-1.33.02.11,0-.18.05-.34-.19-.06-.09-.02-.25,0-.37Zm-1.46,4.26c.56-.15,1.01-.64,1.67-.48.19.05.4,0,.6,0h0c.2,0,.4,0,.6,0,.72,0,.95.14.92.45-.03.49-.52.31-.72.54-.19.21-.46.23-.73.22-.33-.01-.67-.02-1,.01-.59.05-1.18.03-1.37-.08-.2-.12-.19-.6.03-.66Zm2.09,2.6c-.08.09-.16.07-.23-.07,0-.01.07-.08.12-.1.03,0,.08.03.11.05,0,.04.02.09,0,.12Zm-.35,1.16s-.1.11-.15.11c-.05,0-.09-.08-.13-.13.05-.04.1-.12.15-.12.05,0,.09.09.13.14Zm-2.48-3.53c-.06-.04-.12-.08-.18-.13.04-.04.08-.08.13-.12.04.04.08.09.12.13-.02.04-.04.08-.06.12Zm1,22.55c-.18.03-.38.04-.56,0-.07-.01-.13-.14-.17-.23,0-.02.08-.11.13-.12.12-.03.25-.03.36-.04.07,0,.14,0,.19.02.11.05.21.12.32.17-.09.07-.18.18-.28.19Zm-.03-20.28c.2-.05.37-.1.54-.12.03,0,.08.15.12.24-.11.04-.22.12-.32.1-.1-.01-.19-.12-.33-.22Zm.46,16.48s.09-.11.15-.12c.12-.03.24-.06.37-.06.38,0,.59-.15.63-.55,0-.04.17-.09.27-.11.03,0,.1.09.11.14.11.68-.08.89-.97.9-.05,0-.24-.03-.42-.08-.05-.01-.08-.08-.13-.12Zm2.39,5.54c-.14.1-.3.17-.45.25,0,.02,0,.04,0,.06l-.04-.04s.02-.01.04-.02c-.03-.28.06-.61-.34-.76-.36-.13-.72-.27-1.05-.45-.25-.14-.22-.43-.24-.69-.01-.24.14-.39.31-.41.39-.05.78-.04,1.17-.04.58,0,.39.26.19.56-.1.16-.1.37.06.53.14.14.26.29.41.42.28.24.17.43-.07.6Zm.78-21c-.1.01-.2-.06-.3-.11-.02,0-.02-.11,0-.12.1-.04.21-.07.32-.11.1.06.19.12.29.17-.1.06-.19.15-.3.16Zm-7.53,27.4s.04,0,.07,0c.02,0,.04,0,.05,0,.1.08.08.17-.07.23-.02,0-.09-.07-.1-.12-.01-.03.03-.07.05-.11Zm-1.32.28s.01.03.02.05c.1.03.21.05.26.12.07.11-.03.22-.14.14-.07-.04-.09-.16-.12-.26-.02,0-.03,0-.05-.01l.03-.04Zm-.56,4.05c.17.04.34.12.5.18-.11.06-.21.12-.32.19-.11-.04-.22-.08-.34-.13.05-.08.12-.25.15-.24Zm2.21,3.37s.09-.08.13-.11c.05.04.14.11.14.13-.09.19-.19.18-.26-.01Zm.18-1.85c-.12.15-.2.34-.26.52-.14.44-.48.32-.79.33,0,.02.01.02.02.04h-.04c.04.44.02.81-.58.86-.21.02-.4.18-.59.29,0,.02,0,.03,0,.05-.01,0-.03,0-.04,0-.07.36-.24.6-.53.71-.1.04-.21.06-.34.07-.05,0-.12-.05-.16-.09-.03-.03-.06-.1-.04-.13.24-.42.6-.61,1.08-.55,0-.01,0-.02,0-.03l.03.03s-.03-.03-.03-.03c0,0,.02-.01.03-.02-.01-.36-.07-.73.47-.79.18-.02.29-.17.32-.36h-.03s0-.03,0-.05c-.08-.02-.17-.04-.22-.07-.02-.01-.03-.02-.04-.04-.06-.22.11-.24.27-.25,0-.01,0-.02,0-.03,0,0,.01,0,.02,0-.05-.11-.1-.22-.16-.32-.05-.11-.11-.22-.17-.32.11-.05.27-.16.33-.12.4.23.78.25,1.18.01.04-.03.13,0,.19.02.19.06.19.13.07.28Zm1.57-3.46c.3-.12.59-.15.87.07-.06.08-.12.23-.18.23-.24,0-.47-.03-.71-.06-.05,0-.09-.08-.13-.12.05-.04.09-.09.15-.11Zm.48,2.06v.11c-.08-.02-.16-.04-.24-.06.04-.03.08-.08.13-.1.03,0,.08.03.11.05Zm-.04,6.96c-.27.19-.6.18-.9.01-.07-.04-.1-.17-.13-.28-.02,0-.03,0-.05,0l.04-.04s0,.02.01.04c.3-.02.57-.06.84-.26.32-.23.72-.16.65-.02-.11.21-.27.41-.46.55ZM19.48,4.03s.08.08.12.13c-.04.04-.09.08-.13.12-.04-.02-.08-.04-.12-.06.04-.06.09-.12.13-.18Zm-.84,3.2c.17-.08.34-.1.49.08-.05.07-.11.22-.15.21-.16-.03-.32-.11-.48-.16.05-.04.08-.1.14-.12Zm-.1,1.38c-.07-.11.04-.22.16-.15.07.04.09.17.12.27.01,0,.03,0,.04.01,0,.01.01.02.02.04.15.01.29.03.25.25,0,.01-.12.03-.13.02-.05-.08-.08-.18-.12-.27-.02,0-.03,0-.05,0,0-.01,0-.03-.01-.05-.1-.03-.23-.05-.27-.12Zm-.26,27.87c.12-.03.24-.03.36-.04.12.02.24.03.36.06.03,0,.05.03.07.05s.05.05.07.07c-.04.04-.08.08-.12.12-.04.04-.08.07-.12.08-.18.03-.38.03-.56,0-.08-.01-.14-.14-.21-.21.05-.04.09-.1.14-.12Zm-2.53,12.94c.04-.07.15-.09.25-.12,0-.02,0-.03.01-.05.01,0,.03,0,.04,0,.02-.21.11-.34.28-.37.06,0,.12,0,.2,0,.08.02.14.14.19.22,0,0-.08.11-.13.12-.18.02-.35.01-.53.02,0,.01,0,.02,0,.03l-.03-.03.03.03s-.03,0-.05.02c-.03.1-.05.21-.12.27-.1.08-.2-.03-.14-.15Zm.03.66s.1.16.15.24c-.14.2-.32.14-.49.09-.05-.02-.09-.09-.13-.13.15-.07.31-.16.47-.2Zm-.15,4.78s0,.02.01.03l-.03-.03s.01,0,.02,0c-.07-.29-.27-.42-.55-.35-.24.06-.45.23-.68.33-.05.02-.13-.01-.18-.04-.05-.03-.11-.11-.11-.12.4-.5.8-1,1.38-1.31.26.4.54.01.8.03.05,0,.12.21.13.33.04.59-.18,1-.8,1.13Zm1.09,1.89c-.08.1-.17.08-.23-.07,0-.02.07-.09.12-.11.03-.01.08.04.12.06,0,.04.01.1,0,.12Zm.27-3.99c-.07-.04-.09-.16-.12-.26-.02,0-.03,0-.05-.01,0,0,0,0-.01-.01-.27.12-.54.26-.82.35-.07.02-.25-.1-.28-.2-.04-.1-.02-.29.05-.36.32-.31.73-.22,1.05.21.02,0,.03-.01.05-.02,0,.02.01.03.02.05.1.03.21.05.26.11.07.11-.03.21-.14.14Zm.51,3.6c-.08-.05-.24-.12-.23-.15.04-.16.12-.32.18-.48.06.1.12.2.18.3-.04.11-.08.21-.13.32Zm2.03-1.34c-.45.41-.11,1.11-.56,1.54-.16.15-.4.28-.45.14-.04-.12-.1-.33-.05-.35.51-.34.23-.99.55-1.38.06-.07.28-.12.35-.07.22.14.19-.15.16.12Zm.19-7.53c-.16-.09-.32-.25-.48-.03-.26.37-.49.77-.76,1.13-.17.23-.41.3-.69.15-.23-.12-.47-.2-.7-.32-.4-.21-.74-.72-.62-.92.21-.36.57-.28.88-.25.52.06.63-.29.8-.66.16-.36.38-.36.92-.21.19.05.39.03.58.08.37.09.44.23.41.77-.07.13-.02.43-.33.26Zm.51,8.51s-.08-.07-.1-.12c0-.03.03-.07.05-.1.04,0,.09-.02.12,0,.1.07.07.16-.07.22Zm1.18-1.09c-.12.13-.24.32-.47.22-.16-.07-.32-.17-.47-.25,0,0,0,0,0,.01-.02,0-.03.01-.05.02-.03.1-.05.21-.12.26-.1.07-.21-.03-.14-.14.03-.04.08-.06.13-.08.04-.01.08-.03.12-.04,0-.02,0-.03.02-.05.01,0,.03.01.04.02.02-.23.12-.34.26-.38.14-.04.31-.03.47-.03.12,0,.24.09.35.13-.04.11-.06.24-.14.31Zm.42-41.43s-.09-.08-.13-.12c.05-.04.1-.12.15-.12.05,0,.09.09.13.14-.05.04-.1.11-.15.11Zm-.09-3.7s.03-.07.05-.1h.12c-.02.08-.04.15-.07.23-.04-.04-.08-.08-.1-.12Zm-.71-3.9c-.1-.09-.21-.16-.3-.26-.08-.09-.14-.21-.2-.32,0,0,.1-.1.16-.1.45-.02.89-.03,1.34-.04,0-.01,0-.02.01-.04.02,0,.04-.01.05-.02.03-.1.05-.21.11-.25.1-.08.21.02.14.13-.05.07-.15.09-.25.12,0,.02,0,.04-.02.05-.02,0-.03,0-.05,0-.11.53-.75.37-.99.72Zm1.28,1.95s-.05.04-.06.04c-.19-.09-.18-.18.01-.25.01,0,.03.02.06.04.02.03.05.06.07.09-.02.02-.05.05-.08.08Zm.25-1.54c-.08-.01-.15-.04-.23-.07-.07-.03-.15-.06-.22-.09h0s.04-.04.07-.06c.02-.02.04-.04.07-.05.16-.06.34-.13.47.09-.05.06-.12.2-.16.19Zm.91,46.65s.09.09.13.13c-.05.04-.12.13-.14.12-.2-.09-.19-.19.01-.25Zm.47,1.77c-.05.06-.15.09-.24.11,0,.02-.01.04-.02.06-.02,0-.04,0-.06,0-.03.08-.07.17-.11.25,0,.02-.12,0-.13-.01-.03-.21.1-.23.23-.24,0-.02.01-.03.02-.05.02,0,.04-.01.06-.02.03-.09.05-.2.11-.24.1-.07.2.03.13.13ZM27.06,3.49s-.09-.07-.11-.12c-.01-.03.04-.08.06-.11.05,0,.1-.02.13,0,.11.08.08.17-.07.23Zm.5,54.06c-.07.1-.16.07-.23-.07,0-.01.07-.08.12-.1.03-.01.07.03.11.05,0,.04.01.09,0,.12Zm0-52.53c-.08.1-.16.07-.23-.07,0-.01.08-.09.13-.1.03,0,.08.04.12.06,0,.04,0,.09-.01.12Zm.71,8.89s-.09-.07-.11-.12c-.01-.02.04-.07.06-.11.04,0,.1-.01.13,0,.1.07.08.15-.08.21Zm.36-9.04s.08,0,.12,0c-.02.08-.05.16-.07.23-.04-.04-.08-.08-.1-.13,0-.03.03-.07.05-.11Zm2.52,49.9c-.06-.04-.12-.08-.18-.12.04-.04.09-.1.13-.1s.08.07.11.11c-.02.04-.04.07-.06.11Zm-.28-43.22c-.12.02-.25,0-.38,0,0,.01.01.03.02.04-.01,0-.03,0-.04,0,0,.13,0,.26,0,.38.01,0,.02-.01.03-.02,0,.01,0,.02,0,.03.11,0,.23-.02.34,0,.11.02.24.07.32.15.09.09-.19.28-.38.23-.19-.05-.27-.19-.28-.37-.01,0-.03,0-.04,0,0,0,0-.01,0-.02-.1.05-.21.09-.29.17-.16.18-.01.74-.58.39-.26-.16-.61-.16-.92-.25-.15-.04-.13-.14,0-.29.22-.27.43-.5.76-.13.33-.17.65-.36,1.03-.28,0-.01,0-.02,0-.04,0,0,.01,0,.02,0-.09-.16-.16-.32-.27-.46-.15-.19-.11-.37-.02-.55.11-.22.41-.21.67.02.1.09.19.19.27.29.26.29.14.61-.27.69Zm.68-5.69c-.06-.04-.11-.08-.17-.13.04-.04.08-.07.12-.11.04.04.07.08.11.12-.02.04-.04.08-.06.11Zm1.9-2.74c-.06.02-.13,0-.19,0-.21-.04-.33-.16-.36-.38-.03-.22-.16-.32-.39-.33-.25,0-.34.13-.39.33-.03.13,0,.26-.03.39-.07.38-.08.38-.47.17-.1-.06-.22-.1-.33-.14,0,0,0,.02.01.02-.02,0-.03.01-.05.02-.03.09-.05.2-.11.24-.11.07-.2-.03-.13-.13.05-.06.15-.08.24-.11,0-.02,0-.03.02-.05,0,0,.01,0,.02,0-.25-.54-.66-.93-1.18-1.19,0,0,0,0,0,.01-.01,0-.02-.01-.04-.02-.02.29-.17.43-.47.36-.19-.05-.33-.16-.29-.39,0-.06.02-.12.04-.17.06-.17.14-.16.28-.05.13.1.29.17.44.25,0,0,0-.01,0-.02.01,0,.03.02.04.02.13-.26.25-.52.38-.78,0,0-.01,0-.02,0l.04-.04-.02.05c.51.28,1.04.44,1.63.37.6-.08.97.25,1.17.79.09.23.21.45.3.68,0,.02-.09.1-.15.12Zm1.25,1.18s-.12-.1-.12-.15c0-.05.08-.1.13-.14.04.05.08.1.12.15-.04.05-.09.09-.13.14Zm-.05-.83s-.09-.09-.11-.14c-.09-.3.19-.62.49-.55.05.01.1.08.14.11.03.19-.34.6-.53.58Zm3.04-1.08c-.05.11-.13.2-.2.3-.07-.1-.17-.2-.19-.3-.03-.18-.01-.38.03-.56.01-.06.15-.11.24-.13.03,0,.11.08.11.14.02.12,0,.25,0,.37h0c0,.06.02.14,0,.19Zm3.05-.76s.08.09.13.13c-.05.04-.09.08-.14.12-.04-.02-.08-.04-.13-.07.05-.06.09-.12.14-.19Zm.05,1.36c-.41.28-.99.04-1.32.5-.07-.11-.12-.16-.14-.22-.01-.06-.02-.16.01-.19.38-.31.77-.6,1.27-.67.07-.01.21.14.24.24.03.1,0,.29-.06.34Zm.4,53.38c-.07.1-.16.07-.22-.08,0-.02.07-.08.12-.1.01,0,.03,0,.05.02s.04.03.06.04c0,.02,0,.04,0,.07,0,.02,0,.04-.01.06Zm3.18-53.71h0c-.06-.04-.11-.08-.17-.13.04-.04.08-.08.12-.11.04.04.07.08.11.13-.02.04-.04.08-.06.11Zm5.63-.05c-.13.09-.39.15-.5.08-.2-.13-.34-.36-.5-.55.16-.08.33-.15.44-.2.2.02.33.02.45.06.21.06.3.5.11.62Zm4.27,54.25c-.29.06-.6.03-.91.03,0,.01,0,.02,0,.03-.01,0-.03,0-.04,0-.03.1-.05.24-.11.26-.21.05-.23-.11-.25-.26-.01,0-.03,0-.04,0,0-.02-.01-.04-.02-.05-.1-.03-.22-.06-.26-.12-.07-.1.05-.21.15-.14.07.05.09.16.11.26.02,0,.04,0,.05.02,0,.01,0,.03,0,.04.12,0,.24,0,.36,0,0-.01,0-.02.01-.03.01,0,.03,0,.04,0,.05-.41.36-.62.7-.75.18-.07.4.05.41.26,0,.16-.1.44-.2.46Zm.61-54.29c-.05.04-.1.09-.15.13-.04-.05-.12-.1-.12-.14,0-.05.08-.09.13-.13.04.05.09.1.14.15h0,0Zm1.11.1c-.08.07-.2.09-.34.08-.03-.04-.08-.09-.12-.13s-.07-.08-.06-.09c.1-.15.24-.28.36-.41.04-.04.1-.06.16-.09.05.11.14.21.14.32,0,.15-.05.25-.13.32Zm3.47,1.04c.13-.04.25-.11.37-.1.08,0,.14.13.21.2-.12.04-.24.12-.35.11-.08,0-.15-.13-.23-.21Zm.59,1.31c-.08.1-.16.08-.23-.07,0-.02.07-.08.12-.1.03-.01.07.03.11.05,0,.04.02.1,0,.12Zm.34-2.75s-.08-.04-.12-.06l.13-.17s.08.08.12.12c-.04.04-.09.07-.13.11Zm.82.37s-.13,0-.13-.02c-.04-.22.1-.24.24-.25,0-.01.01-.03.02-.04l.04.04s-.04,0-.06,0c-.04.09-.07.18-.11.27Zm2.26.89c-.6-.02-1.16.05-1.68.38-.07.04-.23-.07-.35-.11.07-.1.11-.23.2-.31.14-.13.3-.28.48-.31.25-.05.53-.01.79-.01h0c.2.01.39,0,.59.02.05,0,.15.1.14.12-.05.09-.12.24-.17.24Zm.14-.91c-.07-.05-.21-.12-.2-.15.03-.16.11-.31.17-.46.04.04.1.08.12.13.07.17.11.34-.09.48Zm2.76,1.66s-.08-.07-.1-.12c0-.02.03-.07.05-.11.04,0,.09-.01.12,0,.09.07.07.15-.07.21Zm1.73-.11c-.08.15-.18.14-.3,0-.09-.1-.18-.19-.26-.3-.03-.04-.04-.11-.07-.16.06-.02.12-.05.18-.07.06-.02.12-.04.18-.04.22.02.35.15.33.4-.02.05-.03.11-.06.17Zm2.32,50.63s-.08-.03-.11-.05c.04-.06.08-.11.12-.17.04.04.08.08.12.11-.04.04-.08.07-.13.11Zm8.38.02c-.26.1-.49,0-.56-.29-.02-.1.02-.25.08-.33.03-.04.21.01.29.07.1.07.16.19.25.28.14.14.13.22-.06.27Zm4.26-50.49s-.01.03-.02.04c-.02,0-.03,0-.04,0,0,.23-.13.35-.36.36,0,.01,0,.02,0,.04-.01,0-.03,0-.04,0-.03.29-.24.37-.5.35-.18-.01-.35-.07-.53-.11-.01,0-.03-.09-.01-.11.03-.05.09-.12.14-.12.3,0,.6,0,.9,0,0-.01,0-.02,0-.03.01,0,.03,0,.04,0,0-.24.13-.35.36-.36,0-.01,0-.03,0-.04.02,0,.04,0,.06,0,.04-.09.07-.17.11-.25,0-.01.13,0,.13.02.03.21-.1.22-.24.24Zm8.22,49.25c-.06-.04-.11-.09-.17-.13.04-.04.09-.1.12-.1.04,0,.07.07.11.12-.02.04-.04.08-.07.11Zm5.57,1.65c-.19-.09-.18-.2.02-.26.02,0,.08.09.12.14-.05.04-.12.13-.14.12Zm5.62-6.28s.14.11.13.13c-.09.19-.19.18-.26-.02,0-.02.09-.08.13-.11Zm.08,3.76c-.21.11-.32-.06-.42-.19-.1-.12-.16-.28-.23-.42-.02,0-.04,0-.07,0,0-.02.02-.03.02-.05-.3-.03-.68.11-.78-.35-.06-.32-.25-.43-.55-.43-.13,0-.27.02-.4-.01-.31-.1-.67-.61-.52-.66.24-.08.59-.2.75-.1.6.43,1.37.39,1.97.79.08.05.13.16.19.24-.11.05-.23.11-.34.15-.19.06-.29.19-.32.37,0,0,.02,0,.02,0,0,.02.01.03.02.05.1,0,.2,0,.31,0,.31,0,.43.17.41.46,0,.05-.03.13-.07.15Zm2.93,1.07s0,0-.01,0c0,.26.02.52-.01.78,0,.08-.15.14-.24.2,0,0-.12-.09-.12-.14,0-.64.02-1.29.04-1.93,0-.05.08-.1.12-.15.07.09.21.17.21.26.03.32.01.65.01.98Zm1.05.2h0c-.06-.04-.12-.08-.18-.13.04-.04.09-.11.13-.1.04,0,.08.08.11.12-.02.04-.04.08-.06.11Zm1.14-.38c-.2-.09-.19-.19.01-.25.03,0,.09.08.13.13-.05.04-.12.13-.14.12Zm5.48.26s.09-.08.12-.11c.05.04.15.11.14.13-.09.19-.19.19-.26-.01Zm1.83-.34c-.08.1-.16.07-.23-.07,0-.01.07-.08.12-.1.03-.01.08.03.11.05,0,.04.02.09,0,.12Zm3.17-51.3c-.06-.04-.12-.08-.18-.12.04-.04.09-.11.13-.1.04,0,.08.07.11.12-.02.04-.04.07-.06.11Zm1.21,50.93h0c-.06-.04-.12-.08-.17-.12.04-.04.08-.07.12-.11.04.04.07.08.11.12-.02.04-.04.07-.06.11Zm2.39-50.71c.07.05.09.16.12.26.01,0,.03,0,.04.01l-.03.03s0-.03-.01-.05c-.1-.03-.22-.06-.26-.12-.07-.11.04-.21.14-.14Zm.12.72c-.03.1-.05.21-.12.26-.11.07-.21-.03-.14-.13.05-.07.16-.09.26-.12,0-.01,0-.03.01-.04l.03.03s-.03,0-.04.01Zm2.23,45.62s-.1-.09-.14-.13h0s0,0,0,0c.05-.04.1-.12.15-.12.05,0,.09.08.14.13-.05.04-.1.08-.15.12Zm1.86-45.66c-.11-.04-.22-.08-.33-.12.05-.08.12-.24.15-.23.17.04.32.11.48.18-.1.06-.2.12-.31.18Zm1.44,46.45c-.17.14-.35.09-.51,0-.2-.12-.16-.31-.1-.5.02-.06.08-.1.15-.18.18.19.35.37.52.55.01.02-.02.1-.05.12Zm.71,2.06s-.08-.08-.1-.13c0-.03.03-.07.05-.11h.12c-.02.08-.04.15-.07.23Zm.35-45.31c-.09.05-.31.02-.36-.05-.15-.21-.21-.48-.36-.68-.23-.3.08-.45.12-.67.07-.35.22-.63.5-.82.15-.1.37-.16.54-.13.23.03.6.57.58.75-.27.58-.38,1.26-1.02,1.6Zm2.07,47.27c-.05.03-.11.05-.18.05-.11,0-.23-.07-.34-.13,0,0,.02-.11.05-.15.13-.14.25-.29.4-.4.02-.02.11.04.19.1.03.02.05.04.07.05.02.1,0,.19-.04.28-.04.08-.09.15-.16.19Zm1.19.04s-.09-.07-.11-.13c-.01-.03.04-.08.05-.11.05,0,.1-.02.13,0,.1.08.08.17-.07.23Zm.8-.4s-.08-.07-.1-.12c0-.03.03-.07.05-.11.04,0,.09-.02.12,0,.09.07.07.16-.07.23Zm.23-2.36c-.06.02-.13,0-.26,0-.07,0-.2,0-.32-.03-.06-.01-.15-.11-.14-.12.05-.09.11-.24.19-.25.19-.04.4-.03.59,0,.1.02.18.14.27.22-.11.06-.22.13-.33.18Zm1.71.76c-.26.08-.5-.12-.49-.38.01-.22.12-.32.35-.34.25-.03.32.13.39.3.04.22-.06.37-.26.43Zm.32-1.18c-.14.08-.29.03-.32-.13-.01-.05.13-.2.21-.2.11,0,.23.08.35.13-.08.07-.16.15-.24.2Zm1.74-46.43c.05.03.11.06.16.1.15.11.29.22.45.34-.14.14-.21.26-.28.26-.25,0-.5-.04-.47-.38,0-.11.09-.21.14-.31Zm2.76,44.13c-.29.48-.94.13-1.2.48-.22.3-.31.73-.68.89-.29.12-.63.12-.79.14-.78-.02-.52-.31-.35-.57-.15-.08-.3-.17-.45-.24-.16-.07-.22-.17-.12-.27.13-.14.26-.36.42-.39.44-.08.9-.08,1.36-.12.45-.04.74-.56,1.26-.41.12.04.27,0,.39.03.12.03.24.09.36.14-.07.11-.14.21-.2.32Zm1.93-43.6s.08-.09.13-.11c.03-.01.08.04.12.06,0,.04.02.1,0,.13-.08.11-.18.08-.25-.07Zm.77,1.62c-.17-.08-.36-.13-.52-.23-.08-.04-.12-.15-.18-.23.11-.04.23-.1.35-.13.06-.02.13,0,.17,0,.15.03.28.05.4.09.15.05.18.16.17.32-.02.2-.16.27-.37.18Zm.61,43.03s-.09-.04-.13-.06c.05-.06.09-.12.14-.18.04.04.09.08.13.12l-.14.11Zm3.32-43.25s0,0,0,0h0c-.1-.07-.19-.13-.29-.2.16-.06.31-.13.48-.17.03,0,.09.15.14.24-.11.04-.22.09-.33.13Zm4.17-.14s-.03-.03-.03-.04c.05-.24.59-.6.87-.59.05,0,.11.06.14.11.02.03.01.11,0,.14-.11.17-.2.28-.31.36-.11.08-.24.12-.41.16-.07-.05-.2-.1-.26-.14Zm2.38,47.45c-.56.11-1.16-.13-1.69.22-.06.03-.14.11-.16.09-.08-.06-.19-.14-.2-.22,0-.11.04-.3.12-.33.47-.17.96-.22,1.41-.49.24-.15.44.18.63.35.05.04.12.13.1.15-.05.09-.12.21-.21.22Zm1.72-1.65c-.18-.09-.18-.19.02-.26.02,0,.08.09.11.13-.04.05-.11.14-.12.13Zm9.23-29.53c.16-.06.34-.14.48.08-.04.06-.11.2-.14.2-.16-.03-.32-.1-.47-.16.04-.04.08-.1.14-.12Zm-.75-7.82c-.1.07-.2-.03-.13-.13.04-.06.15-.09.25-.12,0-.02,0-.03.02-.05l.04.03s-.03.01-.05.02c-.03.1-.05.2-.12.25Zm.37,16.45s-.17-.16-.17-.25c-.01-.12.04-.25.1-.36.07-.16.17-.31.25-.46,0,0-.01,0-.02,0,0-.02-.01-.04-.02-.06-.09-.03-.2-.05-.24-.11-.07-.1.03-.2.14-.13.06.04.08.15.11.24.02,0,.04.01.06.02,0,.01-.02.03-.02.04.21,0,.37.11.38.32.03.39-.29.57-.56.75Zm1.24-.8h0c-.06-.04-.11-.08-.17-.12.04-.04.08-.07.12-.11.04.04.07.08.11.12-.02.04-.04.07-.06.11Zm.08-1.29c-.17.25-.8.28-1.01.04-.13-.15-.16-.36-.02-.51.16-.17.34-.35.55-.43.14-.06.51.48.51.72-.01.06,0,.13-.03.18Zm1.11-1.12c-.11.07-.21-.04-.14-.14.05-.07.16-.09.26-.12,0-.01,0-.03.01-.04l.03.03s-.03,0-.04.01c-.04.1-.06.22-.13.26Zm1.09,3.26c-.25.08-.5-.12-.48-.37.01-.22.12-.31.34-.34.24-.03.32.12.39.29.04.22-.06.36-.25.42Z"/>
          <path class="cls-3" d="m4.81,23.61s.02.02.02.02h0,0s0,0,0-.01c-.01,0-.03-.01-.04-.02l.02.02Z"/>
          <path class="cls-3" d="m7.23,9.99s0-.03,0-.04c-.01,0-.02,0-.03,0l.04.04Z"/>
          <path class="cls-3" d="m167.25,23.19s-.01,0-.02,0c0,.01-.01.02-.02.03l.04-.03Z"/>
          <path class="cls-3" d="m161.2,11.56s0,.03,0,.04c.01,0,.03,0,.04,0l-.04-.04Z"/>
          <path class="cls-3" d="m109.1,54.51s-.01-.02-.02-.04c0,0-.01,0-.02,0l.04.04Z"/>
          <path class="cls-3" d="m162.81,13.16s0,.02,0,.03c.01,0,.02,0,.03,0l-.03-.04Z"/>
          <path class="cls-3" d="m12.44,36.82s-.01,0-.02,0c0,.01-.01.03-.02.04l.04-.04Z"/>
          <path class="cls-3" d="m4.23,11.24c.59,0,1.14-.53,1.75-.09.04.03.13.01.19,0,.18-.06.17-.14.09-.29-.42-.77-1.25-.86-1.95-1.14-.29-.12-1.08.5-1.09.8,0,.13,0,.26,0,.4,0,0,0,0,.01,0,0,.26-.03.53.01.79.01.1.17.23.27.24.26.04.53.02.79.03.19,0,.37-.03.38-.25,0-.05-.22-.1-.32-.16-.1-.06-.19-.14-.28-.21.05-.04.1-.12.15-.12Z"/>
          <path class="cls-3" d="m161.24,11.56s-.03,0-.04,0l.04.04s0-.03,0-.04Z"/>
          <path class="cls-3" d="m162.77,11.25c.06-.21-.06-.4-.25-.44-.25-.06-.52-.06-.77-.02-.17.02-.4.11-.47.24-.08.14-.04.35-.03.53.44,0,.88,0,1.32-.02.08,0,.18-.17.21-.28Z"/>
          <path class="cls-3" d="m23.61.4c-.09.05-.27.09-.3.17-.21.61.05,1.1.73,1.35.09.03.23-.08.34-.13-.44-.36-.19-1-.57-1.39-.03-.03-.13,0-.21,0Z"/>
          <path class="cls-3" d="m8.4,54.91s.03,0,.05,0c0-.01-.01-.02-.01-.03l-.03.03Z"/>
          <path class="cls-3" d="m9.75,54.94c-.43-.05-.87-.03-1.3-.04.19.64.65.86,1.29.76.09-.02.24-.18.23-.25-.03-.17-.12-.46-.21-.47Z"/>
          <path class="cls-3" d="m8.39,54.87s0,.02.01.03l.03-.03s-.03,0-.04,0Z"/>
          <path class="cls-3" d="m7.58,53.88s-.15-.1-.16-.09c-.08.08-.19.18-.19.28-.01.32,0,.65.03.96.02.18.15.21.27.1.25-.23.55-.25.86-.26-.07-.49-.54-.66-.81-.99Z"/>
          <path class="cls-3" d="m42.64.5c-.07.07-.11.23-.09.33.02.1.11.24.2.27.25.09.88-.34.88-.57-.04-.04-.07-.11-.12-.12-.3-.09-.62-.18-.88.08Z"/>
          <path class="cls-3" d="m57.47,1.4s.08.11.14.12c.12.03.25.03.23.03.34,0,.53.02.72,0,.11-.02.22-.12.32-.18-.09-.07-.18-.19-.28-.2-.32-.03-.64-.03-.96,0-.07,0-.13.15-.17.24Z"/>
          <path class="cls-3" d="m12.38,57.34c-.21.03-.33.14-.3.36,0,.22.12.32.32.35.26.03.48-.22.39-.46-.06-.19-.22-.27-.42-.25Z"/>
          <path class="cls-3" d="m7.81,11.16c.05-.08.09-.26.06-.27-.1-.06-.22-.1-.33-.08-.2.03-.32.15-.3.38.05.1.09.21.14.32.05-.03.11-.06.16-.1.1-.08.2-.15.27-.25Z"/>
          <path class="cls-3" d="m7.19,9.97s.03.01.04.02l-.04-.04s0,.01,0,.02Z"/>
          <path class="cls-3" d="m6.48,9.77c-.02.05-.03.11-.03.17-.03.22.1.35.29.39.3.07.44-.09.46-.36-.15-.08-.31-.14-.43-.24-.14-.11-.22-.12-.28.04Z"/>
          <path class="cls-3" d="m167.03,23.95s.11.03.17.04c.22.03.35-.1.4-.29.06-.29-.07-.45-.36-.48-.04.1-.09.2-.13.3-.06.14-.35.24-.08.43Z"/>
          <path class="cls-3" d="m167.24,23.23s.01-.02.02-.04l-.04.03s.01,0,.02,0Z"/>
          <path class="cls-3" d="m162.84,13.18s-.02-.01-.03-.02l.03.04s0-.01,0-.02Z"/>
          <path class="cls-3" d="m163.45,13.52c.05-.11.12-.21.14-.33.05-.23-.1-.35-.29-.39-.3-.06-.45.08-.47.38.15.08.3.16.45.24.05.03.11.06.16.1Z"/>
          <path class="cls-3" d="m4.12,23.76c.05.08.11.21.19.22.28.06.45-.07.48-.35-.18,0-.35,0-.53.02-.05,0-.14.11-.14.11Z"/>
          <path class="cls-3" d="m4.81,23.61l-.02-.02s0,.02,0,.04c.01,0,.03,0,.04,0h0s0,0-.02-.02Z"/>
          <path class="cls-3" d="m155.81,6.86c-.05.02-.09.07-.14.11.16.06.31.13.47.16.03,0,.09-.14.14-.2-.14-.23-.31-.13-.47-.07Z"/>
          <path class="cls-3" d="m12.74,37.22c.11.01.3-.03.33-.1.11-.27-.14-.24-.29-.26-.11-.01-.23,0-.34,0,.02.18.1.33.29.36Z"/>
          <path class="cls-3" d="m12.45,36.86s0-.03,0-.04l-.04.04s.03,0,.04,0Z"/>
          <path class="cls-3" d="m5.15,42.66c-.16-.06-.32-.14-.48-.18-.03,0-.1.15-.15.23.11.04.21.08.32.12.1-.06.2-.12.31-.18Z"/>
          <path class="cls-3" d="m109.05,54.51s.03,0,.05,0l-.04-.04s0,.02,0,.04Z"/>
          <path class="cls-3" d="m108.39,54.63c.05.08.11.21.18.22.28.05.45-.06.48-.35-.18,0-.35,0-.52.01-.05,0-.14.1-.14.11Z"/>
          <path class="cls-3" d="m30.43,57.95s-.14-.1-.21-.15c-.2.14-.14.32-.07.48.02.05.07.09.11.14.06-.16.14-.31.17-.48Z"/>
          <path class="cls-3" d="m21.95,2.33c.28.05.46-.07.48-.36-.18,0-.35,0-.53,0-.05,0-.14.1-.13.12.04.09.1.22.18.23Z"/>
          <path class="cls-3" d="m22.44,1.94s0,.02,0,.03c.01,0,.03,0,.04,0l-.03-.03Z"/>
          <path class="cls-3" d="m44.89.76s.03,0,.05.01c0-.02,0-.03-.02-.05l-.03.04Z"/>
          <path class="cls-3" d="m45.06,1.03c.11.07.21-.03.14-.14-.05-.07-.16-.09-.26-.12.03.1.05.21.12.25Z"/>
          <path class="cls-3" d="m22.6,1.66c-.07.05-.09.16-.12.26.1-.03.21-.05.26-.12.07-.11-.04-.21-.14-.14Z"/>
          <path class="cls-3" d="m22.49,1.92s-.03,0-.05.02l.03.03s0-.03.01-.05Z"/>
          <path class="cls-3" d="m.66,13.88s.04-.07.06-.11c-.04-.04-.07-.08-.11-.12l-.12.11c.06.04.12.08.17.12Z"/>
          <path class="cls-3" d="m168.62,23.15c.14-.07.16-.16.07-.23-.02-.02-.08,0-.12,0-.02.04-.06.08-.05.11.02.05.09.13.1.12Z"/>
          <path class="cls-3" d="m6.38,26.85s.03,0,.05-.02l-.03-.03s0,.03-.01.05Z"/>
          <path class="cls-3" d="m6.26,27.1c.07-.05.09-.16.12-.26-.1.03-.21.05-.26.12-.07.11.03.21.14.13Z"/>
          <path class="cls-3" d="m2.94,42.97s-.06.09-.05.12c.02.05.09.13.1.13.14-.07.17-.16.07-.24-.02-.02-.08,0-.12,0Z"/>
          <path class="cls-3" d="m161.67,49.47c.08.02.16.05.24.07,0-.04,0-.08,0-.12-.04-.02-.09-.06-.12-.06-.05.01-.09.06-.13.1Z"/>
          <path class="cls-3" d="m13.84,57.37s-.09.07-.13.1c.06.04.12.08.18.13.02-.04.04-.08.06-.11-.04-.04-.08-.11-.12-.12Z"/>
          <path class="cls-3" d="m9.22,47.26s-.01,0-.02,0c0,.01,0,.02,0,.03,0,.12,0,.24,0,.36,0,.02,0,.03,0,.05h.03c.13,0,.25,0,.38,0h.04s-.01-.02-.02-.04c-.04-.23-.18-.35-.4-.39Z"/>
        </g>
      </g>
    </g>
  </g>
</svg>