<?xml version="1.0" encoding="UTF-8"?>
<svg xmlns="http://www.w3.org/2000/svg" viewBox="0 0 300 60">
  <defs>
    <style>
      .cls-1 {
        isolation: isolate;
      }

      .cls-1, .cls-2 {
        fill: none;
      }

      .cls-3 {
        fill: #201930;
      }

      .cls-2 {
        mix-blend-mode: multiply;
      }
    </style>
  </defs>
  <g class="cls-1">
    <g id="Layer_2" data-name="Layer 2">
      <g id="Layer_1-2" data-name="Layer 1">
        <g class="cls-2">
          <path class="cls-3" d="m11.38,27.34s-.02-.02-.04-.03c0,0-.02,0-.02,0l.06.03Z"/>
          <path class="cls-3" d="m299.49,31.42c-.92-.04-1.89.08-2.66-.38-.21-.13-.55-.18-.84-.26.31-.08.61-.17.92-.25.35-.09.37-.23,0-.26-.88-.09-1.02-.4-1.08-.86-.12-1.02-.86-1.42-2.79-1.68-.08-.19-.3-.31-.62-.4-.4-.12-.77-.27-1.14-.42-.25-.11-.26-.22-.08-.3.09-.04.19-.07.3-.09.44-.06.88-.11,1.32-.16-.28-.42-.92-.19-1.39-.25-.32-.05-.65-.08-.97-.13-.23-.04-.3-.46-.08-.52.3-.08.63-.16.95-.16.74,0,1.01-.21.99-.61-.02-.28.18-.45.65-.62.92-.32,1.86-.46,2.91-.42.08-.19.3-.3.62-.38.65-.18.68-.28.36-.46-.45-.25-.95-.39-1.57-.36-.42.02-.81-.16-.76-.31.25-.73-.59-.92-1.48-1.13-.78-.18-.48-.88-1.38-1.02.08-.12.13-.29.24-.3.56-.07,1.14-.09,1.72-.11.57-.02.82-.2.83-.51.02-.4.13-.8-.37-1.16-.35-.25-.52-.59-.84-.86-.32-.28-.17-.49.13-.72.1-.08.12-.22.08-.32-.04-.12-.87-.1-.9.04-.13.57-1.06.61-1.64.88-.38.18-.61.07-.85-.07-.45-.25-.82-.54-.31-.87.65-.42.4-.89.37-1.35-.01-.2-.27-.36-.68-.37-.45,0-.9-.01-1.35-.02-.02-.26-.04-.52-.06-.78-.56-.02-1.13-.02-1.68-.07-.34-.03-.34-.14-.15-.29.18-.13.52-.4,0-.44-.98-.07-.99-.44-1.02-.83-.33,0-.66.01-.98-.02-.32-.03-.63-.12-.94-.19.27-.09.55-.17.81-.26.1-.03.2-.08.26-.14.02-.02-.07-.11-.13-.12-.21-.04-.43-.08-.65-.09-.59-.02-1.18-.04-1.77-.03-.42,0-.65-.13-.78-.32-.19-.26.04-.78.48-.86.66-.12,1.11-.28.72-.69-.29-.3-.54-.58-.55-.94,0-.12-.17-.24-.26-.36-.27.12-.66.21-.79.36-.23.29-.29.63-.44.95-.03.06-.13.12-.23.15-.04.01-.21-.06-.22-.11-.14-.52-1.04-.87-.92-1.47.06-.28-.32-.36-.61-.18-.69.43-1.75.73-1.5,1.5.04.13-.35.33-.57.47-.46.3-1.16.29-1.45-.01-.06-.06-.04-.14-.1-.19-.56-.53-1.04-1.05-.26-1.66.39-.31-.24-.24-.48-.31-.98-.31-.96-.31-.68-1.16.16-.49-.29-1.03-.96-1.2-.71.35-1.18.09-1.67-.2-.22-.13-.48-.32-.85-.1-.34.2-.59.04-.88-.05-.39-.13-.59.11-.89.17-.33.06-.66.11-.97-.06-.25-.14-.54-.22-.86-.02-.33.2-.69.37-1.04.55-.34.18-.6.44-1.13.43-1.05-.02-2.1-.05-3.14-.11-.27-.01-.36-.18-.24-.33.09-.12.18-.29.34-.31.32-.06.82-.13,1.02-.04.91.44,1.66.05,2.45-.1.09-.02.15-.09.22-.14-.09-.04-.17-.12-.27-.13-2.13-.28-4.4.25-6.48-.36-.79.5-1.44.17-2.13-.1-.16-.06-.46,0-.7,0-1.53,0-3.06-.03-4.59,0-.64.01-1.1-.14-1.61-.32-.45-.16-.93-.09-1.07.24-.15.36-.53.6-1.04.78-.18.06-.47.09-.67.05-.55-.1-.17-.27-.05-.43.38-.51.23-.7-.46-.72-.82-.02-1.65-.03-2.47-.04-.83,0-1.73.12-2.46-.04-1.95-.42-3.88-.85-6.01-.81-.98-.55-2.22-.32-3.36-.36-.82-.03-1.66.03-2.47-.03-.55-.04-1.04-.28-1.59-.33-.71-.07-1.15.41-1.94.36-1.05-.06-2.12,0-3.18,0-.47,0-.88.02-1.3.2-1.49.62-3.19.72-4.95.6,0-.13,0-.25,0-.38.56-.03,1.15-.01,1.56-.32.55-.41,1.27-.57,2.16-.53.09,0,.22-.15.29-.25.01-.02-.19-.13-.26-.12-1.44.24-2.77-.71-4.23-.13-.71-.48-1.44-.15-2.16-.02-.92-.46-2.03-.21-3.05-.29-.8-.07-1.33.1-1.85.43-.72.47-1.55.56-2.49.16-.62-.26-1.35-.29-1.93,0-.73.37-1.23.14-1.85-.09-.44-.16-.93-.09-1.07.25-.18.44-.64.57-1.25.34-.9-.35-1.66-.35-2.58,0-.33.13-.89-.3-1.49,0-.23.11-.36-.22-.47-.39-.14-.2-.43-.27-.82-.28-.49-.01-.91.02-1.29.22-.38.2-.8.25-1.26.04-1.06-.49-1.97-.31-2.74.24-.39.27-.69.25-1.14.04-.34-.16-.88-.18-1.21-.35-.88-.44-2.15.07-2.98-.44-.61.14-1.27.23-1.83.42-.56.19-1.01.3-1.57.03-.72-.35-1.58-.11-2.38-.16-1.46.71-3.19.22-4.78.35-1.61-.61-3.43-.26-5.14-.37-.79-.05-1.31.47-1.95.33-.88-.2-1.64-.46-2.51-.03-.57-.31-1.25-.32-1.97-.24-.51.6-1.43-.21-2.02.2-.25.18-.62.12-.96.05-.2-.04-2.45-.05-2.64,0-.34.08-.72.13-.97-.03-.6-.38-1.03.11-1.5.07-.67-.05-1.3-.24-1.96-.32-.5-.06-.89.1-1.24.3-.25.14-.52.36-.8.38-.25.01-.56-.2-.8-.34-.55-.32-1.12-.51-1.8-.13-.22.12-.36.12-.58-.02-.45-.29-.79.11-1.17.08-.44-.04-.86-.26-1.29-.26-1.49,0-3.05-.28-4.46.31-.31.13-.95-.03-1.38.04-1.21.2-2.34-.48-3.55-.09-2.69-.38-2.68-.37-5.7.06-.64.09-1.52.09-2.05-.09-1.13-.39-2.27-.22-3.42-.23-.87.52-1.98.3-3.01.36-.33.02-.68.09-.95.2-.79.31-1.19.22-1.51-.31-.34-.57-1.47-.16-2.13-.49-.75-.38-1.76-.29-2.64-.05-1.04.28-2.08.58-3.06.92-.44.15-.85.11-1.29.12,0-.19.02-.39-.04-.57-.06-.19-.13-.45-.35-.53-.58-.21-1.22-.37-1.88-.48-.43-.07-1.01-.05-1.22.23-.1.13.14.36.25.54.08.12.28.23.3.35.02.12-.07.28-.21.35-.15.08-.46.14-.63.1-.42-.09-.79-.33-1.21-.35-.93-.06-1.97.12-2.81-.05-.99-.21-1.91-.44-2.98-.39-.09,0-.21-.05-.29-.09-.06-.03-.13-.1-.11-.13.05-.06.14-.12.24-.14.21-.05.54-.03.64-.11.39-.32-.21-.23-.42-.3-.2-.07-.43-.1-.6-.18-.53-.27-1.06-.26-1.55,0-.44.24-.59-.06-.86-.13-.7-.18-1.36-.17-1.96.11-.27.13-.48.3-.76.43-.57.26-.89.21-1.34-.21-.49-.46-.81-.56-1.23-.27-.85.58-1.89.75-3.14.67-.47-.03-.95,0-1.41-.03-.36-.03-.54-.2-.6-.43-.03-.1-.24-.19-.38-.29-.11.11-.29.22-.32.34-.08.33.08.73-.18.99-.4.4-1.27.23-1.94.24-.82.02-1.69.06-2.44-.09-.56-.11-.88-.25-1.47,0-.43.19-1.12.18-1.12.63,0,.05-.2.15-.22.14-.15-.06-.36-.12-.41-.21-.07-.12,0-.27-.04-.4-.04-.13-.15-.25-.23-.37-.18.04-.4.07-.54.14-.54.27-1.04.55-1.57.82-.19.09-.37.03-.46-.14-.03-.06-.05-.16,0-.2.34-.27.7-.53,1.06-.79.39-.29-.07-.35-.36-.36-.64-.03-.64-.3-.81-.55-.19-.28-.52-.15-.61.05-.12.29-.29.49-.88.5-.81.02-1.62.04-2.43.1-.2.01-.14.16.06.3.1.08.09.21.13.31-.22.02-.48.11-.65.06-.8-.2-.89-.4-.62-1.01.08-.19.11-.4.07-.6-.02-.11-.23-.21-.35-.31-.08.05-.19.09-.25.14-.06.05-.04.13-.1.18-.25.22-.46.58-.78.63-1.09.14-1.28.7-1.83,1.1-.27.19-.28.19-1.11.04-.21-.04-.43-.08-.65-.1-.45-.04-.66.45-1.17.21-.51-.24-1.09-.21-1.66-.26-.34-.03-.62-.17-.6-.42.02-.2.02-.41,0-.61-.02-.28-.08-.56-.69-.58-.58-.02-1.19-.06-1.41.39-.07.14-.06.5-.6.25-.73-.33-1.58-.21-2.38-.23-.33,0-.54.17-.6.37-.82-.04-.68-.42-.69-.73,0-.24-.21-.41-.56-.42-.3,0-.64.1-.92.19-.19.07-.42.19-.45.3-.16.59-.81.73-1.73.71-.34,0-.61.17-.53.42.07.23.29.35.69.35.24,0,.48-.01.7.03.2.03.37.13.55.2-.2.06-.39.16-.6.17-1.05.04-2.1.06-3.15.08-.84.56-1.98.27-2.99.36-.22.02-.49.02-.66.09-.49.2-.97.35-1.6.33-.59-.01-1.17,0-1.63-.27-.46-.26-.88.39-1.44,0-.51-.35-1.02.06-1.53.1-.6.04-1.15-.35-1.91-.25-.59.08-.63.33-.78.58-.12.19-.38.21-.46.03-.19-.46-.62-.68-1.47-.63-.47.03-.95.03-1.41,0-.96-.06-1.37.2-1.78.69-.49.58-1.23.64-2.39.42-.32-.06-.62-.21-.94-.23-.31-.02-.72.04-.35.33.24.19.26.36-.19.41-.77.08-1.21.38-1.54.75-.42.47-.77.96-1.26,1.4-.33.3-.86.45-1.49.18-.25-.11-.47-.23-.8.01-.89.66-.93.66-2.13.34-.44-.12-.79-.25-1.27-.09-.49.17-.99.35-1.53.46-.94.19-1.63.5-1.84,1.07-.21.56-1.27.95-1.04,1.6,1.21-.02,2.35-.01,2.2,1-.01.07.57.17.87.26.35.11.48.29.39.49-.09.22-.47.35-.77.26-.63-.19-1.1-.27-1.8,0-.55.21-1.31.51-2.09.16-1.15.51-2.49.24-3.75.29-1.13.04-1.15.02-.99.9.02.12.13.21-.1.33-.26.14-.52.28-.74.44-.49.35-.42.53.25.78.99.37,1.03.57.19,1.01-.17.09-.37.18-.58.2-.2.02-.43-.05-.65-.08.05-.11.08-.22.16-.32.04-.06.21-.15.2-.16-.32-.19-.65-.38-.98-.56-.13.17-.22.36-.4.51-.35.31-.9.27-1.32-.09-.18-.16-.32-.38-.57-.45-.29-.08-.71-.07-1.04-.01C.41,15.24-.05,15.68,0,16.17c.05.44.54.48,1.16.56,1.41.2,2.77.72,4.2.05.72.44,1.43.29,2.15,0,0,0,.2.09.21.15.21.77.83.58,1.72.33.33-.09.99.19,1.5.32.1.02.17.09.25.14-.08.04-.15.11-.25.13-.74.13-1.48.25-2.22.37-.76-.48-1.8-.33-2.66-.26-1.06.09-1.74-.32-2.62-.41-.13-.01-.3.13-.45.19.55.3.3.54-.08.83-.17.13-.08.4.29.51.1.03.22.04.33.04.23.01.48-.01.7.02.21.03.39.12.59.18-.16.07-.31.2-.49.22-.58.05-.84.24-.72.54.08.2.44.27.82.27.35,0,.71.02,1.06.01.35,0,.67.03.65.26,0,.06-.37.11-.58.16-.33.07-.63.15-.26.38.5.31,1.02.6,1.77.22.23-.12.4-.17.57-.06.55.36,1.29.25,1.98.27.49.01.93.07,1,.42.05.27.15.64-.33.72-1.18.21-1.29.82-1.74,1.31.28.09.57.16.83.26.23.09.44.07.48-.11.1-.44.35-.61,1.02-.25.44-.19.88-.38,1.33-.57.08-.03.19-.05.28-.07.07.12.26.27.2.36-.24.37-.52.73-.86,1.07-.39.39-.83.55-1.62.19-.39-.18-1.24-.2-1.56.14-.38.4.38.46.77.67.78.43,1.3,1.03,1.92,1.56.45.01.91.02,1.36.03-.14.16-.32.32-.4.49-.23.47.55.26.84.37.47.18,1.02.3,1.5.48.14.05.2.24.16.35-.03.11-.21.22-.36.31-.06.04-.22.01-.34.02-.46.02-1.05-.02-1.24.25-.26.37.27.61.71.83.43.21.77.47,1.39.58.93.16,1.42.66,2.01,1.07-.25.72.63,1.12,1.39,1.52.68.36.92.77.76,1.26-.26.78.78,1.35.92,2.08.09.46,1.02.67,1.93.58.4-.56,1.12-1.08,2.03-1.17,1.75-.17,3.24-.81,5.03-.83.03.19,0,.41.16.55.16.13.58.2.89.21.7.04,1.41.03,2.11.05.23,0,.46,0,.69.03.1.01.18.08.28.12-.13.08-.27.24-.38.23-1.44-.12-2.65.39-4.02.48-.53.03-.42.97-1.54.43-1.05.43-2.23.66-3.48.82-.5.06-.98.37-1.05.74-.03.13.04.28-.03.4-.32.63-1.07.92-2.02.61-1.06-.35-2.41.06-3.3-.53-.11.11-.29.21-.33.33-.08.23-.29.37-.67.39-.47.02-.94.03-1.41,0-1.28-.06-2.38-.02-2.27.99,0,.08-.55.18-.85.27-.29.09-.35.18-.17.27.09.04.19.1.29.1.45,0,.93.09,1.34-.12.44-.22.89-.44,1.35-.65.28-.12.86.12.94.39.04.12,0,.26,0,.38-.49.14-.98.28-1.46.43-.71.22-.75.23-.28.77.22.25.55.61.09.69-.91.16-.95.78-1.59.92-1.33.29-2.05.82-2.56,1.51-.11.15-.29.1-.49-.05-.54-.41-.74-.42-1.18-.09-.33.25-.32.64.1.67,1.27.1,1.07.59.95,1.05-.06.22-.7.34-.26.67.58.44.34.72-.61.84-.32.04-.38.21-.15.25.7.15,1.34.34,1.1.84-.37.77.7.85,1.44,1.14.45.17.6-.04.88-.1.21-.05.54-.14.63-.09.72.39,1.81.24,2.51.57.26.12.17.49.27.75.02.06.14.1.22.16.14-.07.35-.13.4-.21.08-.12.01-.27.05-.4.1-.35.52-.57.87-.44,1.18.41,2.64.4,3.77.86.14.06.18.2.25.32-.19.04-.42.07-.53.15-.71.5-1.57.78-2.73.7-.52-.04-.89.13-1.21.33-.13.08-.2.21-.26.32,0,.02.18.1.28.1.58.02,1.17.02,1.75.02,1.17.01,2.34.01,3.51.04.2,0,.55.12.55.19,0,.18-.05.41-.24.54-.29.19-.68.38-1.09.46-.6.12-.94.38-1.32.63-.15.1.01.49.23.53.21.04.44.06.66.09.33.04.76.03.97.15,1.16.66,1.83-.28,2.78-.25-.04-.11-.04-.23-.14-.31-.21-.16-.46-.3-.72-.44-.25-.14-.25-.25.06-.3.21-.03.5-.06.66,0,.57.22,1.05.61,1.66.69.89.12,1.24-.53,1.95-.73.08-.02.19-.02.3-.02.16.62-.35,1.05-1.34,1.2-.75.12-.52.23-.32.52.34.48.78.75,1.76.74.56,0,.63.32.65.6,0,.13.02.28.13.38.11.09.36.17.56.17.2,0,.47-.06.58-.14.63-.46.68-.5,1.2-.19.79.48,1.59.55,2.49.15.58-.26,1.05-.16,1.56.08.51.23,1.13.19,1.66.04.41-.12.66-.21,1.19-.05,1.22.36,2.74.01,4.01.51.49.19,1.01-.26,1.41-.49.5-.28.98-.35,1.5-.06.22.12.36.1.6.05,1.33-.31,2.65-.47,3.95.08.28.12.69.11.95-.06.5-.33,1.71-.22,1.69-.88.72-.35,1.64-.32,2.32-.12.91.26,1.97.41,2.64.94.36.29,1.07.22,1.64.13.22-.03.39-.15.6-.22,1.69-.49,3.34-.86,5.24-.19.59.21,1.62.23,2.33-.13.75-.38,1.29-.13,1.78.18.43.27.75.39,1.42.14.43-.16,1.12-.09,1.7-.13.21-.02.43-.07.62-.14.35-.12.01-.61.65-.52.4.06.69.35,1.07.52.17.07.49.16.62.12.72-.24,1.39-.2,2.12-.02.14.03.48-.07.58-.16.25-.23.16-.81,1.01-.29.6.37,1.27.54,2.17.52,2.48-.04,4.96-.06,7.44-.04.9,0,1.57-.12,2.16-.52.52-.35,1.32-.4,1.91-.18.64.24,1.26.31,1.98.31,2.6-.01,5.19-.01,7.79-.03.34,0,.76-.01,1-.12.67-.31,1.21-.26,1.89,0,.34.13.97.18,1.33.09.75-.2,1.4-.55,2.18-.07,2.49-.53,5.07-.21,7.61-.27.94-.02,2.01.15,2.8-.05,1.37-.35,2.58-.6,3.92-.04.03.01.19-.06.28-.1.52-.25,1.04-.26,1.57,0,.41.2.8.18,1.27.03.39-.13.86-.21,1.3-.23.7-.04,1.41-.02,2.12-.02.83,0,1.65,0,2.48,0,.71,0,1.63.15,2.08-.04.86-.38,1.47-.03,2.18.03.64.05,1.1-.14,1.61-.32.6-.21,1.14.35,1.51.21,1-.39,2.04-.23,3.07-.26.82-.02,1.76.1,2.43-.09.82-.23,1.36-.33,2.19,0,.82.31,1.81.55,2.64-.14.19-.16.96-.25,1.28-.15.76.22,1.46,0,2.13.04.76.05,1.41.08,2.17-.04.77-.12,1.66.07,2.31-.34.63.11,1.14.36,1.91.29.88-.08.49-.79,1.38-.78.6,0,1.15-.07,1.64-.29.19-.08.41-.02.45.15.02.12-.03.28-.16.37-.13.09-.41.1-.6.16-.16.06-.27.15-.41.23.2.06.4.13.62.17.79.14,1.28-.32,1.93-.34.52-.02,1.06.25,1.6.28.75.04.44-.58,1.02-.65.27-.03.52.3.89.14.51-.21.99-.38,1.55-.07.37.2.81.22,1.29.24,1.37.04,2.84-.27,4.08.34.13.06.48.04.66-.01.73-.21,1.44-.44,2.15-.66.65.38,1.48.36,2.31.35.35,0,.84.07,1.04-.03.85-.44,1.61-.44,2.49-.03.14.07.65-.08.93-.17.43-.14.82-.26,1.26-.03.67.36,1.24.25,1.82-.09.39-.23.83-.59,1.46-.39.57.19.91.3,1.42-.05.45-.31,1-.58,1.58-.8.25-.09.69-.05,1.04-.02.34.03.56.16.62.36.35.01.83-.04.99.07.72.46,1.16.18,1.65-.13.15-.1.37-.17.55-.25.11.17.22.34.32.51.11.19.19.37.29.56.19-.07.42-.11.55-.2.67-.5,1.34-.72,2.35-.22.29.14.89.08,1.36.11.69.04,1.1-.11,1.21-.54.05-.17.31-.22.44-.12.13.1.13.27.28.36,1.73.97,3.87.71,5.94.61.2,0,.39-.14.57-.24.43-.23.85-.47,1.28-.7.31-.17.52-.11.64.18.35.81.63.98,1.73.76.56-.11.93-.23,1.51,0,.4.15.91.03,1.03-.33.11-.35.64-.47,1.03-.33.57.21.95.26,1.5,0,.15-.07.67.02.92.12.94.38,1.7.28,2.53-.15.84-.43.9-.4,1.9.16.38.22.83.21,1.3.19.75-.03.66-.23.3-.49-.17-.12-.1-.23.21-.29.1-.02.25-.02.35,0,.19.06.42.11.54.21.72.54.74.57,1.43.36.43-.13.75-.21,1.27-.1,2.34.47,4.1.5,6.02-.15,1.2-.41,1.89-.32,2.67.23.1.07.48.12.56.08.68-.35,1.28-.23,1.88.05.93-.37,1.99-.28,3.03-.29,3.78,0,7.57-.06,11.35,0,1.24.02,2.32-.14,3.32-.46.77-.25,1.15-.36,1.33.25.05.16.31.13.5-.04.66-.58.75-.64,1.38-.4.67.27,1.35.18,2.03.22.91.05,1.88-.09,2.69.32.16.08.63-.03.95-.07.1-.01.19-.08.27-.13.48-.29.94-.63,1.65-.17,1.31-.23,2.76-.33,3.21-1.28.1-.22.62-.36.81-.25.79.47,1.43-.03,2.13-.04,1.61,0,2.91-.36,4.08-.98.51-.26,1.32-.37,1.72-.66.65-.48,1.18-.06,1.76-.06.95,0,2.09-.8,2.21-1.37.06-.3-.23-.58-.67-.6-.58-.04-1.17-.03-1.75-.07-.35-.03-.38-.14-.14-.28,1.07-.65-.23-1.65,1.02-2.27-.29-.2-.57-.39-.86-.59-.43-.3-.46-.34.31-.48.81-.14.31-.3.22-.54-.11-.29.67-.66,1.02-.51.76.31,1.57.24,2.38.22.15,0,.31-.13.43-.21.02-.01-.11-.11-.19-.16-.4-.27-.87-.39-1.51-.44-.89-.07-1.36-.66-.83-1,.85-.55,1.54-1.19,2.85-1.48.67-.15.67-.58.1-.75-.52-.15-1.03-.33-1.58-.4-.67-.08-.74-.22-.35-.51.07-.05.19-.12.19-.17-.12-.98.37-1.81,1.44-2.59.53-.39,1.07-.91.79-1.5-.14-.29-.55-.67-.37-.86.25-.25.93-.39,1.47-.49,1.43-.27,2.61-.87,4.18-.96.39-.02.34-.32.28-.51-.02-.06-.13-.11-.2-.17-.22-.17-.36-.35.12-.42.9-.13,1.88.12,2.76-.16.38-.12.1-.58.7-.55.44.02.84.25,1.28.27.69.04,1.43.08,1.96-.29.15-.1.29-.21.44-.32-.17-.07-.33-.19-.51-.19Zm-9.02-11.77c.09.02.2.03.28.05.28.08.56.17.84.26,0,0,0-.01,0-.02l.06.04s-.05-.01-.07-.02c-.01.22-.19.36-.58.38-.41.03-.67-.1-.71-.33-.02-.12.11-.24.17-.37ZM8.14,16.23s-.16-.08-.2-.13c-.02-.03.07-.08.11-.12.08,0,.17-.01.22.01.19.08.14.17-.14.24Zm-1.42,3.68c-.11-.16-.23-.32-.31-.49-.01-.03.13-.1.23-.12.06-.02.12-.02.18-.01.08.01.14.06.18.11.05.06.08.14.06.23-.11.09-.22.19-.34.28Zm2.59.03c-.32.03-.66.03-.98,0-.12-.01-.22-.14-.3-.23-.01-.02.13-.11.23-.12.21-.03.43-.03.5-.03.26,0,.38-.02.48,0,.19.05.36.12.54.18-.15.07-.29.18-.46.2Zm4.18-6.08c1-.15,1.6.41,2.49.47.08,0,.14.08.21.13.06.06.09.08.11.09,0,0,.01,0,0,0-.03-.01-.15-.05-.31.07-.21.15-.6.4-.73.37-.7-.18-1.36-.43-2.01-.67-.17-.06-.25-.21-.37-.31.2-.05.4-.12.61-.15Zm1.92,1.88c-.13.1-.29.08-.41-.07-.01-.01.13-.09.22-.11.05-.01.13.03.2.05,0,.04.03.1,0,.12Zm-1.66,11.56c-.31.01-.62,0-.94,0,0,.01-.01.02-.01.04l-.06-.04s.05,0,.07,0c.04-.29.33-.42.83-.36.14.02.24.14.34.23.01,0-.15.11-.23.12Zm1.63-4.21c-.24.18-.54.13-.84.06-.09-.02-.16-.08-.24-.12.08-.04.15-.09.25-.11.29-.06.6-.15.83.08,0,.02.03.08,0,.1Zm1.57-5.94c-.07.11-.2.25-.37.3-.18.06-.45.04-.72.06-.98.2-1.67-.31-2.54-.41-.4-.05-.5-.22-.2-.4.23-.13.72-.33.76-.31.77.45,1.76.23,2.63.33.33.04.58.21.44.44Zm.54-.97c-.1-.04-.2-.09-.3-.13l.21-.12c.06.04.13.09.19.13l-.1.12Zm-.12-1.18s-.16-.08-.19-.13c-.02-.03.06-.08.1-.12.07,0,.17-.01.22,0,.18.08.14.17-.13.24Zm.83,14.67c-.1-.04-.2-.09-.3-.13.07-.04.14-.08.22-.12.06.04.13.09.19.13-.04.04-.07.08-.11.12Zm1.72-20.34s-.02.02-.02.03c-.03,0-.04-.01-.07-.02,0,.22-.21.38-.55.4-.57.03-1.14-.02-1.62.24-.44.24-.51-.03-.63-.19-.14-.18-.25-.37-.44-.53-.2-.15-.2-.24.14-.28.66-.08,1.33-.06,1.96-.31.4-.15.41.16.49.33.09.19.33.3.67.34,0,0,0-.01,0-.02.03,0,.06,0,.08,0,.28-.59.93-.88,2.02-.8.21.02.4.11.6.17-.05.05-.08.13-.15.13-.85.12-1.49.61-2.47.49Zm.9,2.98c.08,0,.17-.02.22,0,.18.08.14.17-.12.24-.03,0-.16-.08-.19-.13-.02-.03.06-.08.09-.12Zm.9,21.86c-.15.07-.36.09-.62.08-.03-.02-.06-.04-.1-.06-.11-.07-.23-.14-.21-.16.19-.15.42-.29.65-.42.07-.04.18-.06.27-.09.08.11.24.22.24.33,0,.15-.09.26-.23.32Zm.62-22.43s-.16-.08-.2-.13c-.02-.03.07-.08.1-.12.08,0,.17-.01.22,0,.18.08.14.17-.13.24Zm4.72-5.85c.01-.06.2-.15.2-.15,1.07.46,2.05-.35,3.1-.08.09.02.24-.02.34,0,.1.02.27.07.27.11,0,.11-.03.24-.14.31-.23.14-.5.33-.8.36-.56.06-1.14.02-2.36.02.19,0-.31.06-.6-.2-.1-.09-.04-.25,0-.37Zm-2.58,4.34c.98-.16,1.79-.65,2.95-.49.33.05.7,0,1.06,0h0c.35,0,.71,0,1.06,0,1.28.01,1.67.14,1.64.46-.06.5-.91.32-1.28.55-.33.21-.81.24-1.3.22-.59-.01-1.18-.02-1.76.01-1.04.05-2.09.03-2.42-.08-.35-.12-.34-.61.06-.68Zm3.7,2.65c-.13.1-.29.07-.41-.07-.01-.01.13-.08.22-.1.05,0,.14.03.2.05,0,.04.03.09,0,.12Zm-.63,1.18c-.09.04-.18.11-.26.11-.08,0-.16-.08-.23-.13.09-.04.18-.12.26-.12.08,0,.15.09.23.14Zm-4.39-3.6c-.11-.04-.21-.09-.32-.13.07-.04.15-.08.22-.12.07.04.14.09.21.13-.04.04-.07.08-.11.12Zm1.76,22.98c-.32.03-.67.04-.99,0-.12-.01-.22-.15-.3-.24-.01-.02.14-.11.23-.12.21-.03.43-.03.64-.04.12,0,.25,0,.34.02.2.05.38.12.56.18-.16.07-.31.18-.49.2Zm-.05-20.67c.36-.05.65-.11.95-.12.05,0,.14.16.2.24-.19.04-.39.12-.57.11-.18-.01-.34-.12-.59-.22Zm.81,16.79c.08-.04.16-.11.26-.13.21-.03.43-.06.65-.06.68,0,1.05-.16,1.11-.56,0-.05.3-.09.47-.11.05,0,.18.09.2.14.2.69-.15.9-1.72.91-.09,0-.42-.03-.74-.08-.09-.01-.15-.08-.22-.13Zm4.23,5.65c-.25.1-.53.17-.8.25,0,.02,0,.04.01.06l-.07-.04s.04-.01.06-.02c-.06-.29.1-.62-.59-.77-.63-.13-1.27-.27-1.86-.46-.45-.14-.4-.44-.42-.71-.02-.25.24-.4.56-.42.68-.05,1.38-.04,2.07-.04,1.03,0,.68.27.33.57-.19.16-.18.37.1.54.24.14.46.3.72.43.5.25.3.44-.12.61Zm1.37-21.4c-.17.01-.36-.06-.53-.11-.03,0-.03-.11,0-.12.18-.04.37-.08.56-.11.17.06.34.12.51.18-.18.06-.34.16-.53.17Zm-13.32,27.92s.08,0,.12,0c.04,0,.07,0,.1,0,.18.08.14.17-.12.24-.03,0-.15-.07-.18-.13-.02-.03.06-.08.09-.12Zm-2.33.29s.02.03.03.05c.18.03.38.05.46.12.13.11-.05.22-.25.15-.12-.05-.16-.16-.22-.27-.03,0-.06,0-.09-.01l.06-.04Zm-.99,4.13c.3.04.59.12.89.19-.19.06-.38.13-.56.19-.2-.04-.4-.09-.59-.13.09-.09.21-.25.27-.25Zm3.92,3.43s.16-.08.23-.11c.08.05.25.11.24.13-.16.19-.34.18-.46-.02Zm.32-1.88c-.21.15-.36.34-.46.53-.24.44-.86.33-1.39.34,0,.02.03.02.03.04h-.06c.07.44.03.82-1.03.88-.36.02-.7.18-1.05.29,0,.02,0,.03,0,.05-.03,0-.05,0-.07,0-.12.36-.43.61-.95.72-.18.04-.38.06-.61.07-.09,0-.21-.05-.28-.09-.05-.03-.1-.11-.07-.14.42-.43,1.05-.62,1.9-.56,0-.01.01-.02.02-.03l.05.03s-.05-.03-.05-.03c.02,0,.03-.01.05-.02-.02-.36-.12-.74.84-.81.33-.02.51-.17.57-.36h-.05s0-.03,0-.05c-.13-.02-.3-.04-.4-.07-.04-.01-.06-.02-.07-.04-.1-.22.2-.24.47-.26,0-.01,0-.02,0-.03.02,0,.02,0,.04,0-.09-.11-.18-.22-.28-.33-.1-.11-.2-.22-.3-.33.2-.05.47-.17.59-.13.71.23,1.38.25,2.09.01.08-.03.22,0,.33.02.34.06.33.14.12.29Zm2.78-3.52c.52-.12,1.04-.15,1.54.07-.11.09-.21.23-.31.23-.42,0-.84-.03-1.26-.06-.09,0-.16-.08-.24-.13.09-.04.17-.09.26-.11Zm.84,2.1v.12c-.14-.02-.29-.04-.43-.07.08-.03.14-.08.23-.1.06,0,.14.03.2.05Zm-.06,7.09c-.48.19-1.07.18-1.58.01-.13-.04-.17-.18-.24-.28-.03,0-.06,0-.09,0l.07-.04s.01.03.02.04c.53-.02,1.01-.06,1.48-.26.56-.24,1.27-.16,1.15-.03-.19.21-.47.42-.81.56ZM34.47,4.11c.07.04.14.09.21.13-.08.04-.15.08-.23.12-.07-.02-.14-.04-.21-.06.08-.06.15-.12.23-.18Zm-1.49,3.26c.3-.09.6-.1.87.08-.09.07-.2.22-.27.21-.29-.03-.57-.11-.85-.17.08-.04.15-.1.24-.12Zm-.17,1.41c-.12-.11.08-.22.27-.15.12.04.16.17.21.27.03,0,.05,0,.08.01,0,.01.02.02.03.04.26.01.52.03.45.26,0,.01-.21.03-.23.02-.09-.09-.15-.18-.22-.27-.03,0-.06,0-.08,0,0-.01-.02-.03-.02-.05-.18-.03-.4-.05-.48-.13Zm-.46,28.4c.21-.03.43-.03.64-.04.21.02.43.03.64.06.05,0,.09.03.13.05s.08.05.12.07c-.07.04-.14.08-.2.12-.07.04-.14.07-.22.08-.32.03-.67.03-.99,0-.14-.01-.25-.14-.38-.22.08-.04.16-.11.25-.12Zm-4.47,13.19c.07-.07.27-.09.45-.12,0-.02.01-.03.02-.05.02,0,.04,0,.07,0,.03-.22.2-.35.49-.37.1,0,.22,0,.35,0,.14.02.24.14.34.23.01,0-.15.11-.23.12-.31.02-.63.01-.94.02,0,.01,0,.02-.01.03l-.06-.03.06.03s-.05.01-.08.02c-.05.1-.09.22-.21.27-.17.08-.36-.03-.24-.15Zm.06.67s.18.16.27.25c-.24.21-.56.15-.87.09-.09-.02-.15-.09-.23-.13.27-.07.54-.16.83-.21Zm-.26,4.87s.02.02.02.03l-.05-.03s.02,0,.03,0c-.12-.3-.48-.43-.97-.36-.42.06-.8.23-1.21.34-.08.02-.22-.01-.32-.04-.08-.03-.2-.11-.19-.12.71-.51,1.42-1.02,2.44-1.34.46.4.95.01,1.42.03.09,0,.22.22.23.34.07.6-.32,1.02-1.41,1.15Zm1.92,1.93c-.13.1-.29.08-.41-.08-.01-.02.13-.09.22-.11.05-.01.14.04.21.06,0,.04.02.1-.02.13Zm.47-4.06c-.12-.04-.16-.16-.22-.26-.03,0-.06,0-.09-.01,0,0-.02,0-.02-.01-.48.12-.96.26-1.46.35-.13.02-.44-.11-.5-.2-.07-.1-.03-.3.1-.37.56-.32,1.29-.22,1.86.22.03,0,.06-.01.08-.02.01.02.02.03.03.05.18.03.38.05.46.12.13.11-.05.22-.24.15Zm.9,3.67c-.14-.05-.42-.12-.41-.15.07-.17.2-.32.32-.48.11.1.21.21.32.31-.07.11-.15.22-.22.33Zm3.6-1.36c-.8.41-.2,1.13-.99,1.57-.28.16-.71.28-.79.14-.07-.12-.17-.33-.1-.36.9-.35.4-1.01.98-1.41.11-.08.49-.12.62-.07.4.14.34-.16.28.13Zm.34-7.67c-.29-.09-.57-.26-.85-.03-.47.38-.87.78-1.35,1.15-.3.23-.73.3-1.23.16-.41-.12-.84-.21-1.24-.33-.7-.21-1.3-.73-1.1-.94.37-.37,1-.29,1.55-.25.92.06,1.11-.29,1.42-.67.29-.36.66-.37,1.63-.22.33.05.7.03,1.03.08.65.09.77.24.73.78-.12.13-.03.44-.59.26Zm.91,8.67s-.15-.07-.18-.12c-.02-.03.06-.07.09-.1.07,0,.17-.02.21,0,.17.08.13.16-.12.22Zm2.08-1.11c-.22.13-.43.33-.83.22-.29-.08-.56-.17-.84-.26,0,0,0,0,0,.01-.03,0-.06.01-.09.02-.05.1-.09.22-.21.27-.19.07-.37-.03-.24-.14.05-.04.14-.06.24-.08.07-.01.15-.03.22-.04,0-.02.02-.04.03-.05.02,0,.05.01.07.02.04-.24.22-.34.46-.39.24-.05.55-.03.83-.03.21,0,.42.09.63.13-.08.11-.11.24-.24.32Zm.75-42.22c-.08,0-.16-.08-.23-.13.09-.04.18-.12.26-.12.08,0,.15.09.23.14-.09.04-.18.11-.26.11Zm-.17-3.77s.05-.07.08-.11h.22c-.04.08-.08.15-.12.23-.06-.04-.15-.08-.18-.13Zm-1.26-3.97c-.18-.09-.38-.17-.53-.27-.15-.1-.26-.21-.36-.33,0,0,.18-.1.28-.1.79-.02,1.58-.03,2.36-.04,0-.01.02-.02.02-.04.03,0,.06-.01.1-.02.05-.1.09-.21.2-.26.18-.08.37.02.25.13-.08.07-.27.09-.45.13,0,.02-.02.04-.03.06-.03,0-.06,0-.09,0-.2.54-1.32.37-1.75.73Zm2.27,1.99s-.09.05-.11.04c-.34-.09-.33-.19.03-.25.02,0,.06.02.1.05.04.03.08.06.12.09-.04.02-.09.05-.14.08Zm.44-1.57c-.14-.01-.27-.04-.4-.07-.13-.03-.26-.06-.39-.09h0s.08-.04.12-.07c.04-.02.08-.04.13-.05.29-.06.6-.13.83.09-.09.06-.21.2-.28.19Zm1.61,47.54s.15.09.23.13c-.09.04-.21.13-.25.12-.35-.09-.34-.19.02-.26Zm.84,1.81c-.08.06-.27.09-.43.12-.01.02-.02.04-.03.06-.04,0-.07,0-.11,0-.06.09-.12.17-.19.26-.01.02-.22,0-.22-.01-.05-.21.18-.23.42-.24.01-.02.02-.03.04-.05.03,0,.07-.01.11-.02.05-.1.08-.2.2-.25.18-.07.36.03.24.13ZM47.87,3.56s-.16-.07-.2-.13c-.02-.03.06-.08.1-.11.08,0,.18-.02.23,0,.19.08.14.17-.13.24Zm.88,55.09c-.13.1-.29.07-.4-.07-.01-.02.13-.09.22-.1.05-.01.13.03.2.05,0,.04.02.09-.01.12Zm0-53.53c-.13.1-.29.07-.41-.08-.01-.01.13-.09.22-.1.05,0,.14.04.21.06,0,.04.02.09-.02.12Zm1.25,9.06s-.16-.07-.2-.12c-.02-.02.07-.07.1-.11.08,0,.17-.01.23.01.18.07.14.16-.14.22Zm.63-9.21c.07,0,.14,0,.21,0-.04.08-.08.16-.12.24-.06-.04-.15-.08-.18-.13-.02-.03.06-.08.09-.11Zm4.45,50.85c-.11-.04-.21-.08-.32-.12.07-.04.15-.1.22-.1s.14.07.2.11c-.04.04-.07.07-.11.11Zm-.5-44.04c-.22.02-.44,0-.67,0,.01.01.02.03.04.04-.02,0-.05,0-.07,0,0,.13,0,.26,0,.39.02,0,.04-.01.06-.02,0,.01.01.02.01.03.2,0,.41-.02.6,0,.2.02.43.07.56.15.15.09-.34.28-.67.23-.34-.05-.48-.19-.49-.38-.02,0-.05,0-.07,0,0,0,0-.01,0-.02-.18.05-.38.1-.51.18-.29.18-.02.76-1.03.39-.46-.16-1.09-.16-1.63-.25-.27-.04-.22-.15-.01-.29.39-.27.76-.51,1.34-.14.58-.17,1.14-.36,1.83-.28,0-.01,0-.02,0-.04.01,0,.02,0,.03,0-.15-.16-.29-.33-.48-.47-.26-.19-.19-.38-.04-.56.19-.23.73-.21,1.19.02.17.09.33.19.48.29.45.3.24.62-.48.7Zm1.2-5.8c-.1-.04-.2-.09-.3-.13.07-.04.14-.08.22-.11.06.04.13.08.19.13-.04.04-.07.08-.11.12Zm3.37-2.79c-.1.02-.23,0-.34,0-.38-.04-.59-.16-.64-.39-.05-.22-.28-.33-.69-.34-.44,0-.61.13-.68.34-.04.13,0,.27-.05.4-.13.39-.13.39-.83.17-.19-.06-.38-.1-.58-.15,0,0,.02.02.02.02-.03,0-.06.01-.09.02-.05.1-.09.21-.2.25-.19.07-.36-.03-.23-.13.08-.06.27-.08.43-.11,0-.02.02-.04.03-.05.01,0,.03,0,.04,0-.44-.55-1.16-.94-2.09-1.21,0,0,0,0-.01.01-.02,0-.04-.01-.07-.02-.03.3-.3.44-.83.37-.34-.05-.58-.16-.52-.4.02-.06.03-.12.07-.18.11-.17.25-.16.5-.05.23.11.51.17.78.25,0,0,0-.01,0-.02.03,0,.05.02.07.02.22-.27.44-.53.67-.8-.01,0-.02,0-.03,0l.07-.04-.04.05c.9.28,1.84.45,2.89.37,1.07-.08,1.71.25,2.08.8.16.23.36.46.52.69.01.02-.16.1-.26.12Zm2.21,1.2c-.08-.05-.22-.1-.21-.15,0-.05.15-.1.23-.15.07.05.15.11.21.15-.08.05-.16.1-.23.14Zm-.08-.85c-.07,0-.16-.09-.19-.15-.16-.31.34-.63.87-.56.09.01.17.08.25.12.05.19-.6.62-.93.59Zm5.38-1.1c-.09.11-.23.21-.35.31-.12-.1-.31-.2-.33-.31-.05-.19-.02-.38.05-.57.02-.06.26-.11.42-.14.04,0,.19.08.2.14.03.12,0,.25,0,.38h.01c0,.06.04.14,0,.19Zm5.4-.78c.07.04.15.09.22.13-.08.04-.16.08-.24.12-.07-.02-.15-.04-.22-.07.08-.06.16-.13.24-.19Zm.09,1.39c-.72.29-1.74.04-2.34.51-.13-.12-.22-.16-.24-.22-.03-.06-.04-.16.02-.19.67-.32,1.37-.61,2.25-.69.12-.01.37.14.42.24.05.11.01.3-.11.35Zm.7,54.39c-.13.1-.28.07-.39-.08-.01-.02.13-.09.21-.1.02,0,.06,0,.09.02s.07.03.11.04c0,.02,0,.04,0,.07,0,.02,0,.04-.02.06Zm5.63-54.73h0c-.1-.04-.2-.09-.29-.13.07-.04.14-.08.21-.12.06.04.13.09.19.13-.03.04-.07.08-.1.12Zm9.97-.05c-.23.09-.68.15-.88.08-.36-.13-.6-.37-.88-.56.29-.08.58-.16.78-.21.35.02.58.02.79.06.38.06.54.51.19.64Zm7.56,55.28c-.52.06-1.07.03-1.61.03,0,.01-.01.02-.02.03-.02,0-.05,0-.07,0-.06.1-.09.25-.19.26-.37.05-.41-.11-.44-.26-.02,0-.05,0-.07,0-.01-.02-.02-.04-.03-.06-.18-.03-.39-.06-.47-.13-.12-.11.08-.21.27-.14.12.05.15.16.2.27.03,0,.06,0,.09.02,0,.01,0,.03,0,.04.21,0,.42,0,.63,0,0-.01.01-.02.02-.03.02,0,.05,0,.07,0,.1-.42.63-.63,1.23-.76.32-.07.7.05.72.26.01.16-.17.45-.35.47Zm1.08-55.32c-.09.04-.18.09-.27.13-.07-.05-.21-.1-.2-.15,0-.05.15-.09.23-.13.08.05.16.1.24.15h0,0Zm1.96.11c-.14.07-.35.1-.6.08-.06-.04-.15-.09-.22-.13s-.12-.08-.11-.09c.19-.15.42-.29.64-.42.07-.04.18-.06.27-.09.09.11.24.22.24.33,0,.15-.08.26-.23.33Zm6.14,1.06c.23-.04.45-.11.65-.1.13,0,.25.13.37.2-.21.04-.42.12-.62.11-.14,0-.27-.13-.41-.21Zm1.04,1.34c-.13.1-.29.08-.4-.07-.01-.02.13-.09.22-.11.05-.01.13.03.19.05,0,.04.03.1,0,.12Zm.6-2.8c-.07-.02-.14-.04-.21-.06l.23-.18c.07.04.14.08.21.12-.08.04-.15.08-.23.11Zm1.46.38s-.22,0-.23-.02c-.07-.23.18-.24.43-.25.01-.02.02-.03.03-.04l.07.04s-.07,0-.1,0c-.06.09-.12.18-.2.27Zm4,.91c-1.05-.02-2.06.05-2.98.38-.12.04-.41-.07-.62-.11.12-.11.2-.23.36-.31.25-.13.54-.28.84-.32.45-.05.93-.01,1.4-.01h0c.35.01.7,0,1.05.02.1,0,.27.11.26.12-.08.09-.2.24-.31.24Zm.24-.93c-.12-.05-.37-.12-.36-.15.06-.16.2-.31.31-.47.08.04.18.08.22.13.12.17.2.35-.17.49Zm4.88,1.69s-.14-.07-.17-.12c-.02-.03.06-.07.09-.11.07,0,.16-.01.21,0,.17.07.12.16-.13.22Zm3.06-.12c-.14.15-.32.14-.54,0-.15-.1-.32-.2-.47-.3-.06-.04-.08-.11-.12-.16.11-.02.21-.05.32-.07.11-.02.21-.04.31-.04.39.02.62.16.59.41-.03.05-.05.12-.1.17Zm4.1,51.6c-.07-.02-.13-.04-.2-.05.07-.06.14-.11.22-.17.07.04.14.08.21.12-.07.04-.15.07-.22.11Zm14.83.02c-.47.1-.87,0-.99-.3-.04-.1.03-.25.15-.33.06-.04.37.01.51.07.18.07.28.2.44.29.25.14.22.22-.11.27Zm7.54-51.45s-.02.03-.03.04c-.03,0-.05,0-.08,0,0,.24-.22.36-.63.36,0,.01,0,.02,0,.04-.03,0-.05,0-.08,0-.06.3-.42.38-.88.36-.31-.01-.62-.07-.93-.12-.03,0-.05-.09-.02-.12.06-.05.16-.12.24-.12.53,0,1.06,0,1.59,0,0-.01.01-.02.01-.04.03,0,.04,0,.07,0,0-.25.23-.35.63-.36,0-.02,0-.03,0-.04.03,0,.07,0,.1,0,.06-.09.12-.18.2-.26.01-.01.22,0,.23.02.06.22-.18.23-.43.24Zm14.55,50.18c-.1-.04-.2-.09-.3-.13.07-.04.15-.11.22-.1.07,0,.13.08.2.12-.04.04-.08.08-.12.11Zm9.86,1.68c-.34-.09-.32-.2.03-.27.04,0,.14.09.22.14-.08.04-.21.14-.25.13Zm9.94-6.39c.08.04.24.11.23.13-.16.19-.34.18-.47-.02-.01-.02.16-.08.24-.12Zm.14,3.84c-.37.11-.57-.07-.74-.19-.17-.13-.28-.28-.41-.43-.04,0-.08,0-.12,0,0-.02.03-.03.03-.05-.53-.03-1.21.12-1.38-.36-.11-.32-.44-.44-.97-.44-.23,0-.48.02-.7-.01-.55-.1-1.18-.62-.91-.68.42-.08,1.05-.21,1.32-.1,1.06.44,2.42.4,3.48.81.14.06.23.16.34.25-.2.05-.4.11-.61.15-.33.06-.51.19-.57.37.01,0,.03,0,.04,0,.01.02.03.03.04.05.18,0,.36,0,.54,0,.55,0,.75.18.73.47,0,.06-.06.14-.13.16Zm5.19,1.1s-.01,0-.02,0c0,.27.03.53-.02.8-.02.08-.26.15-.42.2-.02,0-.22-.09-.22-.14,0-.66.03-1.31.06-1.97,0-.05.14-.1.21-.15.13.09.37.17.38.26.05.33.02.66.02,1Zm1.86.2h0c-.1-.04-.21-.09-.31-.13.07-.04.15-.11.22-.11.07,0,.13.08.2.12-.04.04-.07.08-.11.12Zm2.02-.38c-.35-.09-.34-.19.02-.26.05,0,.15.09.23.13-.09.04-.21.13-.25.12Zm9.7.27s.15-.08.22-.12c.09.04.26.11.24.13-.16.2-.34.19-.46-.01Zm3.23-.34c-.13.1-.29.08-.41-.07-.01-.01.13-.08.22-.1.05-.01.13.03.2.05,0,.04.03.1,0,.12Zm5.62-52.27c-.1-.04-.21-.08-.31-.13.07-.04.15-.11.22-.11.07,0,.13.08.2.12-.04.04-.07.08-.11.11Zm2.15,51.9h0c-.1-.04-.2-.08-.31-.12.07-.04.14-.08.21-.11.06.04.13.08.19.12-.03.04-.07.07-.1.11Zm4.23-51.68c.12.05.16.17.21.27.03,0,.05,0,.08.01l-.05.03s-.02-.03-.03-.05c-.18-.03-.38-.06-.46-.13-.12-.11.07-.22.24-.14Zm.21.74c-.06.1-.1.22-.22.26-.2.07-.38-.03-.25-.14.09-.07.29-.09.46-.12,0-.01.02-.03.02-.04l.05.03s-.05,0-.08.01Zm3.94,46.48c-.09-.05-.17-.09-.26-.13h0s0,0,0,0c.09-.04.18-.12.26-.12.09,0,.17.09.25.13-.09.04-.18.08-.26.12Zm3.29-46.53c-.19-.04-.38-.08-.58-.13.09-.08.21-.24.27-.23.29.04.57.12.85.18-.18.06-.36.12-.54.18Zm2.54,47.33c-.3.14-.62.1-.91,0-.36-.13-.29-.32-.17-.51.04-.06.14-.1.26-.18.31.19.62.37.92.56.02.02-.04.1-.09.13Zm1.26,2.1c-.06-.04-.15-.08-.18-.13-.02-.03.05-.07.08-.11h.22c-.04.08-.08.16-.12.24Zm.62-46.17c-.17.05-.55.02-.65-.05-.26-.21-.37-.49-.64-.69-.41-.31.14-.46.22-.68.12-.35.38-.64.88-.83.26-.1.66-.16.96-.14.41.03,1.07.58,1.03.76-.47.59-.67,1.29-1.81,1.63Zm3.66,48.17c-.09.03-.2.05-.31.06-.2,0-.4-.08-.6-.13,0,0,.04-.11.1-.15.22-.14.44-.29.71-.41.04-.02.19.04.33.1.05.02.09.04.13.05.03.1,0,.2-.08.28-.06.08-.15.15-.28.2Zm2.1.04s-.16-.08-.19-.13c-.02-.03.06-.08.1-.11.08,0,.18-.02.23,0,.18.08.14.17-.13.24Zm1.42-.41s-.15-.07-.18-.12c-.02-.03.06-.08.09-.11.07,0,.17-.02.21,0,.17.08.13.16-.12.23Zm.4-2.4c-.1.02-.23,0-.46,0-.12,0-.35,0-.57-.03-.1-.01-.26-.11-.25-.12.09-.1.2-.24.34-.26.34-.04.7-.03,1.04,0,.18.02.32.14.48.22-.19.06-.38.14-.59.19Zm3.02.77c-.46.08-.89-.12-.86-.39.03-.22.21-.33.61-.35.44-.03.57.13.7.3.07.22-.11.37-.45.44Zm.57-1.21c-.26.08-.51.03-.57-.13-.02-.05.24-.2.38-.21.2,0,.4.08.62.13-.15.07-.28.15-.43.2Zm3.08-47.31c.09.03.19.06.28.1.26.11.52.23.8.35-.25.14-.37.26-.5.26-.45,0-.89-.04-.84-.39.02-.11.17-.21.26-.32Zm4.88,44.97c-.51.49-1.66.13-2.13.49-.4.3-.55.75-1.2.91-.51.12-1.11.12-1.39.15-1.38-.02-.93-.31-.62-.58-.27-.08-.53-.17-.81-.24-.29-.08-.38-.17-.21-.28.24-.15.47-.37.75-.4.79-.08,1.6-.08,2.4-.12.79-.04,1.31-.57,2.23-.42.22.04.47,0,.69.03.22.03.42.09.63.14-.12.11-.25.21-.36.32Zm3.41-44.43s.14-.1.23-.12c.05-.01.14.04.21.06,0,.05.03.1,0,.13-.14.11-.31.09-.43-.07Zm1.37,1.65c-.31-.08-.63-.14-.93-.23-.14-.05-.22-.15-.33-.23.2-.05.4-.1.61-.13.11-.02.23,0,.3,0,.27.03.49.05.7.09.27.05.32.17.29.33-.03.2-.28.28-.65.18Zm1.07,43.85c-.08-.02-.15-.04-.23-.06.08-.06.16-.12.24-.18.08.04.16.08.24.12l-.24.12Zm5.88-44.07s0,0,0,0h0c-.17-.07-.34-.14-.51-.2.28-.06.55-.14.84-.17.05,0,.16.16.25.24-.19.04-.38.09-.58.13Zm7.38-.14s-.05-.03-.05-.04c.08-.25,1.05-.61,1.54-.61.09,0,.2.06.25.11.04.04.02.11-.02.15-.19.17-.35.29-.55.37-.19.08-.42.13-.73.16-.13-.05-.35-.1-.45-.15Zm4.22,48.36c-.99.11-2.05-.13-2.99.22-.1.03-.25.11-.29.09-.14-.06-.34-.14-.35-.23-.01-.11.08-.31.21-.34.82-.17,1.7-.22,2.49-.5.42-.15.79.19,1.12.36.08.04.21.13.18.16-.09.09-.22.21-.37.23Zm3.04-1.68c-.33-.1-.32-.2.03-.27.03,0,.13.09.19.13-.08.05-.19.14-.22.14Zm16.33-30.09c.29-.06.59-.14.84.08-.08.07-.19.21-.25.2-.29-.03-.56-.1-.83-.16.08-.04.15-.1.24-.12Zm-1.33-7.97c-.18.07-.36-.03-.23-.13.08-.07.27-.09.44-.12,0-.02.02-.04.03-.05l.06.03s-.06.01-.09.02c-.05.1-.09.21-.21.25Zm.65,16.77s-.29-.16-.31-.25c-.02-.12.08-.25.17-.37.13-.16.3-.31.45-.47,0,0-.02,0-.03,0-.01-.02-.02-.04-.03-.06-.17-.03-.36-.05-.43-.12-.13-.11.05-.21.24-.13.11.04.15.15.19.25.03,0,.07.01.1.02-.01.01-.03.03-.04.04.38,0,.65.11.68.33.05.4-.51.58-.99.76Zm2.19-.81h0c-.1-.04-.2-.08-.3-.13.07-.04.14-.07.22-.11.06.04.13.08.19.13-.04.04-.07.08-.11.11Zm.15-1.32c-.3.25-1.42.29-1.79.04-.23-.15-.27-.36-.03-.52.28-.17.61-.35.98-.44.26-.06.9.49.9.73-.02.06,0,.13-.06.18Zm1.96-1.14c-.19.07-.37-.04-.24-.14.09-.07.29-.09.47-.12,0-.01.02-.03.02-.04l.05.03s-.05,0-.08.01c-.06.1-.1.22-.23.27Zm1.92,3.32c-.45.08-.88-.12-.86-.38.02-.22.21-.32.6-.35.43-.03.57.12.7.29.07.22-.1.37-.44.43Z"/>
          <path class="cls-3" d="m8.51,24.06s.03.02.03.02h0,0s0,0,.01-.01c-.02,0-.05-.02-.07-.02l.03.02Z"/>
          <path class="cls-3" d="m12.8,10.18s0-.03,0-.04c-.02,0-.04,0-.05,0l.06.04Z"/>
          <path class="cls-3" d="m295.92,23.63s-.02,0-.03,0c0,.01-.02.02-.03.03l.06-.03Z"/>
          <path class="cls-3" d="m285.2,11.78s0,.03,0,.04c.02,0,.05,0,.07,0l-.08-.04Z"/>
          <path class="cls-3" d="m193.03,55.54s-.02-.02-.03-.04c-.01,0-.03,0-.04,0l.07.04Z"/>
          <path class="cls-3" d="m288.05,13.41s0,.02,0,.03c.02,0,.04,0,.05,0l-.06-.04Z"/>
          <path class="cls-3" d="m22.02,37.52s-.02,0-.03,0c0,.01-.02.03-.03.04l.07-.04Z"/>
          <path class="cls-3" d="m7.48,11.45c1.04,0,2.02-.54,3.1-.09.07.03.23.01.34,0,.32-.06.29-.14.15-.29-.75-.79-2.21-.87-3.45-1.16-.52-.12-1.9.51-1.93.81-.01.13,0,.27,0,.4,0,0,.02,0,.02,0,0,.27-.04.54.02.81.02.1.29.23.48.25.46.04.93.02,1.4.03.34,0,.66-.03.68-.26,0-.05-.38-.1-.57-.16-.18-.06-.34-.14-.5-.21.09-.04.18-.12.27-.12Z"/>
          <path class="cls-3" d="m285.27,11.78s-.05,0-.07,0l.08.04s0-.03,0-.04Z"/>
          <path class="cls-3" d="m287.98,11.47c.11-.22-.1-.41-.44-.45-.44-.06-.92-.06-1.37-.02-.3.02-.7.11-.84.24-.14.14-.07.35-.06.54.78,0,1.56,0,2.33-.02.14,0,.32-.17.37-.29Z"/>
          <path class="cls-3" d="m41.78.41c-.17.05-.48.09-.53.17-.37.62.1,1.12,1.29,1.38.15.03.4-.08.61-.13-.79-.37-.34-1.02-1-1.41-.06-.03-.23,0-.36,0Z"/>
          <path class="cls-3" d="m14.87,55.95s.05,0,.08,0c0-.01-.02-.02-.03-.03l-.05.03Z"/>
          <path class="cls-3" d="m17.26,55.99c-.76-.05-1.54-.03-2.31-.04.34.65,1.15.88,2.27.77.16-.02.43-.18.41-.25-.05-.17-.21-.47-.37-.48Z"/>
          <path class="cls-3" d="m14.85,55.92s.02.02.02.03l.05-.03s-.05,0-.07,0Z"/>
          <path class="cls-3" d="m13.42,54.9c-.07-.05-.27-.11-.28-.09-.13.08-.33.18-.34.28-.03.33-.01.66.05.98.04.18.27.22.48.11.44-.24.98-.25,1.52-.26-.13-.5-.96-.67-1.43-1.01Z"/>
          <path class="cls-3" d="m75.44.51c-.13.07-.19.23-.16.34.03.1.2.24.36.27.45.09,1.56-.34,1.56-.58-.07-.04-.13-.11-.21-.12-.53-.09-1.09-.18-1.55.08Z"/>
          <path class="cls-3" d="m101.68,1.43s.15.11.24.12c.21.03.44.03.41.03.6,0,.94.02,1.28,0,.2-.02.38-.12.57-.18-.16-.07-.32-.2-.49-.21-.57-.03-1.14-.03-1.71,0-.12,0-.23.15-.31.25Z"/>
          <path class="cls-3" d="m21.9,58.43c-.38.03-.58.14-.53.37-.02.23.21.33.57.35.46.03.84-.22.7-.47-.12-.2-.38-.28-.74-.25Z"/>
          <path class="cls-3" d="m13.82,11.37c.09-.08.16-.26.11-.28-.17-.06-.4-.1-.59-.08-.35.03-.57.16-.53.39.08.1.16.21.25.32.09-.03.2-.06.28-.1.17-.08.36-.15.48-.25Z"/>
          <path class="cls-3" d="m12.73,10.16s.05.01.07.02l-.06-.04s0,.01,0,.02Z"/>
          <path class="cls-3" d="m11.46,9.96c-.04.06-.05.12-.06.17-.05.22.17.35.51.4.53.07.77-.09.81-.37-.26-.08-.54-.14-.77-.25-.25-.12-.39-.12-.5.04Z"/>
          <path class="cls-3" d="m295.53,24.41c.08.03.2.03.3.04.39.03.63-.1.7-.3.11-.3-.13-.46-.64-.48-.08.1-.15.2-.22.3-.1.14-.63.24-.13.44Z"/>
          <path class="cls-3" d="m295.89,23.67s.02-.02.03-.04l-.06.03s.02,0,.04,0Z"/>
          <path class="cls-3" d="m288.11,13.43s-.04-.01-.06-.02l.06.04s0-.01,0-.02Z"/>
          <path class="cls-3" d="m289.2,13.78c.09-.11.21-.22.25-.33.09-.23-.17-.36-.51-.4-.53-.06-.8.08-.83.38.27.08.54.16.8.25.1.03.19.07.28.1Z"/>
          <path class="cls-3" d="m7.29,24.21c.09.08.2.21.33.23.5.06.8-.07.85-.36-.31,0-.63,0-.94.02-.09,0-.25.11-.24.12Z"/>
          <path class="cls-3" d="m8.51,24.06l-.03-.02s-.01.02-.01.04c.02,0,.05,0,.07,0h0s-.02,0-.03-.02Z"/>
          <path class="cls-3" d="m275.66,6.99c-.09.02-.16.08-.24.11.28.06.55.13.84.16.06,0,.16-.14.24-.21-.25-.23-.55-.13-.84-.07Z"/>
          <path class="cls-3" d="m22.55,37.93c.19.01.54-.03.59-.1.19-.28-.24-.24-.51-.26-.2-.01-.4,0-.6,0,.03.19.17.34.52.36Z"/>
          <path class="cls-3" d="m22.03,37.56s0-.03,0-.04l-.07.04s.05,0,.07,0Z"/>
          <path class="cls-3" d="m9.12,43.47c-.28-.06-.56-.14-.85-.18-.05,0-.17.15-.26.24.19.04.38.08.57.12.18-.06.36-.12.54-.18Z"/>
          <path class="cls-3" d="m192.95,55.54s.05,0,.08,0l-.07-.04s-.01.03-.01.04Z"/>
          <path class="cls-3" d="m191.78,55.67c.09.08.19.21.32.23.49.06.8-.06.85-.35-.31,0-.62,0-.93.01-.09,0-.25.1-.24.11Z"/>
          <path class="cls-3" d="m53.85,59.05s-.25-.1-.38-.15c-.36.15-.24.32-.12.49.04.05.13.1.2.14.11-.16.24-.32.3-.49Z"/>
          <path class="cls-3" d="m38.83,2.37c.49.05.81-.07.86-.36-.31,0-.63,0-.94,0-.09,0-.24.11-.23.12.08.09.18.22.31.24Z"/>
          <path class="cls-3" d="m39.7,1.97s-.01.02-.01.03c.02,0,.05,0,.07,0l-.06-.03Z"/>
          <path class="cls-3" d="m79.43.78s.06.01.09.02c0-.02-.02-.04-.03-.05l-.06.04Z"/>
          <path class="cls-3" d="m79.73,1.05c.2.07.38-.04.25-.14-.08-.07-.28-.09-.46-.12.06.1.09.21.21.26Z"/>
          <path class="cls-3" d="m39.99,1.69c-.12.05-.15.16-.2.26.17-.03.38-.06.45-.12.12-.11-.06-.22-.25-.14Z"/>
          <path class="cls-3" d="m39.78,1.96s-.06,0-.09.02l.06.03s.02-.03.03-.05Z"/>
          <path class="cls-3" d="m1.16,14.14s.07-.08.1-.11c-.07-.04-.13-.08-.2-.13l-.22.11c.1.04.21.08.31.13Z"/>
          <path class="cls-3" d="m298.34,23.59c.25-.07.29-.16.12-.24-.04-.02-.14,0-.21,0-.03.04-.11.09-.09.12.03.05.16.13.18.13Z"/>
          <path class="cls-3" d="m11.29,27.36s.06,0,.08-.02l-.06-.03s-.02.03-.03.05Z"/>
          <path class="cls-3" d="m11.08,27.62c.12-.05.15-.16.21-.26-.17.03-.37.06-.45.12-.13.11.06.21.24.14Z"/>
          <path class="cls-3" d="m5.2,43.78s-.11.09-.09.12c.03.05.16.13.18.13.25-.07.29-.16.12-.24-.04-.02-.14,0-.21,0Z"/>
          <path class="cls-3" d="m286.04,50.41c.14.02.28.05.42.07,0-.04.01-.08.02-.12-.07-.02-.15-.07-.21-.06-.09.01-.15.07-.23.1Z"/>
          <path class="cls-3" d="m24.48,58.46c-.07,0-.15.07-.23.11.11.04.21.09.32.13.04-.04.07-.08.11-.12-.07-.04-.13-.12-.21-.12Z"/>
          <path class="cls-3" d="m16.32,48.16s-.02,0-.04,0c0,.01,0,.02,0,.03,0,.12,0,.24,0,.36,0,.02,0,.03,0,.05h.05c.22,0,.45,0,.67,0h.06s-.02-.02-.03-.04c-.07-.23-.31-.36-.71-.4Z"/>
        </g>
      </g>
    </g>
  </g>
</svg>