<?xml version="1.0" encoding="UTF-8"?>
<svg xmlns="http://www.w3.org/2000/svg" viewBox="0 0 130.95 140.54">
  <defs>
    <style>
      .cls-1 {
        isolation: isolate;
      }

      .cls-1, .cls-2 {
        fill: none;
      }

      .cls-2 {
        mix-blend-mode: multiply;
      }

      .cls-3 {
        fill: #f87171;
        fill-rule: evenodd;
      }
    </style>
  </defs>
  <g class="cls-1">
    <g id="Layer_2" data-name="Layer 2">
      <g id="OBJECTS">
        <g class="cls-2">
          <path class="cls-3" d="m9.98,93.88c-.11.03-.26.11-.3.21-.06.18-.06.39-.1.8-.24.53.35,1.02.58,1.62.03.07.29.15.34.1.5-.43.98-.88,1.44-1.35.07-.07.07-.28.02-.37-.48-.68-1.02-1.26-1.97-1.02Z"/>
          <path class="cls-3" d="m7.95,95.76c-.13-.45-.49-.76-1.04-.69-.12.04-.26.05-.35.13-.03.03.01.23.08.29.41.37.67.78.55,1.37-.05.25-.02.52.02.78.01.09.17.21.28.21.5.04,1.06-.63.81-1.01-.24-.35-.24-.71-.35-1.07Z"/>
          <path class="cls-3" d="m14.55,99.83c-.1-.13-.21-.36-.43-.24-.16.09-.4.38-.38.41.34.46-.15.81-.11,1.22,0,.05.07.1.14.19.14-.08.29-.17.44-.25.73-.41.81-.72.34-1.33Z"/>
          <path class="cls-3" d="m5.85,89.59c-.07-.02-.24.1-.25.17-.04.19-.01.39-.01.59h.04c0,.26-.02.53,0,.79.02.17.14.23.24.17.36-.23.56-.54.53-.98-.02-.27-.28-.68-.55-.74Z"/>
          <path class="cls-3" d="m38.41,116.58s0-.11-.04-.15c-.42-.56-1.07-.66-1.62-.95-.12.18-.23.27-.25.38-.01.11.05.31.12.32.16.04.32.09.47.13.07.09.15.17.28.25.05-.06.03-.12,0-.17.24.08.47.17.69.3.07.04.23-.07.34-.12Z"/>
          <path class="cls-3" d="m8.93,98.69c-.22-.07-.51.14-.53.4-.05.48.08.74.38.76.21.02.71-.32.75-.51.05-.17-.3-.55-.6-.65Z"/>
          <path class="cls-3" d="m12.74,97.28s-.09-.08-.13-.12c-.04.05-.12.1-.12.15-.01.51-.02,1.01-.01,1.52,0,.05.06.14.1.15s.11-.05.16-.09c.51-.41.53-.51.21-1.1-.09-.16-.14-.35-.22-.52Z"/>
          <path class="cls-3" d="m10.37,92.5c0-.05-.08-.15-.12-.14-.3.03-.64.52-.6.87,0,.06.08.11.12.16.27-.04.64-.57.6-.89Z"/>
          <path class="cls-3" d="m10.48,100.9c-.05.17-.13.34.08.48.08-.05.25-.12.24-.15-.05-.16-.13-.31-.2-.46-.04.04-.11.08-.12.13Z"/>
          <path class="cls-3" d="m42.49,125.9c.11,0,.23-.09.34-.14-.11-.05-.22-.15-.33-.15-.03,0-.06.02-.1.03-.19-.11-.44-.22-.5-.11.1.06.14.13.09.21.14.06.27.1.37.11.05.02.09.05.14.05Z"/>
          <path class="cls-3" d="m19.79,34.62c-.07.04-.09.16-.12.26.1-.03.21-.04.26-.11.08-.1-.02-.22-.13-.15Z"/>
          <path class="cls-3" d="m19.67,34.88s-.04,0-.05.01c0,.01,0,.03,0,.04.01,0,.03,0,.04,0,0-.01.01-.03.02-.05Z"/>
          <path class="cls-3" d="m19.36,35.18c.01.05.15.07.25.11,0-.12,0-.23,0-.35-.14.02-.3.04-.25.25Z"/>
          <path class="cls-3" d="m19.61,35.28s0,.03,0,.05c0,0,.02,0,.02,0,0-.01,0-.02.01-.03-.01,0-.03,0-.04-.01Z"/>
          <path class="cls-3" d="m6.12,46.27s-.02.12,0,.13c.08.04.17.07.25.1-.02-.13-.03-.27-.25-.23Z"/>
          <path class="cls-3" d="m6.37,46.5s0,.05.01.07c.02,0,.04,0,.06,0,0-.02-.01-.03-.01-.05-.02,0-.03-.01-.05-.02Z"/>
          <path class="cls-3" d="m4.59,49.29s.09-.09.14-.13c-.07-.19-.17-.2-.26-.01-.01.02.08.1.12.14Z"/>
          <path class="cls-3" d="m3.33,51.08c-.05.01-.08.15-.11.25.11,0,.23,0,.34,0-.03-.14-.04-.3-.23-.25Z"/>
          <path class="cls-3" d="m2.82,51.73s-.04,0-.05,0h0s0,.05,0,.07c.02,0,.04-.02.06-.02,0-.02,0-.03,0-.04Z"/>
          <path class="cls-3" d="m3.17,51.38c-.21.03-.33.14-.35.35.12,0,.23,0,.35,0,0-.12,0-.24,0-.36Z"/>
          <path class="cls-3" d="m2.76,51.8c-.08.03-.16.06-.24.1-.02,0,0,.12,0,.12.2.03.22-.09.23-.22Z"/>
          <path class="cls-3" d="m26.26,113.83s.11-.07.11-.11c0-.04-.06-.08-.1-.12-.04.06-.08.12-.12.17.03.02.07.04.1.06Z"/>
          <path class="cls-3" d="m32.53,115.71c.06.15.15.18.22.08.02-.03,0-.08.01-.13-.04-.02-.09-.07-.11-.06-.05.02-.13.09-.12.11Z"/>
          <path class="cls-3" d="m39.76,124.94s.07.09.1.13c.05-.04.09-.08.14-.12-.04-.05-.08-.09-.12-.14-.04.04-.11.08-.12.12Z"/>
          <path class="cls-3" d="m47.22,125.75s-.08-.13-.1-.12c-.18.06-.19.16-.02.25.01,0,.08-.08.12-.12Z"/>
          <path class="cls-3" d="m111.92,23.72c.2-.33.09-.79-.37-1.33-.35.28.31.89.37,1.33Z"/>
          <path class="cls-3" d="m66.37,7.14c-.8-.07.97-.21.02-.38.02.28-.8.02-1.14.08-.17.31.94.58,1.12.3Z"/>
          <path class="cls-3" d="m40.03,9.44c-.58.19-.64.45-.46.73.58-.19.64-.45.46-.73Z"/>
          <path class="cls-3" d="m74.5,7.74c-.42.04-.71.18-1.18.16.01-.28-2.81-.92-3.36-.47,1.47.21,2.81.38,4.16.63.68.12,1.36.24,2.08.36.71.14,1.44.29,2.23.45-.31-.45-1.06-.59-1.85-.7-.79-.1-1.61-.12-2.09-.43Z"/>
          <path class="cls-3" d="m69.37,6.61c-.76-.07-.82.34-1.62.23.29.32-.62.42-.04.51.29-.42,1.32-.35,1.66-.74Z"/>
          <path class="cls-3" d="m3.28,50.75c.23-.93.52-1.51.73-2.02-.16-.04-.4.51-.57,1.05-.18.54-.22,1.08-.16.97Z"/>
          <path class="cls-3" d="m33.63,22.96c.35-.24.5-.05.89-.35-.05-.29-1.12.15-.89.35Z"/>
          <path class="cls-3" d="m77.61,1.84l.49.12c.07-.15-.15-.23-.1-.37-.31-.06-.56-.08-.69.01.48.09.56.15.3.24Z"/>
          <path class="cls-3" d="m81.77,11.52l.7.24c.19-.34-.65-.52-.7-.24Z"/>
          <path class="cls-3" d="m84.88,8.75c-.1-.12-.89-.51-1.04-.37.41.07.73.53,1.04.37Z"/>
          <path class="cls-3" d="m85.48,12.57c-.43-.17-.79-.25-1.03-.19.34.06,1.03.54,1.03.19Z"/>
          <path class="cls-3" d="m87.32,12.39c.18-.1-.13-.29-.42-.4-.3-.09-.56-.1-.27.1.21-.19.31.24.69.3Z"/>
          <path class="cls-3" d="m87.59,12.51c.59.32.73.21,1.09.51.21-.24-1.07-.73-1.09-.51Z"/>
          <path class="cls-3" d="m94.69,15.85c-.29-.25-.41-.25-.53-.61-.06.1-.27-.07-.34,0,.09.16.56.7.87.61Z"/>
          <path class="cls-3" d="m98.94,10c-.36-.15-1.06-.81-1.1-.46.42.23.96.65,1.1.46Z"/>
          <path class="cls-3" d="m98.67,20.18c.44.34.8.68,1.09,1.01.08-.24-.77-.98-1.09-1.01Z"/>
          <path class="cls-3" d="m104.93,20.24c.31.26.59.46.81.5-.12-.32-.61-.55-.81-.5Z"/>
          <path class="cls-3" d="m106.62,25.07c-.3-.31-.81-.65-.66-.84.23.14.59.67.73.55-.52-.92-1.74-1.16-2.64-1.81.45.7,1.97,1.81,2.57,2.1Z"/>
          <path class="cls-3" d="m117.62,29.61c.28.39.58.2.54,0l-.3-.4c-.2.07.04.35-.24.39Z"/>
          <path class="cls-3" d="m120.37,36.98c-.71-.66-.49-1.09-1.16-1.74-.04.3.79,1.99,1.16,1.74Z"/>
          <path class="cls-3" d="m123.7,43.6c.13-.07.25-.08.37.01-.45-.81-.57-1.56-1.07-2.18.06.27-.49-.09-.66-.58-.08.07-.23.08-.16.26.57.96,1.35,1.12,1.52,2.49Z"/>
          <path class="cls-3" d="m124.42,43.1l.3.76c.33.13-.15-1.1-.3-.76Z"/>
          <path class="cls-3" d="m124.21,45.15c.11-.08.31-.07.26-.28-.45.15,0-.9-.5-.84.1.4.13.53.25,1.12Z"/>
          <path class="cls-3" d="m119.17,105.96c-.29.17-.15.4-.55.83.11.34.72.02.66-.36-.13.15-.29.26-.43.32-.05-.15.44-.65.31-.78Z"/>
          <path class="cls-3" d="m94.07,128.5c.62-.39,1.26-.68,1.19-.91-.45.47-1.29.6-1.57.91.18-.08.36-.15.38,0Z"/>
          <path class="cls-3" d="m78.73,134.34c.37-.12.67-.27.74-.46-.42.11-1.03.19-.74.46Z"/>
          <path class="cls-3" d="m64.14,136.82c-1.23.17-1.84.11-2.83.17.82.18,1.95.31,2.68,0-.3-.03.07-.09.16-.18Z"/>
          <path class="cls-3" d="m62.46,136.27c.36-.18.98-.29,1.3-.53-.76.09-1.15.05-1.3.53Z"/>
          <path class="cls-3" d="m61.14,136.31c.34-.2.68.31,1.16.04.02-.21-.09-.35-.34-.44-.45.09-.88.2-1.48.2.14.31.02.21.16.51-.27-.04-.45.1-.17.16.21-.22.98-.15,1.16-.38-.2-.02-.47,0-.5-.1Z"/>
          <path class="cls-3" d="m58.45,137.13c.83.52.04.11.67.03.39-.05.95.19,1.18-.12-.77.08-1.15-.08-1.85.09Z"/>
          <path class="cls-3" d="m53.26,136.63c.56.05,2,.21,1.85.08-.75-.11-1.43-.18-1.85-.08Z"/>
          <path class="cls-3" d="m51.03,135.53c.41.05.53-.08.83.12.21-.31-.94-.49-.83-.12Z"/>
          <path class="cls-3" d="m49.45,133.9c.56,0,.68.17.98.08-.11-.09-1.08-.4-.98-.08Z"/>
          <path class="cls-3" d="m47.55,124.37c.43.11.86.42,1.24.31l.06-.25c-.56-.14-.84-.01-1.3-.06Z"/>
          <path class="cls-3" d="m41.03,125.75c.51.06.74.31,1.02.27-.1-.06-.14-.13-.09-.21-.43-.16-.91-.38-.93-.06Z"/>
          <path class="cls-3" d="m37.83,127.26c.15.09.19.19.22.29.7.07.92.16,1.44.17-.64-.3-.74-.24-1.14-.51.11.38-.51-.16-.52.05Z"/>
          <path class="cls-3" d="m35.54,116.6c.42.2.64.41.9.62.28-.65.97.72,1.41.22-.31-.08-1.01-.24-.78-.56.52-.04,1.17.79,1.32.35-.82-.3-1.35-.51-1.87-1.04.33.64-.48.12-.2.67-.27-.1-.75-.6-.78-.26Z"/>
          <path class="cls-3" d="m20.94,115.87c-.38.22.15.6.47.65-.4-.27-.08-.38-.47-.65Z"/>
          <path class="cls-3" d="m15.73,113.63c.43.13-.56-1.06-.86-1.17,0,.37-.16.69,0,1.12.22-.04.39-.26.69,0,.04.2,1.01,1.39,1.16,1.1-.26-.42-.62-.68-.99-1.05Z"/>
          <path class="cls-3" d="m39.94,120.12s.02,0,.03,0c0,0-.02-.01-.02-.02h0Z"/>
          <path class="cls-3" d="m69.76,132.47v.07c.27-.06.53-.13.78-.19-.26.04-.52.08-.78.12Z"/>
          <path class="cls-3" d="m130.95,68.36c-.11-1.82-.22-3.61-.32-5.34-.03-.43-.06-.86-.09-1.28-.06-.42-.11-.84-.17-1.25-.12-.82-.23-1.62-.34-2.39-.41-.62-.34-2.96-1.14-3.49-.04-.93-.05-1.26-.45-2.11.55.24-.22-1,.19-.92-.37-.69-.22-1.67-.61-1.91.19,1.02.59,1.59.28,2-.15-.97-.65-1.9-.46-2.65-.29-.72-1.12-1.95-1.01-2.65-.39.06-.24-.87-.62-1.18-.16,0-.11.31-.23.1-.39-.54-.34-1.43-.71-1.85.06.19.12.37-.04.38-.24-.45-.04-.51-.28-.96-.28.06.13.72.12,1.03.37.21,1.06,1.98.95,2.28-.33-.48-.59-.57-.54-1.2-.26-.02-.04.37-.2.44.19.51.45.42.64.98-.25-.02-.46-.32-.7-.43.18.56.47.29.66.8-.09.2-.43-.36-.32.12.07.05.12.11.15.18-.05.01-.1.02-.15.04-.1.05-.21.11-.31.16.02-.07.06-.12.13-.15-.26-.42-.21-.51-.26-.95-.19.08-.04.77.07,1.13-.22.12-.44.23-.67.34-.02,0-.06-.02-.1-.06-.04-.15-.09-.29-.14-.44-.01-.17-.04-.34-.2-.47-.19-.45-.34-.89-.14-1.23-.53-.26-1.14-2.31-1.07-2.86-.2.04-.43-.23-.63-.55,0-.12,0-.23.02-.35.02-.16-.11-.22-.28-.18-.12-.3-.17-.54-.1-.58-.25-.23-.49-.47-.74-.73-.08-.2-.16-.4-.25-.6.02,0,.04.01.06.02-.31-.67-.63-1.29-.97-1.89,0-.01-.01-.02-.02-.03-.74-1.37-1.6-2.7-2.55-3.93-.33-.56-.67-1.15-1.03-1.8-.11.09-.25.03-.39-.11-.07-.64-.73-1.29-1.27-1.87-.13-.44-.34-.86-.61-1.27.02-.03.04-.06.08-.09-.19-.25-.27-.28-.33-.25-.08-.11-.17-.21-.25-.31-.36-.44-.76-.87-1.13-1.3-.39-.42-.76-.84-1.05-1.28-.9-1.41-1.8-2.86-2.82-4.24-1.05-1.33-2.25-2.58-3.82-3.37-.31-.25-.33.19-.61-.01-.92-.86-2.14-1.64-3.37-2.47-1.28-.75-2.56-1.57-3.78-2.27-1.7-1.06-3.18-2.41-5.09-3.12-1.12-.38-2.13-.65-3.08-.73-.95-.07-1.83.01-2.66.27-1.66-.7-4.01.07-5.5-1.08-.37.05-.41.43-1.02.23-.44-.09-.39-.29-.6-.43-.1.46.15.41-.2.74,1.29.11,1.85.34,3.02.22.29.13.36.3.83.41,2.6.04,5.7.28,8.97,1.38,3.14,1.1,5.75,3.37,8.05,4.02.42.34-.03.6.23.92,1.26.34,1.77,1.49,3.02,2.25.86.57,1.93.65,2.86,1.38.92.77,1.55,1.53,2.21,2.33.63.82,1.28,1.68,2.23,2.67,0,.06.02.11.03.17-.46-.38-.78-.74-1.51-1.3.1-.18.38.26.5.16-.53-.55-1-.89-1.4-1.24-.4-.35-.73-.72-1.02-1.28-.22.34-.81-.34-1.09-.18.62.59,1.42,1.33,1.41,1.95-.61-.33-.51-.88-.87-.9.38.72.83,1.11,1.36,1.48.53.37,1.06.78,1.66,1.46-.08.09-.18.08-.29.06.31.55.93.92,1.39,1.25.1.16.22.31.33.46-.08-.05-.16-.09-.26-.11.1.21.23.43.31.64-.09-.05-.17-.08-.22-.07.11.11.21.22.3.33.02.11.03.22,0,.31-.8-.44-1.54-.65-2.26-.82-.11-.16-.19-.32-.25-.46l-.18.18c.11.09.18.17.24.24-.11-.02-.21-.05-.32-.07-.05-.05-.1-.1-.14-.16.09-.09-.08-.5-.21-.22.14.14.17.24.12.32,0,0,0,0,0,0-.25-.15-.54-.24-.74-.44-.22-.22-.3-.57-.48-.82-.25-.34-1-.34-1.17.05-.06.13-.12.24-.19.36-.23-.12-.46-.26-.69-.41.09-.42.03-.85-.16-1.28-.03-.06-.23-.07-.35-.07-.05,0-.13.05-.15.1,0,.02-.02.04-.03.07-.35-.15-.71-.35-.8-.77-.1.11-.15.22-.11.36.27.18.53.33.84.64,0,.03,0,.06.01.07.15.15.22.32.28.49-.71-.68-1.37-1.25-2.02-1.68-.15-.1-.3-.18-.44-.27.02-.02.04-.04.06-.06-.04-.05-.08-.1-.12-.15-.04.04-.08.07-.11.11-.47-.27-.92-.48-1.36-.66-.16-.16-.31-.32-.43-.46-.16-.12-.34-.22-.52-.33-2.64-2.41-6.1-4.74-9.89-6.45-4.14-1.91-8.59-3.07-12.31-3.47-.85-.4-1.65-.7-2.53-.88-.88-.19-1.81-.33-2.94-.33-1.15-1.03-3.41-1.18-5.61-1.06-.55.03-1.1.06-1.63.09-.53.04-1.05.09-1.53.11-.97.03-1.81,0-2.43-.21-1.05,1.31-4.59.99-5.83.55-.15.47-.67.68-1.28.76-.61.09-1.32.08-1.88.04-.04-.18.82-.57-.08-.37-.43.05-.39.25-.59.38-.44-.2-.99-.29-1.26-.63-.81.11-.86.44-1.67.55.15-.3.23-.62.7-.83,1.12-.45,1.37-.1,2.02-.08-.09-.31-.5-.31.11-.54.45.72,1.36-.47,2.05.12-.4.1-.71.22-.82.42.82-.29,1.82-.57,2.54-.81-.23.04-.57.02-.24-.09-3.97-.15-7.68.57-11.17,1.79-3.5,1.23-6.79,2.95-10.1,5-.52-.06-1.27.29-2,.58-1.75,1.48-3.09,2.39-2.79,3.84,2.14-1.55,3.74-2.98,7.55-4.9.93-.12,1.75.02,2.23.6-2.78,1.84-6.31,2.89-8.7,5.08-.34.32-.38.57-.72.84-2.07,1.65-3.28,2.27-4.73,3.36-2.82,2.12-5.19,5.09-7.48,7.74-.5.59-1.45.85-1.51,1.83.69-.68,1.4-1.4,1.99-2.12.61-.71,1.16-1.38,1.51-1.98.78-.63,1.83-1.49,2.83-2.45,1.06-.9,2.09-1.9,3-2.64.52-.29,1.01-.59,1.48-.89.48-.29.93-.58,1.37-.88.87-.62,1.72-1.22,2.59-1.85,1.74-1.26,3.63-2.55,6.22-3.67.57.46,1.1.04,1.96-.31.28.7,1.03.68,1.98.33.44-.41-.54-.32-.08-.66.63-.04,1.23-.04,1.53.43-.5.21-1.03.52-1.35.47.42.47,1.51-.1,1.8.58-.87.47-1.68,1.01-2.46,1.54-.76.57-1.5,1.13-2.22,1.7-1.44,1.16-2.85,2.27-4.5,3.21-.61.01-1.12-.25-1.78-.12-.01.67,1.31.08,1.77.44-.34.5-.87.99-1.35,1.5-.14.16-.28.32-.42.47-.03,0-.06.02-.1.03-.62.15-1.34.36-1.62,1.01-.05.11-.11.21-.16.31-.47.36-.9.72-1.29,1.08-.02,0-.04.02-.07.03-.04.06-.09.1-.13.15-.07.07-.16.14-.23.22-.5.39-1.14.41-1.79.4-.23,0-.35.13-.41.34-.04.12-.1.25-.18.34-.2.22-.38.61-.76.2-.35.08-.53.35-.65.64-.22.54-.52.92-1.17.88-.12,0-.28.04-.36.12-.45.48-1.11.78-1.32,1.46-.13.44-.49.35-.78.4-.05.11-.09.26-.16.29-.98.3-1.73.93-2.43,1.65-.37.38-.71.75-1.24.96-.71.29-1.55.55-1.41,1.64.02.14-.22.32-.36.47-.24.24-.48.46-.74.68-.13.11-.25.37-.46.12-.14-.17-.5-.27-.22-.61.08-.1.14-.23.14-.36,0-.12-.08-.24-.12-.35-.06.04-.11.07-.17.11-.44.33-.71.81-.68,1.31.02.26.09.45-.11.65-.33.32-.63.69-1.16.68-.64,0-.17.35-.22.57-.1.42-.34.97-.69,1.15-.36.19-.61.44-.8.72.08-.38.17-.76.32-1.13.82-2.26,2.8-4.69,3.61-6.93.99-.33.2-.67,1.29-1.49-.13-.29-.29-.84-.61-.68-.14-.04-.3.09-.46.22-.48,1.26-1.25,1.99-1.56,3.18-2.37,2.42-3.72,5.3-4.7,8.41-.09.01-.17.02-.27,0,.01.13.08.23.17.29-.02.07-.04.13-.06.2-.09.3-.17.6-.25.9-.17.11-.34.21-.53.3-.34.15-.57.45-.58.92-.02,1.34-.05,1.35-1.27,2.05-.1.06-.21.09-.32.12-.03.24-.16.38-.39.41.03.32.53.62,0,.97-.27.18-.51.44-.68.72-.07.12-.14.23-.22.34,0-.05,0-.09-.02-.13-.02.08-.05.18-.08.27-.11.13-.24.25-.43.35-.38.2-.02.57.13.84-.62.75.01,1.86-.72,2.58,0,.53.08,1.09-.05,1.59-.15.57-.43,1.08-.34,1.71.07.46-.18.74-.62.87-.08.02-.18.27-.14.33.28.43.1.83-.01,1.24.51.63.39,1.39.36,2.11-.03.71.19,1.47-.35,2.11-.1.12,0,.4.22.48.25.1.51.16.49.51,0,.27,0,.53.02.8.07,1.1-.15,2.24.4,3.3.07.13-.04.38-.1.56-.06.16-.28.27-.08.49.31.33.23.75.2,1.14-.06.84-.05,1.22.14,1.56.28.51.5,1.07.99,1.46.19.15.42.41.43.63.03.61.15,1.17.44,1.69-.12,1.04.38,1.9.83,2.77.06.11.16.31.2.3.77-.2.89.6,1.36.85.47.25.96.48,1.45.71.09.22.18.45.27.68-.03.07,0,.13.07.17.08.22.16.45.24.69-.28.29-.47.56-.17,1.07.32.54.43,1.21.59,1.83.05.21.11.39.3.45.28.09.45.15.26.51-.14.28-.07.71-.26.93-.47.53.15.82.2,1.23.02.21.36.19.5.08.37-.29.67-.65,1.03-.94.35-.28.15-.48.04-.8-.22-.63-.09-1.3,0-1.96,0-.05.08-.09.12-.14.05.05.13.1.13.15.03.53.55.73.75,1.13.1.19-.39.5,0,.61.6.17.84.58,1.03,1.1.23.61.45,1.22.72,1.81.29.65.64,1.29.95,1.93.08.17.23.37.21.53-.09.68.23,1.18.71,1.55.51.39.51.88.5,1.43-.01.33-.06.68.22.93.55.49.74,1.21,1.13,1.8.17.26.21-.12.28-.25.05-.1.14-.18.21-.27.04.05.12.11.12.16-.02.78.2,1.55-.22,2.32-.29.53-.11,1.12.23,1.68.57.93.64,1.07,1.53,1.37.75.25.88.39.9,1.08.02.6-.05,1.21.53,1.63.1.07.23.21.23.32,0,.93.69,1.4,1.25,1.95.42.41.76.95,1.4,1.09.29.61.81,1.03,1.21,1.55.44.58,1.33.62,1.55,1.42.03.13.19.09.26-.08.05-.12.04-.26.1-.38.02-.04.05-.08.07-.12.31.25.66.5,1,.74-.24-.24-.52-.67-.81-1.04.01-.03.03-.05.03-.08.06-.32-.18-.42-.46-.5-.17-.05-.39-.21-.45-.36-.04-.11-.1-.2-.15-.3.03,0,.06,0,.11.02-.07-.09-.13-.13-.19-.17-.34-.53-.85-.92-1.2-1.44-.25-.38-.68-.76-.68-1.15,0-.48.34-.96.53-1.44.07-.18.13-.36.21-.54.02-.06.08-.11.13-.15.22-.15.06-.07.11.15.11.5.38.62.84.61.43-.01.31.2.2.48-.17.45.32.23.47.37.15.13.18.26-.01.28-.64.04-.46.38-.31.73-.33.31-.34.7-.24,1.1.01.06.06.14.11.16.04.02.12-.04.16-.08.14-.14.35-.27.39-.44.19-.76.65-1.05,1.42-1.05.29.15.58.23.81.16-.08.18-.12.35-.06.54-.05-.03-.08-.05-.09-.06.04.05.09.09.13.14.04.09.1.17.21.26.11.09.07.29,0,.47-.1-.07-.2-.15-.32-.22.15-.33-.52-1.03-.56-.63.68.08-.02.37.12.51.23.12.42.37.63.61-.19.41-.36.82-.49,1.24-.22.67-.21,1.31.45,1.77.62.43.78,1.03.66,1.74-.03.19,0,.4-.02.6-.01.09,0,.17,0,.25-.1-.02-.21-.04-.33-.08.12.12.24.21.36.29.01.06.03.12.05.17-.79-.39-1.6-1.04-2.42-1.74-.64-.56-1.29-1.14-1.9-1.68-.59-.56-1.13-1.1-1.66-1.48.2.18-.61-.23-.83-.63,0,.69,1.15,1.92,1.33,2.87.48.44.77.81.83,1.17.21.16.39.27.54.3-.24.7,2.74,2.64,2.15,2.83.53.22,1.01.29,1.73.73.16-.14-.14-.3.09-.44.37.24.68.38.87.33-.78-.52-1.1-.22-1.79-.6.26-.18-.04-.54-.36-.57-.36.11.4.35.24.48-.2-.13-.21.11-.47-.13.51-.2-1.06-.72-1.18-1.27.11-.12.24-.17.44-.1.83.75.57.2,1.05.34.41.24.2.43.48.66.29-.29.98.13,1.47.52.69.24,1.41.29,2.08.37.04.03.07.06.11.09.38.34.83.61,1.26.9.1.07.24,0,.25-.16.02-.39.19-.84-.09-1.15-.38-.42-.67-1.01-1.41-.95-.16.01-.4-.11-.5-.25-.14-.2-.27-.41-.41-.61.03-.02.08-.03.14-.05-.11-.05-.19-.1-.27-.15-.21-.32-.41-.65-.62-.98.2-.54.38-1.09.61-1.62.09-.19.14-.36.08-.55-.02-.05-.11-.13-.11-.13-.73.59-.85-.26-1.19-.52-.26-.19-.27-.51-.25-.81.43-.15.6.68,1.09.48.04.04.09.09.14.13.27.39.74.87,1.27,1.24.55.4,1.07.75,1.32.97-.04-.09.25-.21.35-.17.27.42,1.69.61,1.03.71.43.3.63.16.88.12-1.06-.41-1.89-1.1-2.66-1.19-.13-.48-.8-.78-1.3-1.1-.19-.13-.36-.24-.49-.36.08-.01.18-.06.26-.09.03,0,.05-.11.03-.14-.06-.12-.17-.21-.21-.34-.06-.18-.12-.4.1-.52.17-.09.36-.13.55.01.15.11.31.19.47.28.02.2,0,.43.09.57.09.13.32.19.5.22.27.04.54,0,.8.09-.13.05-.27.03.05.21.12,0,.26.02.4.06.05.03.1.04.15.05.75.26,1.64.93,2.21,1.03-.35-.23-.69-.44-1.02-.66.2,0,.4,0,.61,0,.05,0,.11-.07.13-.12.01-.02-.03-.1-.06-.12-.28-.19-.57-.18-.85,0-.03.02-.04.06-.06.1-.19-.12-.37-.25-.55-.37.18-.13.35-.28.57-.24.23.04.47.03.71,0,.21.21.44.41.7.53.07-.22.47.2.5-.1.03-.07,0-.14-.03-.21.4.21.79.18,1.2.17.43-.01.7.06.86.57.08.26.27.46.53.57-.04.15.11.33.3.51-.43-.02-.59.39-1.12.22.22.12.38.24.41.38-.17.13-.54-.05-.66.15.49.12,1.03.45,1.52.9.17-.41.88.08,1.08.22-.24.15-.61.03-.92-.24.08.46-.53-.12-.54.22.46.33,2.16.04,2.54.94-1.09-.55-1.45-.27-2.18-.4-.37.37-.25.67.05.94l.09-.22c.28.09.31.21.47.31-.11.03-.21.07-.06.16-.11.18-.17-.18-.47-.23.38.33,1.01.62,1.37.97,1.16.3,2.69,1.36,3.66,1.39-.38-.24-1.33-.42-1.31-.91.41-.3.71.47.97.16-.54-.31-.85-.21-.96-.61.17.06.16-.1.31-.07.49.28,1.01.72.86.93.04-.27.31.34.42.06-.17-.14-.11-.33-.14-.5-.64-.2-1.02-.47-1.03-.81.84-.07,1.4.35,2.03.41.12.24.27.46.46.65.17.17.35.13.54.06.16-.06.25-.31.49-.16.33.2.73.33,1,.59.61.62,1.32,1.04,2.12,1.35,0,0,0,.01.01.02-.02.03-.05.06-.06.1-.76-.12-1.3.07-2.06-.33.03.07.09.1.14.15-.48-.1-.97-.19-1.47-.28-.34.52.57-.01.53.42-.32.08-1.37-.15-1.39-.51.24.11.49.22.72.29-.07-.19-.39-.31-.67-.43,0,0,0,0,0,0-.01,0-.03,0-.04,0-.17-.08-.33-.16-.4-.28-.1.05-.77-.05-.47.11.01,0,.04.01.05.02-1-.22-1.93-.56-2.82-.82-1.13-.38-2.21-.68-3.33-.68-.22-.47-.66-.65-1.12-.69-1.19-.35-2.11-1.07-2.73-1.68-.38.45-.94-.76-1.5-.78.01-.13-.08-.21.12-.22-1.19-.08-1.27-1.38-2.52-1.8.48.36-.69.12.26.65.26-.07-.14-.46.18-.29-.3.42.75.93.9,1.53.91,0,1.37.8,2.33,1.36.02.19.02.77.45.69-.54-.22.23-.22.32-.32.52.24.94.59,1.37.9-.3.06-.55.15-.69.24.12.05.23.09.35.14,0,.09,0,.14-.16.25.56.38.7.16,1.02.2-.41.43,1.42.9,1.77,1.38.04-.18.2-.19.5-.08-.1.09-.22.07-.09.24,2.63.91,5.06,1.61,7.47,2.33.89-.06,3.31.27,3.03,1.09,2.93.93,6.07,1.12,9.36,1.4,1.11-.39,2.47-.19,3.48-.1-.15-.02.3-.21.58-.11,1.04.34-.71.68-1.58.64.76-.01.02.56-.13.76-1.66.16-3.01.09-4.47.24-.39-.05-.43-.27-.88-.3-.65.3-1.3-.32-2.06-.34-.44-.02-.8.31-1.23.25-.49-.06-.88-.47-1.29-.53-.25-.04-.7.05-.91.03.02,0,.13-.15.17-.14-.44-.07-.7.13-1.08.09-.07,0-.07-.27-.1-.28-.5-.26-1.23.02-1.81-.09-.37-.34.57-.26-.06-.45-.1.27-.71.07-.97.2-.31-.56-1.65-.37-1.36-.78-.51-.06-1.22-.11-1.9-.27-.67-.16-1.33-.34-1.77-.51.16.07.11.18.07.29-1.07-.38-1.42-.5-2.05-.55.03-.08.15-.05.2-.11-.81-.28-1.57-.49-2.22-.78-.65-.29-1.22-.57-1.68-.84-.18.04-.33.13-.55.12-.26-.36-.38-.32-.72-.25-.21-.27.05-.53-.41-.57.37.44-.66,0-.97-.09.07-.15-.33-.28-.13-.44.05-.19.44.11.52-.03-.9-.41-1.01-.18-1.26.15.27.28.82.55,1.13.83.46-.31,1.82.65,2.07.98-.18-.08-.18.08-.34.02.02-.1.12-.21-.04-.3-1.02.1-1.77-.58-2.83-1.16.17.46-.38.1-.54.39,1.1.53,2.22,1.04,3.21,1.53-.37-.36.51-.04.69-.05.22.24.92.83,1.16.82-.16-.09-.1-.19-.05-.3.43.65,1.39.8,2.18,1.22-.9-.38-.55-.03-1.25-.19.6.34.92.58,1.49.45l-.08.24c.73.12,1.59.49,2.5.88.46.19.92.4,1.39.56.48.14.96.24,1.43.29,0,.1-.08.23.09.29,1.65.09,3.86,1.24,4.72,1.04,0,.34-.78.3-1.11.02,0,.6.96.37,1.36.36-.02,0,0,.17-.03.17.63,0,.96-.33,1.62-.27.84.07,1.02.55,2.13.56-.28-.44,1.14.13,1.57-.04-.83-.13-.35-.17.32-.1.67.05,1.55.12,1.53.41-.51-.05-.6.16-.95.2.86.01.45.11.6.46.7-.06.77.18,1.25.23-.06-.27-.69-.27-.92-.47.21.01.34-.02.47-.06.36.12.58.56.93.21-.02.15.03.27.15.35-1.27.04-2.14.08-2.99.05-.84-.09-1.66-.25-2.82-.58-.72.03-1.44-.15-2.16-.31-.73-.16-1.46-.28-2.23-.25.01-.16-.5-.18-.41-.36-1.97-.24-3.81-1.55-5.51-1.44.42.17,1.05.25,1.01.49-.48-.11-2.66-.61-2.01-1.01-.37-.08-.72-.12-1.22-.34-.34.26.77.29.67.51-.69-.2-2.26-.59-2.6-1.2-1.37-.45-2.51-1.02-3.54-1.51-1.02-.51-1.91-1.03-2.65-1.65-.28.35-.2-.31-.49-.43-.4-.1-.06.44-.33.3-.14-.08-.19-.03-.31-.08-.56-.24-.39-.47-.7-.7-.28.11-.91-.35-1.44-.65.21-.62-.96-.85-1.49-1.2-1.1-.67-2.22-1.68-3.34-2.57-1.09-.92-2.18-1.73-2.94-2.4,1.06,1.22,1.66,1.32,2.48,2.44.85.42,1.68,1.07,2.52,1.76.86.66,1.77,1.3,2.67,1.81-.13.17.08.35.06.53-.22.01-.58-.19-.81-.19.44.48,2.15.88,2.8,1.85.2-.2.58.19.89.37.72-.29,2.85.77,3.63,1.25-.1.13-1.31-.6-.93-.25.43.2.88.4.77.64-.27-.07-.81-.49-.9-.33.41.33,1.42.63.96,1.01.59.34-.07-.39.57-.11,0,.08.09.15.26.21.04.45-.42.26-.66.35.57.51.74.21.83.1.37.42-.5.12-.19.47.57.43,1.27.69,1.61.81-.17-.08-.21-.18-.25-.27.25.15.72,0,.76.28-.18-.05-.43-.17-.49-.09.78.53,2.24.84,2.63,1.4.41.03-.2-.34.26-.27.92.19.71.56,1.29.81.12-.09-.06-.48.27-.35.53.24,1.55.28,1.34.65-.18.02-1.22-.24-.84-.04.93.08,1.51.42,1.98.16.61.26-.22.41.36.61.23,0,.1-.31.39-.25.17.2,1.78.97,1.07.44.66.24.79.26,1.74.5.05-.12,0-.32.22-.3,1.31.43,2.58.56,3.8.73,1.22.14,2.4.3,3.59.52.07-.14-.23-.23.02-.25.9.18,1.64.34,2.26.03,0,.12-.08.18-.17.25.67-.12,1.51.1,2.11.26-.45.32-1.28,0-1.48.53,1.14,0,1.64-.68,2.94-.49.22-.19-.42-.33,0-.34.49.12.63.1.97-.07,0,.29.49.29.82.39,1.27-.38,2.56.13,3.7-.46.65.01,1.37.02,2.12-.04.75-.09,1.52-.2,2.27-.34,1.51-.27,2.93-.61,3.91-.95.19.19.9-.12.89.23.83-.53,1.46-.15,2.01-.69-.2.04-.38.07-.36-.08.36-.17.4-.16,1.07-.37.05.12.06.29.39.16.35-.66,1.75-.48,2.53-.61,0-.17-.27-.1-.4-.15.6-.2,1.67-.69,1.96-.32-.36.23-.66-.15-.79.2.22-.06.24.11.39.13,1.51-1.06,3.84-1.78,4.94-2.14.39-.15.45-.5.63-.58.46-.2.99-.03,1.72-.55-.13.09.21-.09.58-.29.15-.07,1.58-.98,2.12-.87.17.16-1.08.68-.6.59.51-.29.64-.47,1.17-.59-.17-.16-.02-.33.21-.46.22-.14.53-.25.7-.24-.37.39-1.01.74-1.07,1.08.86-.55,2.25-1.91,2.54-1.18-.04-.07.19-.24.28-.17-.46.53-.14.54-.53,1.02.72-.87,1.6-1.27,2.44-1.71.83-.45,1.66-.86,2.1-1.89.13.11-.04.26.07.37.42-.3.22-.49.82-.83.07.15.26.04.34.17.32-.28.7-.58.82-.83-.56.47-.92.52-1.18.36.95-.56,1.14-1.18,2.2-1.46-.57.34-.23.5-.81.83.25.06.38.39.84,0-.06-.11-.24-.21-.08-.36.14.35,1.98-.84,2.65-1.48-.08-.35-.47.1-.58-.16.21-.06.5-.32.79-.6-.12.38-.05.29.22.49.45-.3-.02-.36.32-.63.2.25.76-.46,1.03-.36.34-.7.66-.67.73-.45.3-.6.54-.71.68-1.21.32-.07.07.09.24.24.46-.55.43-.47.91-.74.12-.24.12-.45.22-.71.33-.1.5-.46.3.05,1.37-1.24,1.05-2.34,1.78-2.86-.41-.48.28-.89.85-1.22,0-.29-.53.12-.26-.21.44-.23.69-.51,1.02-1.07.3.05.05.37.14.52.11-.38.55-.7.53-.84-.18.16-.35.24-.5.24.24-.31.18-.47.53-.84l.2.15c.46-1.39,1.95-2.71,1.99-3.42.24-.47.38-.16.6-.39-.09-.07-.2-.04-.31,0,.11-.41,1.63-1.74.72-1.1.43-.64.84-.67.91-1.18-.22.32-.39.21-.22-.13-.01.26.17.24.39-.15-.04-.21.1-.53.2-.83-.03.49.52-.57.57-.81-.08.1-.17.28-.24.24.14-.3.43-1.14.75-1.27.05.14-.31.55-.18.65.41-.41.27-.69.51-1.21.59.02.38-1.63,1.03-1.5-.44.52-.49,1.1-.59,1.59-.11.48-.23.89-.72,1.07.41.25-.13.59-.37,1.3.33-.03.05.32.13.45.45-.63.16-.45.19-.65.16-.09.33-.51.48-.31-.09.17-.25.4-.18.47.29-.63.56-.88.81-.89.13-.43.33-.74.59-1.16.24-.44.53-.98.88-1.84,0-.34-.34.1-.16-.44,1.27-1.81,1.47-3.87,2.17-5.39-.13-.41-.56.12-.31-.64.25-.34.38-.18.54.01.2-1.54,1.01-2.3,1.46-3.89-.5-.84.74-2.87.42-3.99-.07.77-.31,1.73-.69,2.03-.14-.67.22-2.55.73-2.19-.08-.93.73-1.56.29-1.95.61-.07.89-1.93.86-3.02,0,.16.13-.23.18-.64.13-1.08.31-2.29.44-3.48.05-.93.04-1.86-.04-2.71.09,0,.19,0,.31.05-.07-1.02-.14-2.03-.21-3.03.02.02.04.03.09,0-.14-.5-.1-.68-.17-1.15-.03-.34-.05-.67-.08-1.01.17-.42.3-1.18.34-1.61.02.32.24.19.2.64-.12.72-.07,1.61.25,2.13-.06.34-.14.35-.26.17.21,1.92-.06,3.35.3,5.11-.29-.44-.3,1.61.02,1.16-.24,1.11-.49,2.53-.62,3.94-.07.71-.12,1.41-.13,2.07,0,.33,0,.65,0,.95,0,.3-.01.58,0,.85.11-.82.59-2.26.36-2.99.31.43.17-.72.04-.84l.25.03c.6-3.57.65-7.34.69-10.99Zm-23.92-46.24c.29-.14.47.3.58.53-.16.12-.54-.43-.58-.53ZM36.9,125.06c.03-.44.73.2.79.09.35.32-.43.14-.79-.09Zm4.85,2.84c.21-.44.47.14,1.05.28-.12.16-.73-.22-1.05-.28Zm1.21-1.28c.07-.22.73.04.88.22-.07.17-.61-.18-.88-.22Zm10.48,4.3c.14-.05.36-.04.62,0-.03.12-.05.24.12.28-.14.18-.96-.05-.75-.28Zm4.9.94c-.1-.24.32-.16.32-.32-1.22-.3-2.49-.12-2.88-.81,1.05.3,1.48.06,2.3-.07.2.09.29.24.6.28-.24.19-.38.11-.77.05.11.33.52.52,1.21.57.1.32-.26.36-.79.3Zm66.22-46.96c.19.02-.1.55-.11.78-.05-.08-.1-.17-.12-.29.06-.14.12-.27.17-.41.02,0,.04-.03.06-.09Zm-1.37,10.95c-.34.57-.25.5-.55,1.18-.25.19-.51-.08-.18-.61.26.64.26-.67.73-.57Zm-41.02,31.41c-.04.21-.78.35-1.12.47.14-.46.52-.28,1.12-.47Zm-7.93,3.55c-.86.08-1.26-.04-2.22-.07.44-.45,1.35-.25,2.25-.54,0,.2-.18.35-.03.61Zm-4.69.06c-.12.29-.52.01-.62-.03-.07-.19.43-.12.42-.29.53-.06-.34.37.2.31Zm1.85-.11c-.07.21-.47.3-.54.51-.24-.22-1.32.19-1.43-.13.7.15,1.16-.45,1.97-.38Zm-1.14-1.21c-.49.12-.93.28-1.74.39-.35-.43.35-.59,1.23-.81.88-.2,1.96-.34,2.38-.46.66.12.84.44-.03.69.02-.07.14-.11.12-.19-.95.15-1.47.25-1.95.38Zm-1.47,1.39c-1.11.29-3.7.3-3.08-.14.79.31,1.8-.12,3.08.14Zm4.15-1.97c-.09-.21.27-.27.54-.35.04.23-.26.46-.54.35Zm1.13-2.57c-1.03.15-2.07.25-2.87.36-.35.14.18.35.49.27-.1.26-.61.07-.86.14-.04-.15.15-.2.09-.36-.09-.18-.71.08-1.01.07.91-.56,1.86-.76,2.96-.89.55-.06,1.14-.12,1.76-.19.62-.1,1.28-.26,2-.46.02.12.04.24.21.21-.37.19-.8.36-1.27.51-.23.08-.48.15-.73.21-.25.04-.51.08-.77.13Zm-34.01-10.07c.06-.01.13,0,.19.03,0,0,0,0,0,0,0,.02,0,.04-.02.06-.19-.04-.28-.06-.33-.09.05,0,.1,0,.16,0Zm-8.04-3.41s-.09.08-.13.12c-.04-.02-.08-.04-.12-.06.02-.03.04-.06.06-.09.02-.03.04-.06.06-.09h0s.08.08.12.13ZM57.62,19.49c-.11.11-.28.17-.54.19-.04,0-.08,0-.12,0-.11-.04-.29-.01-.47,0,.35-.19.73-.23,1.12-.2Zm69.71,33.49c.11.37.02.53-.08.68-.12-.45-.15-.92-.29-1.37,0-.09.02-.17.04-.23.28.95-.09.87.33.92Zm.2.79c.05.29.1.5.14.69-.02,0-.03-.02-.06-.02-.06-.08-.11-.16-.15-.24-.08-.25-.13-.49.07-.43Zm-.55,21.17c.02-.22-.02-.35-.09-.43.03-.37.08-.72.16-.98.06.1.11.21.16.32.02-.15-.04-.37-.06-.57.01-.02.02-.05.03-.07-.01-.04-.02-.09-.03-.14.01-.07.04-.13.1-.17.02.3.23.29.13.8-.57.62-.2.27-.41,1.24Zm-52.55-54.6c-.1.02-.15,0-.18-.05.06-.02.13-.03.2-.05,0,.04,0,.09-.01.09Zm40.76,16.15c-.26-.02-.48-.09-.5-.41,0,0,0-.01,0-.02.18.13.34.27.5.42Zm11.63,33.55c-.02-.25-.04-.51-.06-.77,0-.02.02-.04.02-.06.06-.19.23-.35.39-.51,0,.26,0,.53,0,.79.02.58.06,1.14.15,1.67-.13.01-.29-.02-.27.31.13.03.32-.05.33.16-.06.47-.16.85-.31,1.15-.18-.77-.22-1.73-.26-2.74Zm.31-2.24s0,.09,0,.13c-.02-.04-.02-.09,0-.13Zm-8.3-27.36c-.19-.2-.15-.48.09-.67.02-.01.04-.02.07-.02.28.34.54.73.79,1.17-.35.06-.55-.07-.94-.48Zm-.28-1.17c-.29-.08-.48-.27-.58-.56.2.17.39.36.58.56Zm8.32,35.37c.03.19.02.4-.02.61,0-.21,0-.41.02-.61Zm1.89-14.71c.04-.12.1-.25.17-.37,0,.27-.03.5-.14.59,0-.07-.02-.14-.03-.22Zm-.2-1.57c0-.05,0-.12,0-.16.06.07.11.18.16.32-.05-.04-.1-.09-.17-.15Zm-.51-1.72c-.21.46.09,1.01.24.95-.02.21-.08.28-.15.29-.07-.09-.14-.18-.2-.27-.02-.06-.03-.12-.04-.18-.08-.1-.17-.19-.26-.27-.05-.09-.1-.17-.12-.22-.07-.17.13-.4.34-.37.05,0,.11.02.16.04,0,.01.01.02.02.03Zm-1.19-4.57s-.01-.03-.02-.05c-.03-.07-.03-.12-.02-.18.01.08.03.15.04.22ZM58.59,19.69c-.1,0-.18-.03-.26-.07.09.02.17.05.26.07Zm20.31,107.76c.12.36-.45.08-.85.31.15-.26.46-.28.85-.31Zm32.77-15.71c.16.28-.44.47-.79,1.01-.1-.11-.27.03-.36-.1.39-.34.79-.71,1.15-.9Zm.78-1.01c.08.09.17.17.3.04.19.16-.44.81-.67.89-.11-.22.04-.54.37-.93Zm12.38-26.61s.06.03.09.05c-.1.23-.14.25-.19.22.03-.09.07-.18.1-.27Zm1.84-6.35c-.01-.13-.02-.25-.04-.36.05-.05.1-.09.15-.11,0,.15-.05.31-.11.47Zm.31-1.03c-.03-.2-.06-.46-.08-.74.05-.23.11-.44.24-.74-.04.71-.11.94-.08,1.46-.03,0-.06.02-.09.02Zm2.02-13.87c.08-.39.1-.78.04-1.26.47.19.27,1.31.03,1.71-.02-.15-.04-.3-.06-.44Zm-.13-2.39c.15.18.24.53.31.94-.3.18-.4-.68-.31-.94Zm-1.2-7.93l-.33.09c-.12-.27.07-.72-.21-.79-.06-.55.21.13.29.09.04-.21-.07-.33-.21-.49.06-.05.11-.1.16-.15.21.34.36.74.3,1.25Zm-.65-2.72c-.11-.01-.17-.3-.23-.53,0,0,.02,0,.03,0,.08,0,.15-.07.2-.14.22.45-.03.42,0,.67Zm-1.38-1.57s.11,0,.15.02c.29.19.48.43.55.79.03.17.17.23.33.24.03.13.05.27.05.45-.08.02-.06.16-.12.21-.21-.73-.61-.47-.12-.13.02.1.04.2.06.3-.27,0-.54-.01-.81-.04-.08,0-.2-.21-.18-.3.06-.24.28-.48.25-.68-.04-.23-.33-.4-.27-.7.01-.06.06-.12.11-.16Zm-2.85-5.29c-.1-.05-.2-.09-.3-.04-.06-.15-.13-.27-.19-.38-.02-.1-.03-.21-.03-.31.16.23.36.5.53.73Zm-10.89-14.92c.06.07.13.15.19.22-.01.02-.02.05-.04.07-.35-.07-.52-.53-.73-.97.19.23.37.45.58.68Zm-5.8-1.85s.05.06.07.1c-.07-.03-.14-.06-.21-.08.03-.04.08-.05.14-.02Zm-50.77-6.35c0,.07,0,.14,0,.2.16,0,.26-.09.32-.21.27,0,.54.01.82.02-.1.22-.3.36-.49.49-.32.21-.55.09-.66-.26-.11.04-.23.07-.34.12-.53.27-.72.26-1-.1,0-.01-.02-.03-.03-.04.46-.15.91-.21,1.37-.22Zm-3.9.61c.46-.09.9-.13,1.3-.13-.1.09-.23.15-.44.14-.13,0-.31,0-.37.08-.45.57-1.17.1-1.67.46-.35.25-.55.12-.72-.07.64-.21,1.29-.37,1.9-.48ZM18.17,100.94c-.06-.01-.11-.2-.1-.3,0-.05.04-.1.07-.15.03-.05.07-.09.1-.14t0,0s0,0,0,0c.05.1.13.19.15.29.02.16,0,.35-.23.3Zm1.84,5.03c-.02.09-.14.15-.21.23-.04-.05-.12-.09-.12-.14-.02-.18-.02-.36-.03-.54,0,0-.02,0-.03,0,0-.01,0-.03,0-.04-.09-.04-.18-.08-.26-.13-.02,0,0-.13.02-.13.22-.03.23.11.24.26,0,0,.02,0,.03.01,0,0,0,.02,0,.03.29,0,.44.15.36.45Zm1.21,1.1s0,0,0,0h0c-.1-.06-.2-.12-.31-.18.11-.06.22-.16.33-.15.11,0,.21.11.32.18-.11.05-.23.11-.34.16Zm.81.86c-.01.15-.02.3-.25.26-.02,0-.04-.12-.02-.13.08-.05.18-.09.27-.13,0-.01,0-.03,0-.04.01,0,.02,0,.03,0-.01-.24-.04-.48.16-.67.12-.11.51-.11.5,0,0,.1-.04.22-.1.29-.15.18-.28.4-.57.38,0,0,0,.02,0,.03-.01,0-.02.01-.03.02Zm1.59.37c-.28.64-.87,1.13-.93,1.89,0,.04-.24.1-.34.07-.1-.03-.25-.18-.24-.25.19-.75.52-1.45.99-2.07.04-.05.25,0,.37.03,0,0,0,0,0,0,.03.03.06.06.1.09.01.02.02.03.04.04,0,.06.04.14.02.19Zm5.99,4.97c-.07.15-.17.21-.32.16.04-.13.12-.24.32-.27.34-.05.49.16.45.46,0,.04,0,.06,0,.09-.11-.11-.24-.25-.46-.44Zm2.49.62s0,.03-.01.04l-.03-.03s.03,0,.04-.01c0-.03.02-.06.03-.09.03.02.06.03.08.05-.04.01-.07.02-.11.04Zm13.52,10.54c-1.24-.57-2.45-1.14-3.92-1.41-.48-.22-.95-.53-1.46-.85-.05-.04-.11-.08-.17-.11.23.05.46.1.68.15.55.12,1.08.24,1.61.4.54.14,1.1.32,1.7.59,1.01-.45,2.44,1.34,3.4,1.21-.38-.61,1.24-.11,2.17,0-.15.27-.04.62.02,1.11-1.48-.13-2.77-.61-4.03-1.07Zm18.71,3.14c.3-.19.48.19,1.02.11-.01-.08-.18-.05-.3-.07.03-.12.43-.05.42-.19-.17-.18-.91.02-1.3-.01.59-.42,2.06-.39,2.54-.66.24.17.14.45.05.51.16.28.32,0,.59.13.39-.14-.47-.14-.33-.4,1.1-.08,1.36.02,1.84-.29.47.07,0,.15.86-.04.15.57-.9.28-1.24.49.53.36,1.81-.57,1.9,0-.45.05-.92.15-1.41.25-.49.07-1,.15-1.52.22-1.04.14-2.11.2-3.12-.06Zm.33,3.46c-.14.26.35.13.62.14-.5.14-1.32.18-2.23.21-.92-.03-1.93-.08-2.83-.02,1.07-.63,2.82-.03,4.44-.33Zm-4.9.56c.87.14,1.08.08,2.01.16-.87-.43,1.93-.21,2.16,0-.73.24-1.59.19-2.4.14-.81-.04-1.57-.08-2.09.12-.12-.28.25-.25.32-.41Zm-.49.74c.13-.29.55-.07.78.03-.04.2-.69.02-.78-.03Zm10.55.47l-.04-.27c-.07.02-.14.03-.21.05-.34.06-.69.1-1.06.15-.73.09-1.5.17-2.28.22-1.57.09-3.23.17-4.78-.12-.17.02-.11.17-.31.16-.37-.04-.65-.13-.94-.21.04-.26.78-.11,1.26-.12.01-.12.02-.24-.16-.26,1.52-.04,4.27-.03,6.51-.64.51.06,1,.13,1.29.34.45-.1-.13-.26-.05-.42.39-.08.75.25.94-.02.46,0,.19.1.2.31.77-.24,1.32-.43,1.83-.45.11-.3-.5-.05-.8-.05.44-.37,1.53-.43,2-.32.18.3-.62.67.27.56-.63.41-2.51.11-2.78.53,1.22.03,3.26-.61,3.98-.21-1.6.65-3.09.39-4.85.77Zm7.14-2.03c-.02-.15-.23-.13-.23-.29.58-.24.52.13,1.1-.11-.11.18-.62.26-.87.4Zm4.11-1.54c-1.85.29-3.44.77-5.33,1.15.06.15.52-.08.64.01.04.26-.89.39-.93.13-.39.24-.41.32-.18.63-.7-.18-.84-.4-.6-.59.25-.2.89-.35,1.77-.54-.16-.09-.51,0-.79.03-.13-.24.67-.24.69-.44.21-.03.18.18.23.29,1.43-.46,1.53-.53,3.09-.99.29.25.75-.2,1.15.04.38-.18-.51-.06-.11-.32,1.07-.22,1.04.02,2.1-.51-.06-.23-.91.44-.81.03.71-.12,1.21-.38,1.7-.72.12.17.09.31,0,.45.39-.12.43-.29.31-.48.7-.36.94-.19,1.28-.12-.54.86-3.37,1.29-4.24,1.95Zm13.9-3.74c-.02-.44.61-.48.96-.88.13.27-.67.59-.96.88Zm4.41-.94c-.26.62-.24-.12-.65.21-.02-.12.31-.28.51-.42.06.11.11.21.28.12.03.1-.11.13-.14.09Zm-.5-1.29l.54-.34.15.21c-.28.14-.6.35-.69.14Zm.63-.5c-.11-.18.33-.45.67-.71l.15.2c-.31.24-.61.47-.82.5Zm-.23-.41c-.84.58-1.7,1.12-2.13,1.49.05-.35.77-.89,1.63-1.48.85-.6,1.8-1.32,2.43-1.84-.35.52-1.14,1.19-1.94,1.82Zm5.95-1.27c-.29-.19-.34-.18-.26-.55.31-.02.79.12.26.55Zm.48-.7c-.14,0-.35.17-.43.01.15-.05.3-.1.26-.2.15-.1.19.05.36-.09-.02.11-.04.22.04.3-.16.11-.42.15-.23-.02Zm2.29-1.16c-.04-.12.26-.33.43-.51-.09-.05-.27.15-.43.28-.22,0,.17-.54-.23-.25.03-.2.68-.25.9-.26-.41.42-.14.45-.67.74Zm2.9-4.97l.19.17-.55.6c-.23-.13.23-.51.36-.77Zm.9,1.03c.1-.39-.16-.09-.46.25-.12-.38.72-.71,1.06-1.05.13.14-.44.55-.6.79Zm.49-2.19c-.11.72-.3,1.38-1.39,2.04.11-.47,1.11-1.12.76-1.72,1.01-.92,1.63-1.83,2.18-2.2-.01.67-.92,1.63-1.55,1.88Zm2.89-3.32c-.56.63-.87.78-1.1,1.42l-.33-.26c.66-.61,1.17-1.68,1.94-2.4,0,.48-.64.8-.5,1.24Zm6.66-10.43c-.28,0-.1-.36-.39-.37.25-.16.47-1.01.73-.73-.18-.34.43-.96.7-1.47-.51.96-.57,1.91-1.04,2.57Zm.11,2.83c-.12-.08-.26,0-.39.17-.15-.11.05-.44.27-.79,0,.33.21-.03.22.3.19-.25.4-.92.57-.64-.21.13-.44.59-.66.97Zm.89-1.79c-.03-.51.22-.61.51-1.05.03.51-.22.61-.51,1.05Zm.59-6.02c-.05-.17-.01-.44.14-.81.24.05.09.65-.14.81Zm-.14-2.28c-.01-.43.22-.57.35-1.23.24.09-.16,1.05-.35,1.23Zm.84-3.4c.23.22-.23.6-.2,1.1-.35.02.15-.74.2-1.1Zm-.04,2.66c-.09-.6.03-.88.18-1.79.05.26-.09,1.1.27.25.28.32-.3.97-.46,1.54Zm1.21-6.93c-.33,1.55-.18,2.14-.21,2.89-.07.36-.28.11-.37.39.45-.15.14,1.02-.07,1.8-.27-.14-.42-.14-.43-.3.15-.13.27-.68.23-.93-.31.38-.14-.53-.34-.59.14-.3.22-.29.29-.08.11-1.18.68-2.54.77-3.71.09.04.12.31.25.05-.35.17.08-.53-.14-.51-.11.17-.18.12-.22-.02.12-.36.24-.72.34-1.09.31-.11-.15.67.07.67.13-.69.73-1.74.43-2-.18.68-.17.97-.49,1.29,0-.02.01-.04.02-.06.14-.6.25-1.22.34-1.86.13,0,.24-.06.35-.15,0,0,0,0,0,.02.24.34.19.78.09,1.23-.11.45-.29.9-.24,1.31-.21.36-.32.32-.44.4.22.31-.05,1.76-.16,2.07-.28.01.11-.72-.06-.83Zm-.01,7.86c.27-.53.09-.81.39-1.08.41-.07-.11,1.38-.39,1.08Zm.42-1.42c.35-.24.64-.89,1.03-.89-.3.58-.61,1.15-1.03.89Zm3.42-27.13s0,0,0,0c0,.01,0,.02,0,.03,0,0,0-.02,0-.02Zm.38-.7c.07-.25.08.69.17,1.3-.37-.16-.29-.9-.17-1.3Z"/>
          <path class="cls-3" d="m36.76,12.18c-.24.37-1.79.86-1.88,1.02.34-.05,2.39-.95,1.88-1.02Z"/>
          <path class="cls-3" d="m70.49.55c-.1-.2-.93-.09-.99-.27,1.06-.23,1.74.5,2.82.6.04-.1,0-.24.19-.23.16.14.25.29.46.41,1.14-.05,3.25.62,4.21.33-.24-.19-1.22-.27-.6-.47-.83-.17-.14.23-.56.25-.02-.07-.12-.12-.32-.14.3-.34-1.09-.23-1.64-.51-.43.05.27.3-.21.31-.34-.33-1.03-.49-1-.14.11-.11-1.34-.15-.81-.37-1.8-.17-1.61-.35-3.02-.33.13.31,0,.21.14.52.67-.14.9.13,1.34.03Z"/>
          <path class="cls-3" d="m89.64,13.46c.41.11.97.43,1.3.43-.33-.21-1.08-.54-1.3-.43Z"/>
          <path class="cls-3" d="m95.85,13.78c-.16.26-.8-.27-1.11-.26.17.32,1.39.66,1.11.26Z"/>
          <path class="cls-3" d="m100.16,11.23c.08-.12.42.2.52.12-.25-.11-.32-.57.03-.38.18.27.4.09.84.19-.82-.27-2-1.06-2.37-.92.62.12,1.36.82.98.99Z"/>
          <path class="cls-3" d="m100.52,19.64c-.21.17.1.41.46.66-.08-.4.76.42.39-.02-.31-.22-.48-.15-.44-.43.07.05.18.05.05-.07-.12.04-.24.06-.4.02.02-.05.04-.09-.07-.16Z"/>
          <path class="cls-3" d="m101.63,20.68c.7.82,1.54,2.16,2.42,2.29-.08-.09-.22-.2-.17-.27.36.28.57.16,1.01.68.18-.14-.09-.38-.29-.6-.56-.26-2.58-1.59-2.4-2.1-.19,0-.43-.11-.57,0Z"/>
          <path class="cls-3" d="m107.5,17.87c.22.53,1.94,1.46,1.93,2.07.29.26.46.22.79.61-.15.03-.32,0-.47.03.26.18.53.37.79.6.25.24.5.5.76.78.51.55,1.02,1.16,1.53,1.76,1.03,1.21,2.08,2.4,3.1,3.25.1,1.04,1.51,1.32,1.37,2.08.14-.25.06-.19.33-.26-.84-.66-1.62-1.99-1.54-2.51-.03-.02-.03-.06.04-.14-.03.03-.03.09-.04.14.1.07.61-.08.62.47.29.06-.02-.55.26-.22.09.33.15.64.18.93.26.29.5.48.74.69-.06.08-.21.13-.1.29.3-.42.62.61.77.88.06-.42-.55-1.17-.44-1.57-.32.06-.22-.22-.58-.62.06-.08.2-.13.1-.29-.15-.05-.32-.73-.79-.88.18.31.12.37-.09.3-.4-.75-1.19-1.34-1.52-2.24-.41.26-.65-.35-1.03-.88-.11.07-.19.26-.36.11-.21-.27-.06-.4-.09-.6.18.23.79.62.52.2-.19.15-.73-.9-.92-.75.26.26.31.44.16.55-.12-.45-.37-.14-.74-.68-.2.11-.39.27-.65.18.03-.6-.75-.55-1.14-.96-.17-.48-.32-.89-.2-1.25-.43-.31-.5-.47-.67-.5.24.25.09.39.14.59-.88-.56-1.09-.86-1.85-1.67-.31.04-.63-.09-.91-.47Zm6.6,6.28c.18.09.38.25.62.56-.09.43-.61-.7-.7-.26-.12-.15.02-.21.07-.3Z"/>
          <path class="cls-3" d="m106.84,25.06c.19.29.13.51.12.74.24.34.33.1.53.32-.11.1-.07.24.03.4.29-.5-.48-.88-.35-1.37-.08.08-.24-.14-.33-.1Z"/>
          <path class="cls-3" d="m124.62,42.47c-.06-.86.55.25.62-.28-.28.09-.54-.49-.82-.53.38.51-.07.38.2.82Z"/>
          <path class="cls-3" d="m124.85,45.41c-.12,0-.23-.16-.37-.02.19.44.05.58.05.85.1-.07.45.71.35.21-.47-.55.06-.67-.03-1.04Z"/>
          <path class="cls-3" d="m120.22,104.08c.29-.2.74-.15.62-.22.12-.44-.44-.17-.62.22Z"/>
          <path class="cls-3" d="m114.8,111.78c-.41.51-.93.74-.91,1.17.29-.18.88-.72.77-.23.1-.42,1.29-1.2.97-1.14-.32.26-1.16.9-.82.2Z"/>
          <path class="cls-3" d="m120.6,118.41c-.02.2-.02.18-.1.88.49-.67.92-1.32.65-1.64-.14.23-.71.66-.55.75Z"/>
          <path class="cls-3" d="m99.68,126.47c-.23.18-.44.12-.43.27.58-.17-.48.44-.43.57.38-.12,1.29-.74,1.1-.79-.59.39-.37.18-.24-.05Z"/>
          <path class="cls-3" d="m80.46,134.32c.24.02.63-.09.72.07-.76.24-2.04.07-1.62.43.23-.26,1.01-.16,1.21-.06.14-.23,1.62-.91,1.17-.76-.7.36-1.25.05-1.48.32Z"/>
          <path class="cls-3" d="m76.55,134.54c.01.4-.61.85.07,1.02-.09-.15.18-.21.27-.32-.53-.09-.46-.59.5-.74.1-.32-.53,0-.84.04Z"/>
          <path class="cls-3" d="m73.68,135.38c-.33.13.38.28.28.56l-.66.11-.08-.42c-.5.35-1.48.41-1.07.68-.27-.09-.69.04-.82.21,1.28-.08,1.6-.44,2.66-.42,0-.1.01-.2.3-.22-.5-.15-.03-.52-.61-.5Z"/>
          <path class="cls-3" d="m66.59,140.17c.33.11,1.17-.07.92.37,1.26-.12-.51-.68-.92-.37Z"/>
          <path class="cls-3" d="m59.66,135.66c.19.05.37.11.49.19,1.83-.07-.13-.21-.49-.19Z"/>
          <path class="cls-3" d="m58.66,136.04c.14.26.89.36,1.32.31-.12-.19-.72-.34-.32-.52-.88-.1-1.41,0-1.98.08.48.31-.49.29-.19.41.22-.1.79-.08,1,.05.22-.2-.07-.27.18-.33Z"/>
          <path class="cls-3" d="m56.39,135.24c.01.21-.27.26-.51.29-.03-.18-.72-.12-.8-.28-.18.05-.08.3-.51.19-2.84-.44-4.96-.71-6.93-1.28-.99-.26-1.96-.52-2.99-.79-.51-.14-1.04-.28-1.59-.43-.54-.19-1.1-.38-1.7-.59-.1.56-.51-.26-.83-.11.17.53.55.57,1.27.98.22-.21-.36-.31-.37-.49.21.08.36.08.49.08-.32.28.74.51.17.6,1.17.32,2.49.49,3.92.8.72.15,1.46.31,2.25.49.39.09.79.19,1.21.29.42.08.84.16,1.28.25.01-.15.16-.2.36-.2.37.27.42.15,1.14.26-.22.22-.14.3.27.47.04-.09,0-.24.2-.23.85.12,1.98.17,2.97.13.89-.04,1.66-.21,2.06-.37-.3.07-.97-.07-1.35-.05Z"/>
          <path class="cls-3" d="m35.46,121.38c.57.22,1.2.65.55.54.31.24.72.51.97.36.41.39.46,1.02,1.1,1.17-.05.14-.13.23-.27.25.47.15.71,0,1.1.04.25.15-.02.35.44.48.21-.15.97.04,1.68.31-.04.04-.08.09-.09.13,0,.11.07.22.1.34.07-.07.18-.14.18-.21,0-.06-.01-.13-.04-.19.79.33,1.46.74,1.18.91.41.1.82.26,1.22.43,0,0,0,0,0,0-.05,0-.1.08-.15.12-.09.08-.05.2.12.24.37.09.79-.02,1.08.33.34-.24.63-.13.98.05.2.1.35,0,.43-.21.03,0,.05,0,.08-.02-.02-.01-.04-.02-.06-.03.02-.07.02-.14.03-.23.25.05.53.12.57-.04-.18-.04-.38-.08-.57-.12-.03-.18-.11-.43-.21-.36-.14.1-.29.16-.44.2-.14-.03-.27-.06-.41-.1-.55-.18-1.12-.38-1.67-.59-1.1-.41-2.16-.81-2.99-1.11.1-.07.22-.13.37-.14.42.13.57.56.83.3-.43-.15-.62-.34-.91-.51-.22.19-.62.1-1.01-.05-.39-.17-.78-.38-1.04-.35.21-.02.29-.21.16-.39-.57-.19-1.31-.62-1.62-1.04.08-.1.27-.03.37-.11-.84-.4-1.2-.25-2.06-.41Z"/>
          <path class="cls-3" d="m39.21,128.07c.8.09,1.49.17,2.25.72.04-.11-.01-.2-.07-.29.25.09.4.07.49,0-.93-.21-1.36-.44-2.27-.63.97.33-.18.21-.41.21Z"/>
          <path class="cls-3" d="m37.75,127.04c-.25-.11-.44-.22-.54-.34-.25.16.48.83.3.51-.4-.23.27-.02.24-.17Z"/>
          <path class="cls-3" d="m34.43,127.55c-.39.47,1.32.85,1.38,1.3l.06-.16c.09.04.18.07.18-.01-.34-.21-.83-.4-1.43-.76.04-.13.14-.26-.19-.37Z"/>
          <path class="cls-3" d="m29.47,131.37c.16.02.66-.12.34-.3-.41.12-.6-.18-.93-.09.26.15.37.27.39.4-.55-.14-.52-.27-1.07-.59-.11.12.08.26,0,.39-.47-.41-.95-.35-1.34-.49.46.24.38.44.84.69.58-.06.95.3,2.02.69.03-.17.29-.05.43-.08-.4-.2-.48-.41-.68-.61Z"/>
          <path class="cls-3" d="m33.63,115.57c.34.08.47.5.58.35-.51-.34-.22-.42-.25-.64-.27.07-.33-.01-.33.3Z"/>
          <path class="cls-3" d="m103.71,13.47c.58.47.85.34,1.28.52.34.34.36.63.56.95.33.11.68.41,1.08.75.38.37.8.78,1.31,1.1-.64-.51-.6-.84-.75-1.22-.59-.23-.81-.62-1.35-.73.1-.12,0-.22-.22-.27.14-.15.27-.31-.02-.54-.44-.03-1.08-.46-1.52-.5-.07-.19-.08-.37-.22-.58-.06.1-.17.11-.28.11.25.17.27.3.13.41Z"/>
          <path class="cls-3" d="m42.44,134.18c-.33-.24-.72-.47-1.13-.68-.83-.42-1.79-.75-2.71-.78-.06.7-.74.75-1.65.57.2-.38-.82-.63-.91-.98-.08.37-.64-.03-.62.18-.04-.15-.17-.3-.37-.45-.11.41-1.06-.2-1.68-.41-.11.3.08.3-.2.47.62.58,2.18,1.36,2.68,1.67,1.62.12,3.36,2.01,5.42,2.48,1.38.3,2.28-.3,2-1.44-.2-.2-.49-.41-.83-.64Z"/>
        </g>
      </g>
    </g>
  </g>
</svg>
